<?xml version="1.0" encoding="UTF-8" standalone="no"?>
<!-- Created with Inkscape (http://www.inkscape.org/) -->

<svg
   xmlns:dc="http://purl.org/dc/elements/1.1/"
   xmlns:cc="http://creativecommons.org/ns#"
   xmlns:rdf="http://www.w3.org/1999/02/22-rdf-syntax-ns#"
   xmlns:svg="http://www.w3.org/2000/svg"
   xmlns="http://www.w3.org/2000/svg"
   xmlns:sodipodi="http://sodipodi.sourceforge.net/DTD/sodipodi-0.dtd"
   xmlns:inkscape="http://www.inkscape.org/namespaces/inkscape"
   width="78.634392mm"
   height="78.697884mm"
   viewBox="0 0 278.6258 278.85077"
   id="svg4141"
   version="1.1"
   inkscape:version="0.91 r13725"
   sodipodi:docname="bitcoin.svg">
  <defs
     id="defs4143" />
  <sodipodi:namedview
     id="base"
     pagecolor="#ffffff"
     bordercolor="#666666"
     borderopacity="1.0"
     inkscape:pageopacity="0.0"
     inkscape:pageshadow="2"
     inkscape:zoom="0.35"
     inkscape:cx="-261.14188"
     inkscape:cy="156.49501"
     inkscape:document-units="px"
     inkscape:current-layer="layer1"
     showgrid="false"
     borderlayer="false"
     fit-margin-top="0"
     fit-margin-left="0"
     fit-margin-right="0"
     fit-margin-bottom="0"
     inkscape:window-width="1280"
     inkscape:window-height="962"
     inkscape:window-x="-8"
     inkscape:window-y="-8"
     inkscape:window-maximized="1" />
  <metadata
     id="metadata4146">
    <rdf:RDF>
      <cc:Work
         rdf:about="">
        <dc:format>image/svg+xml</dc:format>
        <dc:type
           rdf:resource="http://purl.org/dc/dcmitype/StillImage" />
        <dc:title></dc:title>
      </cc:Work>
    </rdf:RDF>
  </metadata>
  <g
     inkscape:label="Layer 1"
     inkscape:groupmode="layer"
     id="layer1"
     transform="translate(-200.42759,-410.00644)">
    <g
       id="g4700"
       transform="translate(42.857141,11.428572)">
      <path
         style="fill:#fbe7d0"
         d="m 298.75102,677.42712 c -47.28276,-0.14907 -88.85076,-21.4012 -115.63325,-59.11884 -10.88398,-15.32786 -15.21982,-25.37075 -20.67027,-47.87748 -3.70585,-15.3027 -4.86865,-22.51756 -4.87696,-30.26027 -0.0537,-49.96265 24.2347,-93.77403 67.28749,-121.37333 9.45111,-6.05871 10.75507,-6.54727 35.72962,-13.387 24.81702,-6.79659 26.41595,-7.08352 37.55789,-6.73984 24.67758,0.76122 44.07171,5.97274 65.47343,17.59379 20.60158,11.18659 37.53567,26.81501 51.08628,47.1474 5.85442,8.78445 6.63111,10.752 13.69648,34.69692 6.82022,23.11408 7.5141,26.40168 7.75829,36.7587 0.57827,24.52615 -5.78167,50.01992 -17.80193,71.35884 -11.50322,20.42105 -27.93401,37.71894 -47.84577,50.37075 -9.31086,5.91607 -11.50954,6.76592 -35.15513,13.5885 -23.60631,6.81125 -25.95274,7.27545 -36.60617,7.24186 z m 14.3396,-69.06521 c -0.59659,-15.13445 -1.60542,-13.9066 14.43222,-17.56552 15.03142,-3.42935 20.33968,-6.04643 25.37325,-12.5095 7.34669,-9.43308 7.13828,-30.0146 -0.39238,-38.74991 -1.88667,-2.18847 -5.87194,-4.83194 -8.85617,-5.87438 -2.98423,-1.04246 -5.67047,-2.70418 -5.96942,-3.69273 -0.29898,-0.98853 1.52823,-3.75138 4.06042,-6.13963 8.06352,-7.6052 8.91195,-23.01518 1.7688,-32.12691 -3.83838,-4.89621 -14.07086,-9.6418 -24.14782,-11.19922 -4.76771,-0.73687 -8.85198,-2.04294 -9.07614,-2.9024 -0.22417,-0.85945 -0.46025,-5.92357 -0.52462,-11.25359 -0.0644,-5.33002 -0.28109,-10.32379 -0.48162,-11.09725 -0.36757,-1.41796 -10.24019,-1.04208 -11.07237,0.42155 -0.24631,0.43321 -0.36057,5.33551 -0.25391,10.894 0.10667,5.5585 -0.13453,10.70375 -0.53597,11.43389 -0.41247,0.75016 -3.56892,1.42113 -7.25765,1.54276 -6.13985,0.20245 -6.58892,-0.0106 -7.55771,-3.58553 -0.56649,-2.09042 -1.04977,-7.00396 -1.07396,-10.91897 -0.0242,-3.91501 -0.21699,-7.77244 -0.42846,-8.57205 -0.44777,-1.69306 -9.74002,-1.99832 -10.64063,-0.34955 -0.33464,0.61263 -0.5207,5.68775 -0.41348,11.27805 0.10723,5.59029 -0.21177,10.8795 -0.70886,11.75378 -0.62258,1.09499 -5.34572,1.68608 -15.1792,1.89963 -7.85146,0.1705 -14.48994,0.68736 -14.75217,1.14856 -0.55396,0.97431 -0.16118,11.55667 0.43538,11.72995 0.22062,0.0641 3.28122,0.17839 6.80134,0.25403 3.89553,0.0837 7.67952,1.13257 9.6692,2.68016 l 3.26898,2.54264 0.8888,37.5354 c 0.99893,42.18661 0.89968,42.67922 -8.59389,42.65595 -2.72777,-0.007 -5.61299,0.1643 -6.41159,0.37998 -1.27708,0.3449 -3.73102,11.40121 -3.06663,13.81681 0.13828,0.50273 6.58407,0.75424 14.32399,0.55893 8.6267,-0.2177 14.52321,0.2567 15.23703,1.22589 0.64045,0.86956 1.2758,6.49246 1.41191,12.49534 0.1361,6.00287 0.62944,11.1315 1.09629,11.39693 0.8754,0.49773 10.45799,0.26003 10.73559,-0.2663 0.0857,-0.16242 0.0869,-5.52002 0.003,-11.90579 -0.1689,-12.82315 0.26252,-13.47518 8.94687,-13.52186 6.18543,-0.0332 6.83096,1.26299 7.12185,14.30059 0.20965,9.39685 1.23083,11.50461 5.41201,11.17065 6.80557,-0.54355 6.8149,-0.55942 6.4079,-10.88438 z M 302.235,578.56921 c -2.87432,0.20964 -7.63654,0.39412 -10.5827,0.40994 -6.4366,0.0346 -6.93561,-1.10661 -7.27184,-16.63017 -0.49561,-22.88212 -1.05469,-20.4479 4.87611,-21.23055 8.4992,-1.12158 21.7885,-0.28387 28.30564,1.7843 14.7221,4.67193 18.69127,20.14398 7.42938,28.96019 -3.80571,2.97925 -14.3795,6.0953 -22.75659,6.70629 z m 2.39945,-50.72261 c -9.94217,1.20867 -17.92684,1.32959 -19.40966,0.29397 -1.60952,-1.12412 -1.94769,-5.344 -2.22001,-27.70248 l -0.0611,-5.01404 5.83319,-0.88471 c 8.9852,-1.36278 20.69743,0.18423 26.53856,3.50534 4.5358,2.57893 5.5067,3.81399 6.85668,8.72221 1.75793,6.39145 0.69258,10.8493 -3.50231,14.65507 -3.2923,2.98692 -9.63331,5.88948 -14.03538,6.42464 z"
         id="path4714"
         inkscape:connector-curvature="0" />
      <path
         style="fill:#fad8ae"
         d="m 312.95975,675.95273 c -47.69761,3.80581 -89.02224,-12.21562 -119.04871,-46.15481 -12.46849,-14.09324 -19.19377,-24.97274 -26.1453,-42.29531 -11.43818,-28.5029 -11.94089,-64.71772 -1.31988,-95.08484 4.42298,-12.646 16.76246,-34.09239 25.39574,-44.13857 9.14621,-10.64306 24.30365,-23.24377 36.76721,-30.56539 9.81842,-5.76775 13.02677,-6.99232 32.00318,-12.2151 19.19209,-5.28214 22.25689,-5.80832 34.04392,-5.84489 15.57168,-0.0483 39.50943,4.29923 52.6062,9.55426 26.56177,10.65781 50.02559,29.76811 65.58673,53.41765 9.14673,13.901 12.67238,22.60502 17.97311,44.37145 4.17566,17.14651 4.83128,21.67501 4.5948,31.73684 -1.18454,50.39963 -26.66706,94.13154 -69.77442,119.74357 -6.98935,4.15269 -12.82678,6.39895 -29.1262,11.20783 -11.21171,3.30784 -21.81208,6.12816 -23.55638,6.26731 z m 1.11003,-62.02625 c -0.0506,-3.01647 -0.0773,-8.44428 -0.0594,-12.06182 l 0.0325,-6.57733 16.02216,-4.32047 c 14.44956,-3.89648 16.45238,-4.72859 20.4057,-8.47833 10.7929,-10.23711 12.18797,-33.19203 2.65177,-43.63274 -1.97334,-2.16052 -5.92759,-4.8714 -8.78722,-6.02418 -2.85964,-1.15283 -5.32674,-2.55923 -5.48246,-3.12539 -0.15572,-0.56617 1.65526,-3.01923 4.02439,-5.45125 4.99191,-5.12445 7.24201,-12.64699 6.23848,-20.85643 -1.58576,-12.97225 -10.04756,-20.11993 -27.63869,-23.34636 -5.93686,-1.0889 -9.92995,-2.52028 -10.23203,-3.66783 -0.27249,-1.03511 -0.54809,-6.24294 -0.61246,-11.57297 -0.0644,-5.33002 -0.21387,-10.07937 -0.33223,-10.55411 -0.29911,-1.19965 -10.53652,-1.03148 -12.20932,0.20057 -0.75171,0.55365 -1.2225,5.24335 -1.04622,10.42157 0.39662,11.65017 -0.36382,13.30261 -6.35089,13.80045 -6.97588,0.58006 -7.7142,-0.53389 -7.91528,-11.94241 -0.098,-5.56128 -0.61624,-10.70611 -1.15158,-11.43297 -0.89352,-1.21317 -11.70767,-1.74385 -12.35446,-0.60627 -0.15485,0.27234 -0.24401,5.52573 -0.19813,11.6742 0.0459,6.14847 -0.18278,11.64719 -0.50811,12.21939 -0.48135,0.8466 -12.57527,1.65942 -27.4944,1.84785 -2.72385,0.0344 -3.37205,2.32099 -2.93534,10.35471 0.2171,3.99396 0.29902,4.03952 7.44889,4.14322 4.90405,0.0711 8.16533,0.92966 10.13926,2.66915 2.82039,2.48541 2.93909,3.67724 3.85921,38.74939 0.63872,24.34579 0.42093,37.12347 -0.66563,39.05309 -1.60318,2.84709 -2.9871,3.24254 -12.06226,3.44678 -3.12728,0.0704 -3.46627,0.65722 -4.53987,7.85922 -0.63813,4.28073 -0.61728,8.05489 0.0463,8.38702 0.66361,0.33211 6.69562,0.41063 13.40445,0.17448 6.70884,-0.23615 13.14645,0.0687 14.30581,0.67749 1.79555,0.94282 2.1457,2.77284 2.36282,12.34902 0.14019,6.18319 0.79989,11.5324 1.466,11.88713 1.97082,1.04952 10.52164,0.68986 11.54949,-0.48578 0.52143,-0.59641 0.8613,-3.97747 0.75526,-7.51345 -0.5299,-17.67034 -0.89597,-16.35753 4.77604,-17.12837 8.18705,-1.11264 9.13709,0.0431 9.29891,11.31282 0.18816,13.10516 0.47551,13.83568 5.46713,13.89902 7.68169,0.0975 8.42002,-0.46579 8.32138,-6.34812 z m -17.04204,-35.97654 c -4.23979,0.13249 -8.54656,-0.23868 -9.57061,-0.82479 -1.45748,-0.8342 -1.9337,-4.425 -2.19248,-16.53178 -0.18182,-8.50635 0.0327,-16.12028 0.47677,-16.91984 2.26054,-4.07043 29.46055,-1.96817 37.37768,2.88888 8.46944,5.19589 9.81911,15.66066 2.96019,22.9521 -3.93366,4.18172 -17.32108,8.06891 -29.05155,8.43543 z m -1.34781,-50.03157 c -4.5217,0.20954 -8.88455,0.004 -9.69521,-0.45706 -1.80095,-1.02397 -2.73442,-28.47194 -1.05029,-30.88329 1.53093,-2.19198 16.086,-2.13957 24.40279,0.0879 8.6662,2.32102 12.87802,7.22108 12.55048,14.60131 -0.13135,2.95954 -1.34443,6.78863 -2.69576,8.50908 -3.29624,4.19664 -13.32656,7.67009 -23.51201,8.14208 z"
         id="path4712"
         inkscape:connector-curvature="0" />
      <path
         style="fill:#f9c98f"
         d="m 314.63592,674.97668 c -60.51814,6.92155 -118.38762,-25.42279 -143.27286,-80.0779 -6.21731,-13.65499 -11.90606,-39.53498 -12.09319,-55.01587 -0.35718,-29.54786 8.96714,-58.74575 26.46205,-82.86248 9.15345,-12.61803 26.78211,-28.79686 40.2054,-36.8988 61.98011,-37.40954 143.14715,-19.88873 184.38362,39.80124 52.75941,76.36946 16.07493,182.18322 -72.60306,209.41838 -8.54737,2.62511 -18.93424,5.16108 -23.08196,5.63543 z m -0.0268,-66.21493 c -0.52586,-11.98048 0.44821,-14.62435 5.415,-14.69741 1.90157,-0.028 8.0667,-1.32155 13.7003,-2.87461 19.38477,-5.34334 27.48546,-16.61801 26.19595,-36.45732 -0.65667,-10.10308 -4.15475,-15.72249 -12.87289,-20.67939 -3.71788,-2.11387 -6.88548,-4.30048 -7.03913,-4.85912 -0.15365,-0.55864 0.99871,-2.20187 2.5608,-3.65163 6.57928,-6.10613 8.91878,-15.88655 6.18106,-25.84028 -3.14965,-11.45144 -10.50763,-17.08022 -26.2701,-20.0964 -4.89218,-0.93612 -9.36928,-2.12603 -9.94913,-2.64424 -0.57984,-0.51821 -1.15652,-5.51457 -1.28151,-11.10303 -0.12498,-5.58846 -0.72129,-10.83161 -1.32512,-11.65146 -0.60382,-0.81984 -3.61647,-1.4497 -6.69475,-1.39969 -6.97874,0.11339 -7.32285,0.81076 -6.84115,13.8646 0.35569,9.6387 0.32007,9.74785 -3.52588,10.80566 -2.13688,0.58773 -5.13603,0.59355 -6.6648,0.0129 -2.73424,-1.03844 -2.7815,-1.23016 -2.89649,-11.74898 -0.0643,-5.88132 -0.50231,-11.0515 -0.97336,-11.48928 -1.23592,-1.14865 -11.12105,-0.92614 -12.76874,0.28741 -0.76682,0.56478 -1.22977,5.48322 -1.02878,10.92987 0.20099,5.44666 -0.12842,10.7716 -0.73201,11.8332 -0.88078,1.54909 -3.46088,1.97058 -13.06775,2.13478 -16.71127,0.28563 -17.32015,0.5286 -17.28592,6.89796 0.0409,7.60807 1.10722,8.85636 7.92631,9.2789 8.04156,0.4983 10.72563,1.87791 11.89005,6.1115 1.30888,4.7588 2.74254,70.48225 1.59297,73.02688 -0.69004,1.52745 -2.80557,2.3381 -8.54553,3.27456 l -7.62847,1.24458 -0.93472,6.7377 c -0.51409,3.70574 -0.71525,7.53564 -0.44701,8.51089 0.34218,1.2441 4.1752,1.65569 12.84634,1.37947 16.76531,-0.53405 16.92808,-0.45125 17.40277,8.85309 0.20977,4.11176 0.62731,9.5491 0.92787,12.08299 0.53025,4.47046 0.69534,4.60742 5.5681,4.61928 9.05311,0.022 9.13447,-0.1182 8.65739,-14.92137 -0.16534,-5.13033 0.0897,-9.74786 0.56673,-10.26113 0.47704,-0.51329 3.21088,-0.94589 6.07523,-0.96124 6.08924,-0.0327 6.25556,0.32486 6.4183,13.79976 0.0644,5.33003 0.20719,10.05508 0.31738,10.50014 0.30564,1.23449 7.03405,1.52121 11.24113,0.47901 3.70862,-0.91865 3.74158,-1.03169 3.28956,-11.32859 z m -15.50478,-31.70404 c -5.75245,0.35928 -10.96428,0.36594 -11.58185,0.0148 -1.53044,-0.87016 -2.41992,-31.12725 -0.97584,-33.19488 1.52015,-2.17656 18.89162,-2.23313 28.0381,-0.0913 8.51507,1.99397 12.77944,5.42509 14.49509,11.6628 2.42249,8.80761 -3.85574,16.97761 -15.27534,19.87812 -2.33265,0.59245 -8.94772,1.37119 -14.70016,1.73047 z m -6.20991,-49.47387 c -8.04073,-0.0104 -8.00454,0.1034 -8.34857,-26.25512 -0.0644,-4.93692 -0.008,-5.00114 4.86678,-5.53877 8.56756,-0.9449 20.06134,0.71609 25.23355,3.64654 6.78309,3.84314 8.78056,10.49417 5.27333,17.55875 -2.31108,4.65521 -2.8686,5.02074 -11.80737,7.74104 -5.15996,1.57032 -12.00794,2.85172 -15.21772,2.84756 z"
         id="path4710"
         inkscape:connector-curvature="0" />
      <path
         style="fill:#f8b96c"
         d="m 307.54574,675.12258 c -87.7209,5.56368 -157.48206,-68.30535 -146.48057,-155.10603 2.83069,-22.33387 13.18637,-47.32732 27.21666,-65.68745 8.76951,-11.47583 27.05045,-27.43242 40.40822,-35.27045 10.09806,-5.92531 13.17412,-7.1036 32.25344,-12.3547 19.20532,-5.28578 22.24888,-5.80782 34.04539,-5.83954 86.64598,-0.23304 151.59913,76.15029 137.02604,161.13928 -2.74161,15.98875 -8.24391,30.64445 -17.08853,45.51625 -12.72749,21.40064 -28.47562,37.19221 -49.61555,49.75241 -11.19141,6.64933 -44.77177,17.02614 -57.7651,17.85023 z m 7.3444,-56.015 c 0.24544,-0.83721 0.38909,-6.27307 0.31922,-12.07967 l -0.12703,-10.55748 15.66816,-4.30944 c 13.75895,-3.78432 16.16842,-4.78801 19.77363,-8.23684 8.51725,-8.14782 11.82461,-20.07415 9.27586,-33.44873 -1.72007,-9.02601 -6.18055,-14.67851 -14.5347,-18.41894 l -5.33792,-2.38996 4.26643,-4.90406 c 7.19856,-8.27441 8.35492,-22.44682 2.62656,-32.19134 -3.72504,-6.33669 -13.21905,-11.57019 -24.86878,-13.70873 -5.06888,-0.9305 -9.37623,-2.27383 -9.57189,-2.98519 -0.19566,-0.71136 -0.44265,-6.00978 -0.54887,-11.77427 -0.1794,-9.73498 -0.36488,-10.54611 -2.60614,-11.39732 -2.92677,-1.11157 -12.20518,-0.30463 -13.04087,1.13414 -0.33031,0.56869 -0.50731,5.77994 -0.39332,11.58056 l 0.20725,10.54659 -4.73828,0.98901 c -2.60604,0.54395 -5.35528,0.63818 -6.1094,0.2094 -0.8037,-0.45696 -1.35025,-4.89504 -1.31985,-10.72415 0.0282,-5.46951 -0.36476,-10.78713 -0.87325,-11.81693 -1.04789,-2.12219 -13.34583,-2.42901 -14.52092,-0.36229 -0.39721,0.6986 -0.63447,5.84407 -0.52724,11.43436 0.10721,5.5903 -0.13837,10.77009 -0.54574,11.51066 -0.42529,0.77312 -6.83189,1.5002 -15.04507,1.70747 -7.8674,0.19854 -14.53933,0.77424 -14.82652,1.27934 -0.85304,1.50032 -0.40115,14.17274 0.53647,15.04414 0.47522,0.44167 4.09777,0.84993 8.05011,0.90725 11.38182,0.16508 11.30392,-0.072 12.19735,37.12621 0.42194,17.56778 0.78889,34.08795 0.81544,36.71151 0.0578,5.70796 -2.22169,7.51354 -9.53508,7.55285 -3.88074,0.0209 -5.67695,0.51046 -6.57147,1.79125 -1.47834,2.11669 -3.29772,16.30171 -2.1729,16.94124 0.43532,0.24752 6.95965,0.37298 14.49852,0.27882 7.53886,-0.0942 14.14819,0.0796 14.68739,0.3862 0.53921,0.30658 1.09209,5.48484 1.22864,11.50726 0.13654,6.02241 0.39706,11.49081 0.57891,12.152 0.52388,1.90471 13.69991,1.78679 14.80207,-0.13247 0.50827,-0.88507 0.82364,-6.37062 0.70083,-12.19012 l -0.22331,-10.58091 4.55681,-1.09736 c 2.50625,-0.60351 5.15675,-0.74918 5.89003,-0.3236 0.75134,0.43604 1.47388,5.68392 1.6555,12.02399 0.35739,12.47637 0.86214,13.29603 8.02774,13.0362 6.16528,-0.22356 7.17588,-0.51594 7.67562,-2.22068 z m -18.17023,-42.36394 c -4.22677,0.13189 -8.18196,-0.0443 -8.78931,-0.39149 -0.60734,-0.34721 -1.26612,-7.73328 -1.46395,-16.41349 -0.40713,-17.86418 -1.0117,-17.01521 12.25755,-17.21238 9.59642,-0.14259 19.2083,1.72685 23.97688,4.66335 7.58166,4.66879 8.80231,15.75052 2.38746,21.67474 -3.84282,3.54891 -17.89365,7.35241 -28.36865,7.67922 z m -0.54215,-50.07181 c -4.06396,0.19263 -8.10164,-0.0549 -8.9726,-0.55014 -1.55879,-0.88629 -2.92461,-26.28945 -1.54808,-28.79278 0.77582,-1.41087 14.50838,-1.59358 20.82284,-0.27705 5.74551,1.19792 10.95141,4.26939 13.15511,7.7615 2.26275,3.58571 1.54997,10.97047 -1.37977,14.29506 -3.36639,3.82009 -13.04312,7.13519 -22.0775,7.56341 z"
         id="path4708"
         inkscape:connector-curvature="0" />
      <path
         style="fill:#f7ab4f"
         d="m 310.50623,674.10253 c -58.4336,5.51008 -113.73141,-26.3706 -137.93155,-79.52127 -6.40111,-14.05875 -12.25766,-40.87656 -12.20581,-55.89181 0.26372,-76.3663 62.29601,-138.10039 137.73236,-137.07025 23.29797,0.31815 43.50323,5.59022 63.68022,16.61581 21.1184,11.54001 35.58881,24.64072 48.40784,43.82579 10.21565,15.28885 15.34057,27.36156 19.66432,46.32301 12.41853,54.46036 -8.74938,109.49546 -54.41411,141.47294 -18.94028,13.26324 -42.75106,22.15407 -64.93327,24.24578 z m 5.35476,-65.15305 c -0.13984,-5.81482 0.1541,-11.20883 0.65318,-11.9867 0.49908,-0.77787 4.53699,-2.00497 8.97313,-2.72689 11.56131,-1.88143 21.76652,-6.36212 27.20428,-11.94425 7.54588,-7.74621 10.476,-21.36119 7.27824,-33.81879 -2.00328,-7.80423 -5.93093,-12.51734 -13.95077,-16.74061 -3.75113,-1.97536 -4.99845,-3.19722 -3.99441,-3.91285 3.17989,-2.26645 8.01541,-11.22617 8.83509,-16.37051 1.02803,-6.45199 -1.50147,-16.80629 -5.27972,-21.61205 -3.58223,-4.55642 -14.35247,-9.96765 -22.78651,-11.44848 -10.52549,-1.84805 -10.11704,-1.35936 -10.31052,-12.33586 -0.23825,-13.5166 -0.89088,-14.59883 -8.73339,-14.48214 -3.55062,0.0528 -7.01657,0.49195 -7.70212,0.97583 -0.68554,0.48387 -1.08325,5.30215 -0.88379,10.70728 0.45551,12.34385 -0.0599,13.6133 -5.52488,13.60741 -4.95426,-0.005 -5.26625,-0.77259 -5.44603,-13.39303 -0.0723,-5.07523 -0.63049,-9.69149 -1.24042,-10.25834 -1.4237,-1.32318 -12.81981,-1.09787 -14.70515,0.29072 -0.78936,0.58138 -1.22976,5.73744 -0.97867,11.45792 0.25109,5.72048 -3.4e-4,11.03623 -0.55874,11.81278 -0.6022,0.83747 -5.74792,1.46405 -12.64778,1.54005 -6.39789,0.0705 -12.8694,0.45606 -14.38113,0.85685 -3.19646,0.84746 -4.05778,5.45591 -2.38848,12.77943 1.06369,4.66661 1.1548,4.72453 7.58604,4.82269 7.6895,0.11736 10.44539,1.37803 11.43249,5.22976 0.8546,3.33465 2.6642,69.53712 1.96587,71.91922 -0.3296,1.12431 -2.92751,2.02654 -8.41158,2.92125 l -7.9347,1.29453 -1.22952,7.57419 c -0.67624,4.16582 -0.78766,8.47358 -0.2476,9.57283 0.73279,1.49154 4.30539,1.95025 14.08096,1.80796 7.20447,-0.10487 13.71203,-0.011 14.46126,0.20869 0.83624,0.24514 1.48487,4.55302 1.67988,11.15697 0.17472,5.9167 0.86701,11.5035 1.53841,12.41509 1.29279,1.75528 13.48966,1.93497 15.0815,0.22218 0.51585,-0.55505 0.80263,-5.20674 0.63729,-10.33707 -0.41469,-12.86712 -0.0423,-14.13859 4.18712,-14.29579 1.91275,-0.0711 4.08032,0.17715 4.81681,0.55166 0.77024,0.39167 1.47547,5.42573 1.66016,11.85029 0.17659,6.14314 0.73863,11.55741 1.24898,12.03173 1.38852,1.29047 8.79355,1.19042 12.77077,-0.17257 3.35626,-1.15017 3.48833,-1.62936 3.24445,-11.77138 z m -16.7694,-32.90989 c -4.91165,0.28927 -9.53679,0.19046 -10.27809,-0.21959 -1.36235,-0.75356 -2.75902,-28.72609 -1.55411,-31.12571 0.79396,-1.58121 18.65031,-1.66931 26.12137,-0.12887 8.56973,1.76696 12.75517,4.89386 14.35985,10.72812 3.41254,12.40723 -6.28394,19.42889 -28.64902,20.74605 z m -6.18449,-49.588 c -6.5615,0.1427 -6.73587,-0.26998 -7.01054,-16.59236 l -0.19544,-11.61402 4.27514,-0.91606 c 6.68268,-1.43193 19.57855,0.2284 24.30269,3.12896 5.64463,3.46572 7.66472,10.13158 4.86409,16.05039 -1.81734,3.84075 -2.69974,4.38379 -11.36462,6.99402 -5.16687,1.55648 -11.85896,2.88356 -14.87132,2.94907 z"
         id="path4706"
         inkscape:connector-curvature="0" />
      <path
         style="fill:#f69928"
         d="m 305.8317,673.60421 c -13.51299,0.77096 -21.37769,0.3295 -33.57707,-1.88473 -64.3181,-11.67404 -111.99857,-69.61706 -111.08337,-134.99251 0.96347,-68.82424 53.21518,-126.49735 120.93101,-133.47827 62.57971,-6.45142 119.59212,28.53063 141.79329,87.00247 24.90815,65.60127 -4.27018,139.00945 -67.59522,170.05923 -12.55367,6.15536 -36.66401,12.50621 -50.46864,13.29381 z m 10.71698,-54.52565 c 0.28082,-1.32504 0.27842,-6.81001 -0.005,-12.18882 l -0.51592,-9.77965 11.9886,-2.59744 c 21.36397,-4.62866 29.85342,-11.75629 32.88728,-27.61176 3.1175,-16.29253 -0.61569,-26.99022 -11.83796,-33.92256 -5.43454,-3.35707 -6.89101,-4.79656 -5.66749,-5.60142 0.90567,-0.59579 3.23834,-3.98204 5.1837,-7.525 3.64646,-6.64107 4.39171,-14.3253 2.15726,-22.24327 -2.74769,-9.73664 -15.57156,-18.51717 -29.61045,-20.27433 -4.01659,-0.50274 -7.43705,-1.40185 -7.60103,-1.99802 -0.16397,-0.59618 -0.38424,-5.75698 -0.4895,-11.46843 -0.10525,-5.71146 -0.65714,-11.01688 -1.22643,-11.78983 -1.16606,-1.58322 -9.2254,-1.88877 -14.17804,-0.53752 -3.48645,0.95128 -3.42303,0.59514 -2.99425,16.80787 0.18345,6.93601 -0.81003,8.25963 -5.84007,7.78077 l -3.44456,-0.32793 -0.13492,-9.43593 c -0.2075,-14.51245 -0.36899,-14.78617 -8.79522,-14.90838 -3.97561,-0.0577 -7.86629,0.36498 -8.64594,0.9392 -1.24203,0.91478 -1.97712,19.10455 -0.92643,22.92463 0.53606,1.94897 -0.20911,2.06455 -15.57892,2.41637 -10.0762,0.23065 -13.80183,0.75972 -14.73241,2.09212 -1.43388,2.05304 -1.0725,15.37843 0.45557,16.7986 0.56211,0.52241 4.15606,0.9953 7.98654,1.05086 11.69107,0.16956 11.13347,-1.6008 12.18515,38.68732 0.51095,19.57392 0.43935,36.52399 -0.15912,37.6668 -0.89531,1.70965 -2.23669,2.11572 -7.56968,2.29156 -3.56485,0.11755 -6.97706,0.74687 -7.58268,1.39853 -1.27314,1.36987 -3.54689,15.35789 -2.88663,17.75845 0.62986,2.29002 3.68499,2.71797 16.85459,2.36089 6.36977,-0.17271 12.12527,-0.0279 12.78999,0.3218 0.66473,0.34971 1.32329,5.6948 1.46348,11.87799 0.2966,13.08155 0.69009,13.56196 10.84716,13.24339 7.86784,-0.24677 8.14589,-0.76739 7.64592,-14.31614 -0.19945,-5.40513 0.23194,-10.26544 0.95865,-10.80067 0.72671,-0.53524 2.87,-0.82568 4.76284,-0.64553 l 3.44154,0.32764 0.17458,9.90452 c 0.23138,13.12669 1.04741,14.74276 7.52064,14.89383 7.45817,0.17406 10.53531,-0.81401 11.11951,-3.57051 z m -18.76343,-43.82134 c -4.13901,0.0955 -8.03417,0.0245 -8.6559,-0.15775 -1.13448,-0.33257 -2.20927,-28.04871 -1.15929,-29.8954 0.84662,-1.48902 16.89451,-1.40724 25.14855,0.12818 12.54515,2.33364 18.11217,11.03137 12.91324,20.17521 -1.95545,3.43922 -3.34763,4.25769 -11.4733,6.74514 -5.0863,1.55703 -12.63428,2.90911 -16.7733,3.00462 z m 5.3192,-50.61661 c -0.73493,-0.0796 -3.86753,0.19683 -6.96133,0.61436 -9.19131,1.24043 -9.28862,1.1273 -9.60001,-11.1611 -0.43731,-17.25755 -0.69273,-16.658 7.13169,-16.74007 3.64545,-0.0382 9.5119,0.49175 13.03655,1.17774 15.68335,3.05239 17.55836,18.97996 2.8687,24.36859 -2.82665,1.03689 -5.74066,1.82011 -6.47559,1.74049 z"
         id="path4704"
         inkscape:connector-curvature="0" />
      <path
         style="fill:#f59118"
         d="m 318.21299,671.4849 c -46.74938,6.58423 -90.77834,-9.24263 -121.62468,-43.71976 -38.49374,-43.02468 -45.37839,-105.27571 -17.1695,-155.24656 18.37239,-32.54589 45.85041,-54.07086 81.79887,-64.07732 33.25216,-9.25593 67.61145,-5.68779 97.39634,10.11439 15.81885,8.39258 26.00978,16.09602 36.87868,27.87699 33.89449,36.73876 44.8252,86.28996 29.47807,133.63043 -11.14467,34.37736 -35.92137,63.00909 -68.3372,78.96986 -10.93556,5.3844 -28.37871,11.03766 -38.42058,12.45197 z m -0.58468,-55.94434 c 0.0198,-3.74885 -0.005,-9.15245 -0.0544,-12.00798 l -0.0904,-5.1919 14.79686,-4.04737 c 13.14114,-3.59456 15.35089,-4.54158 19.74816,-8.46405 5.86553,-5.23218 8.84768,-11.174 10.41946,-20.76037 2.43107,-14.82721 -2.42275,-27.43653 -12.84176,-33.36049 l -5.79212,-3.29325 3.40262,-3.66115 c 2.18491,-2.35092 3.93308,-6.45077 4.88487,-11.45614 3.76068,-19.77704 -7.92551,-33.70048 -31.19899,-37.17186 -3.36182,-0.50146 -6.26704,-1.47393 -6.45603,-2.16107 -0.18899,-0.68714 -0.42996,-5.93375 -0.53546,-11.65914 -0.22892,-12.42271 -0.78033,-13.00072 -11.75612,-12.32318 -9.05856,0.55919 -9.35229,1.05939 -8.83613,15.04708 0.35507,9.62203 0.28692,9.8442 -3.04255,9.91913 -1.87316,0.0422 -3.52779,0.007 -3.67697,-0.0776 -0.14921,-0.0848 -0.42056,-5.21109 -0.60306,-11.39172 -0.23405,-7.92572 -0.81259,-11.51085 -1.9631,-12.16499 -0.89718,-0.51012 -4.99553,-0.88383 -9.10745,-0.83047 -9.36152,0.12147 -9.76712,0.72918 -9.49993,14.23352 0.10995,5.5576 -0.0117,10.47684 -0.27027,10.93166 -0.2586,0.45481 -6.90714,0.98937 -14.77454,1.18791 -8.20811,0.20714 -14.61849,0.9344 -15.04142,1.70647 -0.40538,0.74002 -0.67396,5.05429 -0.59684,9.58727 0.16449,9.66864 0.63193,10.14252 10.18988,10.33038 3.67125,0.0722 7.5188,0.9011 8.5501,1.8421 2.42827,2.21563 4.43641,72.18378 2.12068,73.88936 -0.82051,0.60431 -4.049,1.15437 -7.17444,1.22228 -3.12543,0.0679 -6.37871,0.63621 -7.22952,1.26284 -1.9489,1.4354 -4.05413,19.02547 -2.52543,21.10105 0.68026,0.92362 6.86234,1.39817 15.40568,1.18257 7.84821,-0.19805 14.31521,-0.19383 14.3711,0.009 0.0559,0.20321 0.2786,5.39093 0.4949,11.52826 0.21629,6.13732 0.83744,11.76185 1.38031,12.49893 1.11002,1.50712 14.97641,1.47288 17.91867,-0.0443 1.27126,-0.6555 1.7782,-3.19213 1.51996,-7.60558 -0.78723,-13.45409 -0.51456,-16.3108 1.61071,-16.87494 4.73251,-1.25614 5.47813,0.089 5.62239,10.14306 0.20446,14.24892 0.56103,15.00245 7.04765,14.89335 3.01643,-0.0507 6.08155,-0.0422 6.81138,0.0188 5.32051,0.44527 6.73584,-1.22429 6.77157,-7.98796 z m -20.67539,-41.242 c -3.73333,0.11516 -7.03516,0.052 -7.3374,-0.14036 -0.30224,-0.19236 -0.73957,-6.61908 -0.97186,-14.28159 l -0.42232,-13.93185 4.40453,-0.48333 c 24.2373,-2.65963 39.79534,6.48249 32.59205,19.15156 -2.40499,4.22987 -3.10615,4.63743 -12.01557,6.98409 -5.20385,1.37061 -12.51608,2.58632 -16.24943,2.70148 z m -1.94355,-49.63055 c -3.66405,0.28852 -6.80511,0.004 -6.98012,-0.63235 -0.58789,-2.13744 -0.94655,-23.56705 -0.41283,-24.66575 0.61993,-1.27615 14.16534,-1.09324 20.58385,0.27796 8.5306,1.8224 13.07966,10.6943 8.87261,17.30398 -2.16389,3.39968 -12.31032,6.94813 -22.06351,7.71616 z"
         id="path4702"
         inkscape:connector-curvature="0" />
    </g>
  </g>
</svg>
