<?xml version="1.0" encoding="UTF-8" standalone="no"?>
<!-- Created with Inkscape (http://www.inkscape.org/) -->

<svg
   xmlns:dc="http://purl.org/dc/elements/1.1/"
   xmlns:cc="http://creativecommons.org/ns#"
   xmlns:rdf="http://www.w3.org/1999/02/22-rdf-syntax-ns#"
   xmlns:svg="http://www.w3.org/2000/svg"
   xmlns="http://www.w3.org/2000/svg"
   xmlns:sodipodi="http://sodipodi.sourceforge.net/DTD/sodipodi-0.dtd"
   xmlns:inkscape="http://www.inkscape.org/namespaces/inkscape"
   width="51.196877mm"
   height="51.271324mm"
   viewBox="0 0 51.196877 51.271324"
   version="1.1"
   id="svg3715"
   inkscape:version="0.92.0 r15299"
   sodipodi:docname="fb.svg">
  <defs
     id="defs3709" />
  <sodipodi:namedview
     id="base"
     pagecolor="#ffffff"
     bordercolor="#666666"
     borderopacity="1.0"
     inkscape:pageopacity="0.0"
     inkscape:pageshadow="2"
     inkscape:zoom="0.35"
     inkscape:cx="165.57138"
     inkscape:cy="-20.20514"
     inkscape:document-units="mm"
     inkscape:current-layer="layer1"
     showgrid="false"
     inkscape:snap-others="true"
     inkscape:snap-nodes="false"
     fit-margin-top="0"
     fit-margin-left="0"
     fit-margin-right="0"
     fit-margin-bottom="0"
     inkscape:window-width="1920"
     inkscape:window-height="1018"
     inkscape:window-x="-8"
     inkscape:window-y="-8"
     inkscape:window-maximized="1" />
  <metadata
     id="metadata3712">
    <rdf:RDF>
      <cc:Work
         rdf:about="">
        <dc:format>image/svg+xml</dc:format>
        <dc:type
           rdf:resource="http://purl.org/dc/dcmitype/StillImage" />
        <dc:title></dc:title>
      </cc:Work>
    </rdf:RDF>
  </metadata>
  <g
     inkscape:label="Layer 1"
     inkscape:groupmode="layer"
     id="layer1"
     transform="translate(-62.025907,-92.216066)">
    <g
       id="g3791">
      <rect
         y="99.63102"
         x="79.798195"
         height="43.089283"
         width="24.946428"
         id="rect3780"
         style="fill:#ffffff;fill-opacity:1;stroke:#002b11;stroke-width:0.26458332;stroke-miterlimit:4;stroke-dasharray:none;stroke-opacity:0" />
      <g
         transform="translate(-4.5357162,9.8273816)"
         id="g3728">
        <path
           inkscape:connector-curvature="0"
           id="path3742"
           d="m 70.660728,133.05607 c -1.490323,-0.69591 -2.871737,-2.12683 -3.598944,-3.7279 -0.461148,-1.01531 -0.488876,-2.2059 -0.494361,-21.227 l -0.0058,-20.15136 0.859896,-1.653144 c 1.027456,-1.975279 2.667811,-3.236169 4.780746,-3.674813 0.965894,-0.200519 7.410611,-0.267982 20.701256,-0.2167 l 19.298729,0.07446 1.32291,0.609498 c 1.67969,0.773867 2.64442,1.691837 3.53041,3.359252 l 0.70293,1.322917 v 20.24063 c 0,19.98099 -0.007,20.2559 -0.55347,21.43125 -0.78587,1.69059 -1.71121,2.69014 -3.18935,3.4451 -1.24675,0.63678 -1.4712,0.65825 -7.68412,0.73513 -6.395877,0.0791 -6.400055,0.0788 -6.717132,-0.51364 -0.433284,-0.8096 -0.08049,-17.72564 0.375727,-18.01595 0.168215,-0.10704 1.707385,-0.19645 3.420365,-0.19867 3.6911,-0.005 3.4494,0.24038 3.90457,-3.96073 0.38575,-3.56031 0.51667,-3.45166 -4.15925,-3.45166 -3.168807,0 -3.523515,-0.0464 -3.543412,-0.46302 -0.01217,-0.25466 -0.0042,-1.83224 0.01775,-3.50573 0.05847,-4.463589 0.511882,-4.957492 4.812872,-5.242752 l 2.73211,-0.181208 v -3.042708 -3.042709 l -3.56395,-0.07423 c -2.96795,-0.06182 -3.858861,0.01534 -5.327394,0.461396 -2.337795,0.710083 -4.104269,2.275634 -5.145701,4.560417 -0.711375,1.560668 -0.768911,1.94547 -0.902023,6.032634 l -0.142182,4.36562 -2.567683,0.13229 c -1.412227,0.0728 -2.695975,0.26114 -2.852772,0.41861 -0.181589,0.18236 -0.257987,1.47911 -0.210442,3.57187 l 0.07465,3.28556 2.554994,0.0754 c 1.727796,0.051 2.649805,0.18967 2.847832,0.42828 0.20447,0.24637 0.271804,3.05797 0.223131,9.31728 l -0.06971,8.96443 -10.054166,0.0653 c -10.049973,0.0652 -10.05472,0.065 -11.37901,-0.55338 z"
           style="fill:#abb4cb;stroke-width:0.26458332" />
        <path
           inkscape:connector-curvature="0"
           id="path3740"
           d="m 71.139665,132.97842 c -1.335912,-0.47522 -2.951557,-1.98159 -3.662017,-3.41434 -0.502353,-1.01307 -0.51916,-1.7108 -0.51916,-21.55217 V 87.506701 l 0.579725,-1.083384 c 0.676557,-1.264344 2.074404,-2.561998 3.46502,-3.21666 0.908004,-0.427462 2.493941,-0.462456 20.95838,-0.462456 22.728167,0 21.438047,-0.120724 23.618237,2.21008 2.00935,2.148155 1.91405,0.987016 1.91405,23.322209 0,18.46444 -0.035,20.05038 -0.46245,20.95838 -0.7179,1.52494 -2.05255,2.87884 -3.50437,3.55492 -1.2675,0.59025 -1.59108,0.61706 -7.4764,0.61953 l -6.151567,0.003 v -8.96498 -8.96497 l 0.595317,-0.15954 c 0.32742,-0.0877 1.87778,-0.16116 3.44525,-0.16315 3.35384,-0.004 3.17077,0.17774 3.61459,-3.5934 0.52752,-4.48251 0.65471,-4.34771 -4.10218,-4.34771 h -3.552977 v -3.18814 c 0,-3.34192 0.285907,-4.465048 1.246987,-4.898451 0.26004,-0.117269 1.69885,-0.282647 3.19735,-0.367506 1.99116,-0.112758 2.79129,-0.25985 2.97251,-0.546452 0.13638,-0.215689 0.24979,-1.657504 0.25202,-3.204036 0.003,-2.147491 -0.0873,-2.887698 -0.38263,-3.132792 -0.27705,-0.229925 -1.53559,-0.295376 -4.43864,-0.230834 -3.966531,0.08819 -4.089295,0.108488 -5.824099,0.963154 -2.040168,1.005105 -3.384291,2.464472 -4.238913,4.602351 -0.458753,1.147601 -0.587902,2.176219 -0.707763,5.637076 l -0.146614,4.23334 -2.590152,0.13229 c -1.906233,0.0974 -2.656178,0.23708 -2.840217,0.52917 -0.137539,0.21828 -0.251894,1.84081 -0.254122,3.60562 -0.0032,2.53665 0.07929,3.27791 0.393824,3.53896 0.229611,0.19055 1.363621,0.36478 2.681447,0.41197 1.255966,0.045 2.388264,0.18645 2.516222,0.31441 0.127955,0.12795 0.201226,4.1541 0.162822,8.94698 l -0.06982,8.71435 -9.789583,0.0469 c -8.097032,0.0388 -9.98158,-0.0214 -10.900073,-0.34812 z"
           style="fill:#8f9ab6;stroke-width:0.26458332" />
        <path
           inkscape:connector-curvature="0"
           id="path3738"
           d="m 71.805801,133.04452 c -2.727089,-0.73806 -4.378794,-2.80835 -4.758429,-5.96435 -0.132494,-1.10145 -0.206695,-10.33701 -0.164891,-20.52347 0.07047,-17.172544 0.11069,-18.597878 0.552437,-19.579166 0.599228,-1.331113 1.85879,-2.65658 3.227736,-3.396623 1.054573,-0.570094 1.129235,-0.572385 21.01265,-0.644782 22.555556,-0.08213 21.634486,-0.15663 23.708896,1.917776 2.07441,2.074405 1.9999,1.153344 1.91778,23.708895 -0.0726,19.92312 -0.0736,19.956 -0.64881,21.0307 -0.74056,1.38353 -2.38106,2.86157 -3.68874,3.32346 -0.75308,0.26599 -2.61362,0.36266 -6.9799,0.36266 h -5.95313 v -8.86354 -8.86355 l 3.35253,-0.13229 c 1.84389,-0.0728 3.43188,-0.21215 3.52887,-0.30977 0.32498,-0.32707 0.6482,-2.18259 0.82244,-4.72143 0.13946,-2.03212 0.0987,-2.5791 -0.2111,-2.83625 -0.24619,-0.20432 -1.65879,-0.3452 -3.93831,-0.39276 l -3.55443,-0.0742 -0.07497,-2.83166 c -0.124714,-4.710558 0.5683,-5.502718 4.81397,-5.502718 2.9255,0 3.06621,-0.172688 3.06621,-3.763039 0,-3.578533 -0.0749,-3.645294 -4.08802,-3.645294 -4.96087,0 -7.242655,0.748436 -9.438366,3.09583 -1.895115,2.02603 -2.378146,3.626941 -2.578473,8.545841 l -0.167018,4.10104 -2.447806,0.0761 c -3.241821,0.10076 -3.320794,0.2087 -3.197635,4.37081 0.06075,2.05304 0.204986,3.15345 0.452315,3.45085 0.290259,0.34901 0.861735,0.43663 2.847793,0.43663 h 2.484662 l -0.06967,8.92969 -0.06966,8.92969 -9.260417,0.05 c -6.781717,0.0366 -9.591815,-0.0397 -10.49852,-0.28509 z"
           style="fill:#7984a8;stroke-width:0.26458332" />
        <path
           inkscape:connector-curvature="0"
           id="path3736"
           d="m 71.324113,132.80142 c -1.298634,-0.40932 -3.513365,-2.70267 -3.91157,-4.05042 -0.240033,-0.8124 -0.321764,-6.10706 -0.321764,-20.84443 0,-21.400766 -0.05333,-20.56226 1.431579,-22.509074 0.341801,-0.448124 1.260851,-1.168908 2.042335,-1.601741 l 1.420878,-0.786971 h 19.976042 c 22.732837,0 21.531597,-0.111194 23.548197,2.179777 1.92712,2.189334 1.87743,1.537894 1.79385,23.514569 l -0.0743,19.5494 -0.70141,1.32292 c -0.8575,1.61731 -1.58409,2.31734 -3.13505,3.02048 -1.08513,0.49195 -1.72395,0.54029 -7.20989,0.54559 l -6.01927,0.006 -0.0442,-1.65365 c -0.0789,-2.95298 0.0979,-15.67082 0.22066,-15.875 0.0656,-0.10914 1.53832,-0.19844 3.27262,-0.19844 3.85651,0 3.75137,0.1076 4.22316,-4.32204 0.43959,-4.12735 0.59652,-3.97034 -4.14247,-4.14462 l -3.59721,-0.1323 0.0481,-3.0427 c 0.0693,-4.384878 0.36891,-4.717372 4.40475,-4.888179 1.39926,-0.05922 2.70241,-0.247287 2.91058,-0.42005 0.2855,-0.23695 0.37692,-1.038344 0.37692,-3.304233 0,-4.065262 0.23004,-3.891705 -5.00925,-3.779317 -4.056298,0.08701 -4.165315,0.104724 -5.89779,0.958268 -2.121528,1.04522 -3.65659,2.684313 -4.476621,4.780006 -0.490238,1.252855 -0.602951,2.167038 -0.698005,5.661315 l -0.113361,4.16719 h -2.294654 c -3.449027,0 -3.470733,0.0263 -3.470733,4.19776 0,2.28779 0.106474,3.51589 0.330729,3.8147 0.260194,0.3467 0.866802,0.45623 2.844271,0.51359 l 2.513542,0.0729 0.06971,8.7974 0.06971,8.7974 -9.727004,-0.027 c -6.279937,-0.0174 -10.055175,-0.13044 -10.653045,-0.31889 z"
           style="fill:#68759b;stroke-width:0.26458332" />
        <path
           inkscape:connector-curvature="0"
           id="path3734"
           d="m 71.821827,132.7823 c -1.637615,-0.44128 -3.231361,-1.75334 -3.98262,-3.27873 l -0.616136,-1.25104 -0.07278,-19.55479 c -0.0806,-21.65621 -0.09701,-21.416514 1.599252,-23.348453 0.468007,-0.53303 1.4471,-1.246773 2.175764,-1.586094 l 1.324842,-0.616948 19.730472,-0.0026 c 21.968279,-0.0029 21.346499,-0.05069 23.179459,1.782268 0.50862,0.508622 1.1525,1.456067 1.43086,2.105434 0.48352,1.128013 0.50597,2.067616 0.5035,21.068623 l -0.003,19.88796 -0.61695,1.32485 c -0.76643,1.64584 -2.10931,2.85092 -3.80424,3.41388 -1.06851,0.3549 -2.28441,0.41893 -6.83717,0.36001 l -5.53745,-0.0717 -0.0698,-8.6651 -0.0698,-8.6651 h 3.17861 c 3.987,0 4.03679,-0.0374 4.46184,-3.35165 0.41433,-3.2308 0.38659,-4.46575 -0.1115,-4.96383 -0.33669,-0.33669 -1.09154,-0.41577 -3.96875,-0.41577 h -3.55297 v -2.92356 c 0,-4.469402 0.50165,-5.013941 4.61912,-5.013941 3.14939,0 3.18608,-0.04421 3.18608,-3.839152 0,-2.973137 -0.0244,-3.107101 -0.66145,-3.625356 -0.61456,-0.499981 -0.92413,-0.528687 -4.36563,-0.40482 -4.051228,0.145814 -5.749355,0.588828 -7.711228,2.011741 -2.542905,1.844323 -3.537111,4.478655 -3.733466,9.892478 l -0.141544,3.90261 h -2.292245 c -2.842215,0 -3.234121,0.23583 -3.336848,2.00802 -0.104256,1.79859 0.180255,5.8151 0.442037,6.24026 0.1455,0.23631 1.060625,0.39382 2.806065,0.48297 l 2.590152,0.13229 0.04439,0.79375 c 0.02442,0.43656 -0.02405,4.33586 -0.107685,8.6651 l -0.152083,7.87136 -9.152728,-0.0179 c -6.418669,-0.0125 -9.517785,-0.11623 -10.374809,-0.34717 z"
           style="fill:#576693;stroke-width:0.26458332" />
        <path
           inkscape:connector-curvature="0"
           id="path3732"
           d="m 71.522013,132.50525 c -1.583051,-0.56494 -2.849416,-1.69945 -3.531079,-3.16342 l -0.630402,-1.35388 -0.0026,-19.77006 -0.0026,-19.770059 0.61784,-1.397047 c 0.339812,-0.768376 1.052509,-1.778691 1.583771,-2.245145 1.908477,-1.675666 1.759849,-1.664563 22.284256,-1.664563 11.346551,0 19.123321,0.103639 19.994171,0.266457 1.88875,0.35313 3.30568,1.39676 4.30813,3.173126 l 0.82121,1.455208 0.0745,19.166183 c 0.0516,13.26027 -0.0157,19.60088 -0.21834,20.57689 -0.37453,1.8041 -1.61076,3.43811 -3.30618,4.37002 l -1.31249,0.72142 -5.88698,0.006 -5.88698,0.006 v -8.59896 -8.59895 h 3.2749 c 2.59028,0 3.34384,-0.0831 3.60473,-0.39744 0.3885,-0.46811 1.17133,-6.52283 0.95486,-7.38529 -0.23854,-0.95042 -1.25022,-1.21311 -4.67194,-1.21311 h -3.16255 v -3.05473 c 0,-2.89052 0.0349,-3.08965 0.64943,-3.704168 0.45105,-0.451048 0.95619,-0.654791 1.65365,-0.666975 3.46869,-0.06059 4.55866,-0.167785 4.94211,-0.486024 0.62036,-0.514852 0.63045,-6.664242 0.012,-7.282743 -0.34146,-0.341467 -1.13351,-0.415751 -4.43177,-0.415641 -3.38079,1.12e-4 -4.237114,0.08418 -5.413975,0.531476 -2.941632,1.118054 -4.539647,2.620607 -5.646499,5.309192 -0.502148,1.219732 -0.607785,2.060961 -0.703522,5.602423 l -0.112655,4.16719 h -2.230543 c -1.607711,0 -2.412645,0.11932 -2.882693,0.42731 -0.641059,0.42003 -0.652161,0.48952 -0.652161,4.08214 0,4.58612 -0.07394,4.48639 3.326191,4.48639 h 2.494642 v 8.59895 8.59896 l -9.458854,-0.0116 c -7.20724,-0.009 -9.695166,-0.0959 -10.451579,-0.36588 z"
           style="fill:#455792;stroke-width:0.26458332" />
        <path
           inkscape:connector-curvature="0"
           id="path3730"
           d="m 71.489423,132.49404 c -0.563923,-0.20101 -1.153283,-0.49344 -1.309688,-0.64984 -0.450069,-0.45007 0.144033,-0.3519 1.446213,0.23898 1.07365,0.48718 1.757972,0.52376 9.900199,0.52917 6.823575,0.005 8.851585,-0.0708 9.223269,-0.34257 0.443701,-0.32445 0.4698,-0.86907 0.379796,-7.92578 -0.07174,-5.62494 -0.182377,-7.66312 -0.429363,-7.9101 -0.315611,-0.31562 -1.184878,-0.42617 -3.669027,-0.46666 -0.967103,-0.0158 -1.141759,-0.1178 -1.502262,-0.87773 -0.538348,-1.13481 -0.727615,-6.37077 -0.247676,-6.85189 0.264625,-0.26528 0.330729,0.36274 0.330729,3.14206 0,4.38003 -0.05786,4.30515 3.326191,4.30515 h 2.494642 v 8.59895 8.59896 l -9.458854,-0.0116 c -7.351691,-0.009 -9.687265,-0.093 -10.484169,-0.37709 z m 28.938857,-8.21026 v -8.59895 h 3.2749 c 3.76299,0 3.81515,-0.0275 4.12872,-2.17788 l 0.20328,-1.394 0.033,1.50246 c 0.0388,1.76449 -0.28276,2.20673 -1.78943,2.46128 -0.57155,0.0966 -1.25199,0.33118 -1.5121,0.52138 -0.41914,0.30648 -0.32268,0.36647 0.84815,0.5275 1.64149,0.22577 2.08701,0.48523 1.85798,1.08207 -0.15514,0.40431 -0.39038,0.4337 -1.95678,0.24456 -2.41742,-0.29192 -4.09482,-0.30051 -4.49242,-0.023 -0.24948,0.17413 -0.33073,1.84245 -0.33073,6.79139 0,3.6083 0.0723,6.74887 0.1606,6.97906 0.13928,0.36296 0.88693,0.41851 5.6326,0.41851 4.90104,0 5.57749,-0.0538 6.483,-0.51543 0.96793,-0.49348 2.57886,-2.12271 3.2587,-3.29572 0.24392,-0.42087 0.32361,-5.25251 0.33073,-20.05188 0.006,-12.702668 0.10158,-19.554394 0.27396,-19.660929 0.38327,-0.236876 0.35988,36.968109 -0.0244,38.759809 -0.37274,1.73803 -1.634,3.38286 -3.29336,4.29495 l -1.31248,0.72142 -5.88698,0.006 -5.88698,0.006 z m 1.45521,-7.54425 c 0,-0.21628 -0.26789,-0.43129 -0.59531,-0.47779 -0.57913,-0.0823 -0.82642,0.4267 -0.40978,0.84334 0.30825,0.30825 1.00509,0.0548 1.00509,-0.36555 z m 1.50812,-0.0493 c -0.24694,-0.24694 -0.38805,-0.24694 -0.635,0 -0.24694,0.24695 -0.17639,0.3175 0.3175,0.3175 0.49389,0 0.56445,-0.0705 0.3175,-0.3175 z m -34.387185,14.27323 c -0.306837,-0.32685 -0.800785,-1.13005 -1.097663,-1.78489 -0.52788,-1.16439 -0.539817,-1.62801 -0.541537,-21.03438 -9.79e-4,-10.914062 0.08571,-19.981309 0.192627,-20.149438 0.106912,-0.168129 0.16099,8.541065 0.120172,19.353758 -0.06682,17.702 -0.03221,19.70146 0.347599,20.08127 0.231996,0.232 0.34348,0.54855 0.247742,0.70346 -0.277219,0.44855 0.08244,1.46509 0.834635,2.35902 0.807447,0.9596 0.721592,1.35018 -0.103575,0.4712 z m 32.873355,0.0154 c -0.36004,-0.93826 0.27552,-11.43509 0.67734,-11.18675 0.12621,0.078 0.16048,2.6088 0.0762,5.62401 -0.14133,5.05434 -0.35195,6.60922 -0.75352,5.56274 z m 10.32213,-1.27494 c -0.26173,-0.42349 1.51025,-2.14285 2.11899,-2.05605 0.84061,0.11985 0.61813,0.78215 -0.52916,1.57523 -1.1797,0.81549 -1.35098,0.86729 -1.58983,0.48082 z M 86.592241,118.42934 c -0.102783,-0.10278 -0.186878,-0.35063 -0.186878,-0.55078 0,-0.28417 0.449331,-0.34698 2.05052,-0.28663 1.611953,0.0607 2.050521,0.16215 2.050521,0.47415 0,0.30796 -0.41752,0.41404 -1.863643,0.47351 -1.025003,0.0421 -1.947738,-0.007 -2.05052,-0.11025 z m -3.572902,-5.56696 c 0.06078,-1.39552 0.169235,-1.80776 0.475607,-1.80776 0.311983,0 0.396875,0.36706 0.396875,1.71605 0,1.44123 -0.07617,1.73074 -0.475607,1.80776 -0.426233,0.0822 -0.467434,-0.096 -0.396875,-1.71605 z m 25.219621,-3.07492 c 0.22608,-1.50767 0.0219,-2.43857 -0.5985,-2.72809 -0.25592,-0.11943 -1.71546,-0.28935 -3.24343,-0.3776 l -2.77813,-0.16045 3.47112,-0.0485 3.47111,-0.0485 0.16399,0.99219 c 0.28283,1.71108 0.19177,2.89355 -0.25111,3.26112 -0.37837,0.31401 -0.40214,0.22397 -0.23505,-0.89026 z m -25.908771,-1.97017 c -0.08699,-0.087 -0.15816,-0.43597 -0.15816,-0.77552 0,-0.44097 0.151191,-0.61736 0.529167,-0.61736 0.381746,0 0.529167,0.17639 0.529167,0.63315 0,0.60749 -0.57073,1.08918 -0.900174,0.75973 z m 3.611177,-0.92986 c 0.07275,-0.22021 0.942154,-0.37494 2.601735,-0.46302 l 2.49247,-0.13229 0.0176,-2.51354 c 0.02716,-3.878703 0.327781,-6.122277 0.921755,-6.879171 l 0.519081,-0.661458 -0.450173,1.058333 c -0.339463,0.798068 -0.476811,2.083131 -0.558501,5.225516 L 91.377,106.68899 h -2.337912 c -1.285851,0 -2.411497,0.11906 -2.501434,0.26459 -0.235429,0.38093 -0.726014,0.32651 -0.596289,-0.0662 z m 14.486914,-3.21184 c 0,-3.681591 0.23518,-4.119616 2.35814,-4.391968 0.76219,-0.09778 1.82334,-0.102745 2.3581,-0.01103 0.82993,0.14233 0.67777,0.192895 -1.03919,0.345318 -1.10632,0.09822 -2.19152,0.247658 -2.41156,0.332095 -0.7028,0.269685 -1.00091,1.409775 -1.00091,3.827875 0,1.96435 0.0769,2.40045 0.46302,2.62534 0.41351,0.24085 0.39937,0.27054 -0.13229,0.27773 -0.58298,0.008 -0.59531,-0.0543 -0.59531,-3.00535 z m 1.49203,2.08791 c -0.45457,-1.18458 0.11663,-4.02098 0.90826,-4.51024 0.61637,-0.38093 0.83425,0.34911 0.272,0.91136 -0.42189,0.42189 -0.5566,0.88996 -0.55967,1.94468 -0.004,1.53763 -0.33117,2.40841 -0.62059,1.6542 z m 4.09391,-3.90728 c -0.83936,-0.43391 -0.74514,-0.80814 0.26967,-1.07111 1.00724,-0.261 1.55609,0.12828 1.131,0.80219 -0.37747,0.59841 -0.65882,0.65242 -1.40067,0.26892 z m 0.49948,-2.677008 c 0,-0.0558 0.29405,-0.157659 0.65345,-0.226364 0.35939,-0.0687 0.5905,-0.02304 0.51355,0.101449 -0.13549,0.219224 -1.167,0.329637 -1.167,0.124915 z m 1.5875,-4.192362 c 0,-2.444247 -0.0855,-3.162197 -0.41578,-3.4925 -0.59592,-0.595928 -8.042403,-0.603353 -9.539934,-0.0095 l -1.024498,0.406261 0.742357,-0.670845 c 0.45094,-0.407498 1.074126,-0.678091 1.5875,-0.689305 0.464828,-0.01015 2.425005,-0.02482 4.355955,-0.03258 2.81354,-0.01132 3.55433,-0.09188 3.7299,-0.405598 0.1205,-0.215312 0.44563,-0.346776 0.72252,-0.292143 0.39282,0.07751 0.49686,0.313367 0.4735,1.073445 -0.018,0.585305 0.0876,0.95253 0.26459,0.920039 0.16198,-0.02974 0.26647,0.08957 0.23221,0.265129 -0.0343,0.175562 -0.1962,1.48525 -0.35985,2.910417 -0.42198,3.674858 -0.76847,3.682611 -0.76847,0.0172 z M 91.552755,94.480407 c -0.08496,-0.267673 -0.08022,-0.606807 0.01053,-0.75363 0.286965,-0.464319 1.201063,-0.28879 1.407901,0.270352 0.189502,0.512275 0.234627,0.499867 0.968745,-0.266388 0.451369,-0.471128 0.795793,-1.141904 0.832356,-1.621041 0.08159,-1.069199 0.257503,-1.209822 0.846568,-0.676724 0.267013,0.241642 0.654696,0.441612 0.861518,0.444377 0.206822,0.0028 -0.183203,0.356248 -0.866722,0.785517 -0.683519,0.42927 -1.503354,1.13296 -1.821855,1.563756 -0.681214,0.921389 -1.980401,1.068646 -2.239031,0.253781 z m 4.377608,-4.574627 c 0,-0.424944 0.909322,-0.80261 1.320548,-0.548459 0.58225,0.35985 0.25984,0.927505 -0.526798,0.927505 -0.512572,0 -0.79375,-0.134273 -0.79375,-0.379046 z M 68.798437,89.350119 c 0.0925,-0.842695 0.336296,-1.095923 0.702513,-0.729706 0.203191,0.203191 0.199264,0.444296 -0.01372,0.842257 -0.407901,0.762172 -0.778173,0.701668 -0.688794,-0.112551 z m 47.800113,-1.057013 c -0.0169,-0.295081 -0.26881,-0.7404 -0.55985,-0.989598 -0.45996,-0.393823 -0.75775,-1.516599 -0.40226,-1.516599 0.28426,0 1.21868,2.188503 1.10996,2.599642 -0.091,0.344104 -0.12401,0.323233 -0.14785,-0.09345 z M 67.895123,87.295124 c -0.02467,-0.492702 0.822653,-1.752659 1.691953,-2.515915 1.876756,-1.647813 1.74357,-1.638133 22.539235,-1.638133 12.714229,0 18.909209,0.08921 19.023389,0.273961 0.11621,0.188039 -5.90238,0.264852 -19.19026,0.244918 -17.269887,-0.02591 -19.409258,0.01592 -19.819848,0.387497 -0.253149,0.229097 -0.748552,0.42003 -1.100896,0.424296 -0.731122,0.0088 -2.127162,1.179143 -2.727136,2.28614 -0.223214,0.411847 -0.410611,0.653603 -0.416437,0.537236 z m 43.653077,-2.0272 c -0.33555,-0.212201 -0.32853,-0.269682 0.0507,-0.4152 0.60108,-0.230656 1.32994,-0.06187 1.46338,0.338873 0.13013,0.390849 -0.93206,0.444396 -1.51406,0.07633 z m 2.74473,-0.249654 c -0.9611,-0.436481 -1.76988,-1.348028 -1.19604,-1.348028 0.26056,0 2.41264,1.535538 2.41264,1.721451 0,0.179556 0.003,0.180525 -1.2166,-0.373423 z M 71.761741,85.0593 c -0.110913,-0.179276 32.178199,-0.16603 37.265499,0.01529 1.16416,0.04149 -6.7167,0.09968 -17.513032,0.129296 -10.796334,0.02962 -19.684944,-0.03544 -19.752467,-0.144583 z"
           style="fill:#47588d;stroke-width:0.26458332" />
      </g>
    </g>
  </g>
</svg>
