<?xml version="1.0" encoding="UTF-8" standalone="no"?>
<!-- Created with Inkscape (http://www.inkscape.org/) -->

<svg
   xmlns:dc="http://purl.org/dc/elements/1.1/"
   xmlns:cc="http://creativecommons.org/ns#"
   xmlns:rdf="http://www.w3.org/1999/02/22-rdf-syntax-ns#"
   xmlns:svg="http://www.w3.org/2000/svg"
   xmlns="http://www.w3.org/2000/svg"
   xmlns:sodipodi="http://sodipodi.sourceforge.net/DTD/sodipodi-0.dtd"
   xmlns:inkscape="http://www.inkscape.org/namespaces/inkscape"
   width="192.51416mm"
   height="91.121834mm"
   viewBox="0 0 682.13679 322.87264"
   id="svg6713"
   version="1.1"
   inkscape:version="0.91 r13725"
   sodipodi:docname="handshake.svg">
  <defs
     id="defs6715" />
  <sodipodi:namedview
     id="base"
     pagecolor="#ffffff"
     bordercolor="#666666"
     borderopacity="1.0"
     inkscape:pageopacity="0.0"
     inkscape:pageshadow="2"
     inkscape:zoom="0.98994949"
     inkscape:cx="300.35552"
     inkscape:cy="234.50308"
     inkscape:document-units="px"
     inkscape:current-layer="layer3"
     showgrid="false"
     inkscape:window-width="1280"
     inkscape:window-height="962"
     inkscape:window-x="-8"
     inkscape:window-y="-8"
     inkscape:window-maximized="1"
     fit-margin-top="0"
     fit-margin-left="0"
     fit-margin-right="0"
     fit-margin-bottom="0" />
  <metadata
     id="metadata6718">
    <rdf:RDF>
      <cc:Work
         rdf:about="">
        <dc:format>image/svg+xml</dc:format>
        <dc:type
           rdf:resource="http://purl.org/dc/dcmitype/StillImage" />
        <dc:title></dc:title>
      </cc:Work>
    </rdf:RDF>
  </metadata>
  <g
     inkscape:groupmode="layer"
     id="layer3"
     inkscape:label="hand 1"
     transform="translate(-20.755007,-356.19361)">
    <path
       style="fill:#99ff55;fill-rule:evenodd;stroke:#000000;stroke-width:1px;stroke-linecap:butt;stroke-linejoin:miter;stroke-opacity:1"
       d="m 24.748737,455.36205 c 0,0 116.672623,2.52538 166.675173,-3.53553 0,-1.01016 27.27412,-2.52539 40.4061,0 -10.10153,-1.01016 24.24366,4.54568 97.47972,-35.86042 -2.02031,-0.50508 16.66752,-2.0203 19.1929,-0.50508 2.52538,1.51523 -27.27412,33.33504 -40.4061,39.90103 1.51523,1.01015 -16.16244,-7.57614 -10.10153,44.44671 1.01015,-1.01015 -22.72843,49.49748 18.18275,42.93149 -0.50508,-1.51523 9.09137,8.58629 33.33503,-50.00256 0,0.50508 3.03046,-12.6269 21.71828,-12.12183 -1.01015,1.51523 55.55839,26.26397 80.8122,43.43656 0.50508,1.51523 56.06347,25.25382 52.02286,38.89088 0,-2.52539 3.03046,35.86041 -26.26397,23.2335 -1.51522,-0.50507 -74.24621,-35.35533 -76.26651,-44.95178 1.01015,2.0203 0.50507,10.6066 5.05076,14.14213 -3.53553,-1.01015 58.08377,41.92133 58.08377,41.92133 0,0 4.54569,37.88072 -24.24366,29.29443 -0.50508,0.50507 -61.11423,-40.91118 -61.11423,-40.91118 l 57.83058,44.36905 c 0,0 0,18.39285 -24.10714,16.60714 3.39285,0.71428 -25.71429,-3.39286 -41.60715,-24.10714 -9.73469,9.6235 34.43092,29.14954 39.06102,26.09653 2.13331,3.04757 -18.42889,34.29089 -38.12211,11.53317 -0.12627,-0.25254 -10.22779,-6.06092 -10.22779,-6.06092 0,0 12.50317,-43.17593 -11.06826,-47.1045 0.35714,0 4.28571,-20 -22.85714,-26.07143 0.71428,0.71429 -5.71429,1.07143 -8.57143,3.92857 -2.85715,2.85715 4.28571,-4.28571 0.35714,-12.14285 0.71429,0.71428 -12.14286,-24.64286 -32.85714,-12.85715 1.42857,0 -36.07143,34.28572 -36.07143,34.28572 0,0 -16.07143,-26.07143 -38.57143,-26.78572 0.35714,0.35715 -156.785714,4.64286 -190.357143,16.42858 1.071429,-1.42858 2.60588,-128.42873 2.60588,-128.42873 z"
       id="path7273"
       inkscape:connector-curvature="0"
       sodipodi:nodetypes="ccccscccccccccccccccccccccscccccc" />
    <path
       style="fill:#081300;fill-opacity:0.11875;fill-rule:evenodd;stroke:none;stroke-width:1px;stroke-linecap:butt;stroke-linejoin:miter;stroke-opacity:1"
       d="m 25.253814,547.28593 c 0,0 189.908676,-10.10152 217.182796,8.08122 27.27412,18.18275 51.51778,-5.05076 51.51778,-5.05076 0,0 61.61931,7.07107 61.61931,20.20305 0,13.13198 61.39059,71.12848 64.24773,66.12848 2.85714,-5 5,6.60714 5,6.60714 0,0 -15.35714,9.82143 -31.96429,-10.71428 -16.60714,-20.53572 -23.75,-11.96429 -23.75,-11.96429 0,0 -1.25,7.67857 1.78572,11.25 3.03571,3.57143 21.42857,17.32143 28.92857,18.03571 7.5,0.71429 0,11.96429 0,11.96429 0,0 -12.14286,9.10714 -16.78571,2.67857 -4.64286,-6.42857 -18.92858,-11.78571 -18.92858,-11.78571 0,0 5.17858,-26.42857 2.32143,-31.42857 -2.85714,-5 -4.82143,-16.42858 -13.03571,-16.42858 -8.21429,0 22.85714,-12.32142 -29.10715,-26.07142 0.53572,0.17857 -8.03571,-28.21429 -32.14285,-22.67858 -0.17857,0.35715 -21.07143,9.28572 -39.46429,33.39286 -0.17857,-0.89286 -22.5,-25.53571 -48.92857,-25.17857 0.35714,0.17857 -170.535714,8.75 -178.035714,14.46429 0.357143,-0.35715 -0.460472,-31.50485 -0.460472,-31.50485 z"
       id="path7298"
       inkscape:connector-curvature="0" />
  </g>
  <g
     inkscape:groupmode="layer"
     id="layer4"
     inkscape:label="hand 2"
     transform="translate(-20.755007,-356.19361)">
    <g
       id="g7290"
       style="fill:#44aa00">
      <path
         inkscape:connector-curvature="0"
         id="path7276"
         d="m 700.54079,356.87218 -222.23356,68.69037 c 0,0 -27.27412,4.04061 -33.84011,-2.52538 1.01015,1.51523 -22.22336,-2.02031 -38.89087,-4.04061 1.01015,1.51523 -38.3858,-6.06092 -38.3858,-6.06092 0,0 -13.13198,8.08122 -50.50763,38.3858 2.02031,0.50508 -14.14213,8.08122 -16.66751,15.15229 2.52538,-1.51523 -2.02031,17.67767 0.50507,32.32488 0,-1.51523 -17.67767,36.36549 4.54569,40.91118 0.50508,1.01015 26.76904,14.14213 38.3858,-51.51778 2.0203,2.0203 19.19289,-9.09138 29.29442,-11.61676 2.52538,3.53554 138.3909,81.82236 138.3909,81.82236 0,0 10.6066,-17.17259 26.76904,-24.24366 -0.50508,2.0203 48.9924,-18.68782 164.65487,-21.71828 -2.52539,0 -2.02031,-155.56349 -2.02031,-155.56349 z"
         style="fill:#44aa00;fill-rule:evenodd;stroke:#000000;stroke-width:1px;stroke-linecap:butt;stroke-linejoin:miter;stroke-opacity:1" />
      <path
         inkscape:connector-curvature="0"
         id="path7278"
         d="m 215,571.64792 c 0,0 28.21429,1.42857 30,19.64286 0.35714,-0.35715 1.42857,7.85714 0.71429,15 1.07142,2.5 -22.14286,14.64285 -30.35715,3.21428 C 215.71429,610.21935 202.5,593.07649 215,571.64792 Z"
         style="fill:#44aa00;fill-rule:evenodd;stroke:#000000;stroke-width:1px;stroke-linecap:butt;stroke-linejoin:miter;stroke-opacity:1" />
      <path
         inkscape:connector-curvature="0"
         id="path7280"
         d="m 252.14286,596.29078 c 0,0 37.14285,-46.07143 49.28571,-36.78572 -1.78571,0.35714 15,-1.42857 17.14286,19.64286 0,1.78571 -40.71429,64.28571 -40.71429,64.28571 0,0 -18.21428,10.35715 -29.28571,-12.14285 -0.35714,0.35714 -8.92857,-10.71429 3.57143,-35 z"
         style="fill:#44aa00;fill-rule:evenodd;stroke:#000000;stroke-width:1px;stroke-linecap:butt;stroke-linejoin:miter;stroke-opacity:1" />
      <path
         inkscape:connector-curvature="0"
         id="path7284"
         d="m 289.28571,630.75506 c 0,0 28.75,-47.14286 34.64286,-46.78571 -0.71428,0.53571 17.67857,-6.60715 24.64286,17.14285 -0.17857,0.35715 0.89286,13.57143 -31.25,56.42858 0.53571,-0.53572 -13.03572,10.17857 -23.03572,1.25 -0.17857,0.35714 -17.32142,-9.46429 -5,-28.03572 z"
         style="fill:#44aa00;fill-rule:evenodd;stroke:#000000;stroke-width:1px;stroke-linecap:butt;stroke-linejoin:miter;stroke-opacity:1" />
      <path
         inkscape:connector-curvature="0"
         id="path7286"
         d="M 337.32143,630.75506 351.25,608.43363 c 0,0 16.07143,2.14286 12.67857,33.92857 -0.17857,0 -3.03571,13.39286 -3.03571,13.39286 l 12.5,6.78572 c 0,0 -14.82143,21.25 -23.92857,14.82142 1.42857,1.07143 -10.35715,1.96429 -19.82143,-8.75 0.35714,-0.35714 -8.03572,-2.14285 -4.28572,-16.78571 0.35715,0.35714 11.96429,-21.07143 11.96429,-21.07143 z"
         style="fill:#44aa00;fill-rule:evenodd;stroke:#000000;stroke-width:1px;stroke-linecap:butt;stroke-linejoin:miter;stroke-opacity:1" />
      <path
         inkscape:connector-curvature="0"
         id="path7288"
         d="m 403.05087,546.78086 c 0,0 3.78807,7.3236 59.09392,46.46701 0.50508,0.50508 11.86929,-6.06091 11.86929,-6.06091 l -61.6193,-34.09265 z"
         style="fill:#44aa00;fill-rule:evenodd;stroke:#000000;stroke-width:1px;stroke-linecap:butt;stroke-linejoin:miter;stroke-opacity:1" />
    </g>
    <path
       style="fill:#3c9600;fill-opacity:0.8125;fill-rule:evenodd;stroke:none;stroke-width:1px;stroke-linecap:butt;stroke-linejoin:miter;stroke-opacity:1"
       d="m 321.22851,525.06258 c 0,0 -7.07107,-47.47717 15.15229,-57.5787 22.22335,-10.10152 79.80205,-2.0203 84.85281,13.13198 5.05076,15.15229 53.53809,50.50763 80.81221,41.41626 27.27411,-9.09137 90.91372,-19.1929 127.27922,-25.25382 36.36549,-6.06091 63.63961,-7.07106 63.63961,-7.07106 l 4.04061,14.14213 c 0,0 -175.76655,21.21321 -176.7767,30.30458 -1.01015,9.09137 -9.09137,14.14213 -9.09137,14.14213 L 419.21331,499.80876 377.79705,475.5651 c 0,0 -24.24366,0 -35.35534,8.5863 -11.11167,8.58629 -3.53553,10.6066 -3.53553,10.6066 0,0 -8.08122,39.39595 -17.67767,30.30458 z"
       id="path7300"
       inkscape:connector-curvature="0" />
    <path
       style="fill:#b3ff80;fill-rule:evenodd;stroke:none;stroke-width:1px;stroke-linecap:butt;stroke-linejoin:miter;stroke-opacity:1"
       d="m 27.779195,457.88743 c 0,0 156.068565,3.03046 164.654865,-2.52538 1.51523,0.50508 32.32488,-6.06092 40.4061,-0.50508 0.50508,-0.50507 81.31728,-13.13198 94.95434,-32.82995 -2.0203,3.03045 -8.5863,24.74873 -91.4188,35.35534 0,2.0203 -34.85027,-3.03046 -46.46702,3.53553 1.01015,-1.01015 -161.624409,1.51523 -161.624409,1.51523 l 0,-2.52538 z"
       id="path7304"
       inkscape:connector-curvature="0" />
    <path
       style="fill:#55d400;fill-opacity:0.39375;fill-rule:evenodd;stroke:none;stroke-width:1px;stroke-linecap:butt;stroke-linejoin:miter;stroke-opacity:1"
       d="m 324.25897,451.82652 43.94163,-35.35534 79.80205,12.6269 c 0,0 17.1726,6.566 45.45687,-2.52538 28.28427,-9.09137 143.44166,-45.45686 143.44166,-45.45686 l -6.06092,6.56599 -161.6244,50.00255 c 0,0 -81.82236,-15.65736 -93.94419,-15.65736 -12.12183,0 -48.48732,29.29442 -51.0127,29.7995 z"
       id="path7306"
       inkscape:connector-curvature="0" />
  </g>
</svg>
