<?xml version="1.0" encoding="UTF-8" standalone="no"?>
<!-- Created with Inkscape (http://www.inkscape.org/) -->

<svg
   xmlns:dc="http://purl.org/dc/elements/1.1/"
   xmlns:cc="http://creativecommons.org/ns#"
   xmlns:rdf="http://www.w3.org/1999/02/22-rdf-syntax-ns#"
   xmlns:svg="http://www.w3.org/2000/svg"
   xmlns="http://www.w3.org/2000/svg"
   xmlns:sodipodi="http://sodipodi.sourceforge.net/DTD/sodipodi-0.dtd"
   xmlns:inkscape="http://www.inkscape.org/namespaces/inkscape"
   width="44.630371mm"
   height="43.675262mm"
   viewBox="0 0 44.630371 43.675262"
   version="1.1"
   id="svg3799"
   inkscape:version="0.92.0 r15299"
   sodipodi:docname="linkedin.svg">
  <defs
     id="defs3793" />
  <sodipodi:namedview
     id="base"
     pagecolor="#ffffff"
     bordercolor="#666666"
     borderopacity="1.0"
     inkscape:pageopacity="0.0"
     inkscape:pageshadow="2"
     inkscape:zoom="0.35"
     inkscape:cx="33.920381"
     inkscape:cy="125.34123"
     inkscape:document-units="mm"
     inkscape:current-layer="layer1"
     showgrid="false"
     inkscape:snap-nodes="false"
     fit-margin-top="0"
     fit-margin-left="0"
     fit-margin-right="0"
     fit-margin-bottom="0"
     inkscape:window-width="1920"
     inkscape:window-height="1018"
     inkscape:window-x="-8"
     inkscape:window-y="-8"
     inkscape:window-maximized="1" />
  <metadata
     id="metadata3796">
    <rdf:RDF>
      <cc:Work
         rdf:about="">
        <dc:format>image/svg+xml</dc:format>
        <dc:type
           rdf:resource="http://purl.org/dc/dcmitype/StillImage" />
        <dc:title></dc:title>
      </cc:Work>
    </rdf:RDF>
  </metadata>
  <g
     inkscape:label="Layer 1"
     inkscape:groupmode="layer"
     id="layer1"
     transform="translate(-96.858566,-138.32127)">
    <g
       id="g3839">
      <rect
         y="143.20978"
         x="103.11191"
         height="35.529762"
         width="32.505951"
         id="rect3828"
         style="fill:#ffffff;fill-opacity:1;stroke:#002b11;stroke-width:0.26458332;stroke-miterlimit:4;stroke-dasharray:none;stroke-opacity:0" />
      <g
         transform="translate(58.208336,-3.7797619)"
         id="g3812">
        <path
           inkscape:connector-curvature="0"
           id="path3826"
           d="m 44.36778,185.4077 c -1.673935,-0.44576 -3.992448,-2.44461 -4.982227,-4.2953 -0.775871,-1.45072 -0.781008,-1.57197 -0.703052,-16.59551 0.0913,-17.59463 0.140597,-17.95502 2.773282,-20.2724 2.46272,-2.16777 3.112309,-2.23406 20.607911,-2.10294 14.923718,0.11185 15.38465,0.1359 16.756945,0.87443 1.7823,0.95918 2.799013,2.04683 3.581615,3.83151 0.549166,1.25234 0.631,3.10553 0.747512,16.92851 l 0.130834,15.52223 -0.99526,1.93809 c -1.114996,2.17127 -3.054368,3.73995 -5.25459,4.25022 -1.860416,0.43148 -31.010881,0.36111 -32.66297,-0.0788 z m 7.818136,-17.39274 v -8.91917 l -0.79375,-0.21271 c -1.018874,-0.27305 -3.576414,-0.28308 -4.270464,-0.0168 -0.45807,0.17578 -0.538425,1.44259 -0.553834,8.73125 -0.0099,4.68911 0.09967,8.70976 0.243519,8.93479 0.313089,0.48977 1.824386,0.6947 3.875223,0.52547 l 1.499306,-0.12372 v -8.91916 z m 9.613195,9.00117 c 0.145521,-0.006 0.264583,-2.63267 0.264583,-5.83697 v -5.82602 l 1.146528,-1.24177 c 1.470484,-1.59263 3.14065,-1.90111 4.771295,-0.88124 0.635423,0.39742 1.310111,1.12972 1.499305,1.62734 0.189192,0.49761 0.343983,3.42086 0.343983,6.49612 v 5.59138 l 2.38125,0.13326 c 1.309688,0.0733 2.512466,0.0271 2.672839,-0.10273 0.160373,-0.1298 0.239748,-3.39092 0.176389,-7.24692 -0.13093,-7.96818 -0.305915,-8.60306 -2.83191,-10.27469 -1.229564,-0.81368 -1.839694,-0.96786 -3.833304,-0.96863 -2.160334,-8.5e-4 -2.501269,0.10369 -3.837302,1.17652 -1.527972,1.22696 -2.489073,1.26793 -2.489073,0.10609 0,-0.84997 -0.655553,-1.10714 -2.822222,-1.10714 -2.940841,0 -2.752422,-0.66628 -2.574724,9.10467 0.08713,4.79083 0.21869,8.90342 0.292368,9.13908 0.09335,0.29862 0.80699,0.38212 2.354682,0.27554 1.221402,-0.0841 2.339792,-0.15786 2.485313,-0.16389 z m -9.891699,-22.59286 c 0.881472,-1.08857 0.814952,-3.10628 -0.135767,-4.11828 -1.097802,-1.16855 -3.52449,-1.14313 -4.717042,0.0494 -1.19743,1.19743 -1.178635,3.08677 0.04286,4.30826 0.789185,0.78919 1.123903,0.88452 2.543718,0.72449 1.107624,-0.12485 1.838563,-0.43573 2.266235,-0.96389 z"
           style="fill:#b3d3e5;stroke-width:0.35277778" />
        <path
           inkscape:connector-curvature="0"
           id="path3824"
           d="m 43.122843,184.57821 c -1.787041,-0.89052 -3.225521,-2.52438 -3.969989,-4.5092 -0.423473,-1.12902 -0.463309,-15.59512 -0.06975,-25.32768 0.183187,-4.5301 0.391161,-6.42089 0.767985,-6.98213 l 0.516768,-0.76966 18.697223,0.0407 c 21.532829,0.0468 22.266593,0.0657 22.788013,0.58715 0.691317,0.69132 0.959569,5.31212 1.081429,18.6281 l 0.119447,13.05278 -0.825425,1.67612 c -0.968354,1.96635 -2.731083,3.53032 -4.615212,4.09482 -0.919558,0.2755 -6.294745,0.40267 -17.020611,0.40267 h -15.67661 z m 9.164345,-16.30429 c 0.116378,-4.99621 0.08646,-9.21021 -0.0665,-9.36443 -0.152951,-0.15423 -1.533034,-0.2336 -3.066852,-0.17639 l -2.788759,0.10402 0.0126,2.02847 c 0.0069,1.11566 0.04662,5.28284 0.08819,9.26041 l 0.0756,7.23195 h 2.76706 2.767057 z m 10.049295,2.85156 0.0964,-6.05607 1.238793,-1.08768 c 0.735086,-0.64541 1.628274,-1.08713 2.196659,-1.08635 1.310742,0.002 3.187404,1.21028 3.439548,2.21491 0.114159,0.45485 0.237483,3.35696 0.274048,6.44913 l 0.06649,5.62214 2.941444,0.10296 2.941444,0.10297 -0.122661,-7.33491 c -0.138593,-8.28753 -0.286742,-8.85295 -2.795888,-10.67057 -1.962308,-1.42149 -4.617646,-1.74339 -6.714148,-0.81395 -0.848021,0.37596 -1.759733,0.94748 -2.026024,1.27006 -0.724302,0.87738 -1.456111,0.72199 -1.456111,-0.30918 v -0.89568 l -3.034157,0.10193 -3.034157,0.10193 0.05194,8.96785 c 0.02858,4.93233 0.137287,9.10595 0.241596,9.27472 0.104309,0.16878 1.406617,0.26074 2.89402,0.20437 l 2.704366,-0.1025 z M 52.023952,154.73063 c 0.749134,-0.76671 1.006747,-1.67222 0.906569,-3.18659 -0.02148,-0.32466 -0.464704,-1.09615 -0.984949,-1.71443 -0.881257,-1.04731 -1.066691,-1.11253 -2.713271,-0.95432 -2.307128,0.22169 -3.396385,1.37629 -3.396385,3.60014 0,1.29584 0.177014,1.68541 1.130286,2.48754 0.958868,0.80683 1.366432,0.92446 2.687357,0.77557 1.003467,-0.11311 1.846239,-0.47146 2.370393,-1.00791 z"
           style="fill:#aac7d9;stroke-width:0.35277778" />
        <path
           inkscape:connector-curvature="0"
           id="path3822"
           d="m 44.775299,185.15072 c -2.448047,-0.76819 -3.979705,-2.03676 -5.149524,-4.26499 -0.535059,-1.01917 -0.671771,-2.27253 -0.783089,-7.17929 -0.129881,-5.72503 0.470729,-21.79073 0.875704,-23.42419 0.176466,-0.71177 0.402347,-0.79011 2.18702,-0.75858 1.094625,0.0193 2.379596,0.14379 2.855489,0.27655 0.788871,0.22007 0.856994,0.39716 0.771614,2.00578 -0.07166,1.35009 0.07852,1.98329 0.639561,2.69653 1.027543,1.30631 2.847485,1.85704 4.420826,1.33779 1.8408,-0.60751 2.651349,-1.85561 2.651349,-4.08256 0,-1.47437 0.130338,-1.90794 0.617361,-2.05369 0.339549,-0.10161 6.570487,-0.17824 13.846529,-0.17029 7.276042,0.008 13.45746,-0.0387 13.736486,-0.1036 0.864376,-0.20116 1.052541,2.10102 1.302759,15.93911 0.265896,14.70542 0.236911,14.9681 -1.914338,17.34928 -2.42788,2.68736 -1.564453,2.56911 -19.298519,2.64325 -8.73125,0.0365 -16.272903,-0.0585 -16.759228,-0.2111 z m 7.328406,-7.7345 c 0.346297,-0.21981 0.425742,-2.38348 0.352777,-9.60779 l -0.09418,-9.32409 h -2.998611 -2.998612 l -0.09424,9.12879 c -0.06647,6.43917 0.02421,9.27151 0.30778,9.61319 0.444421,0.5355 4.7476,0.6834 5.525084,0.1899 z m 9.847548,0.0187 c 0.286738,-0.18235 0.451799,-2.17118 0.529167,-6.37594 l 0.112441,-6.11093 0.98981,-0.85061 c 1.409262,-1.21106 3.68942,-1.18348 4.857725,0.0588 0.825987,0.87827 0.859088,1.1164 0.967684,6.96153 0.07728,4.15951 0.24276,6.13503 0.529166,6.31717 0.2292,0.14575 1.482704,0.26744 2.785565,0.27042 3.234842,0.007 3.220213,0.0455 3.030545,-7.89894 -0.131681,-5.51558 -0.253005,-6.60744 -0.89263,-8.03322 -1.093548,-2.43763 -3.021351,-3.5984 -6.238822,-3.75651 -2.330884,-0.11454 -2.603186,-0.0487 -3.997516,0.96613 -0.822939,0.59898 -1.559793,1.08905 -1.63745,1.08905 -0.07766,0 -0.242344,-0.40299 -0.365964,-0.89553 -0.221764,-0.88358 -0.265833,-0.89418 -3.30144,-0.79375 l -3.076673,0.10178 0.136944,9.34861 c 0.09269,6.32704 0.263716,9.43238 0.529167,9.60779 0.514431,0.33994 4.505833,0.33532 5.042281,-0.006 z"
           style="fill:#8eb5cd;stroke-width:0.35277778" />
        <path
           inkscape:connector-curvature="0"
           id="path3820"
           d="m 43.54286,184.53935 c -1.647744,-0.87569 -3.026778,-2.28757 -3.740904,-3.83001 -0.580398,-1.2536 -0.653851,-2.39556 -0.658053,-10.23056 -0.0048,-8.96112 0.459364,-16.74497 1.019346,-17.09378 0.169824,-0.10578 1.336846,-0.13998 2.593383,-0.076 2.018263,0.10277 2.339762,0.21938 2.757668,1.00024 0.62879,1.17491 2.07726,1.88205 3.855067,1.88205 1.645228,0 2.48704,-0.36951 4.16719,-1.82919 l 1.174253,-1.02016 6.586859,0.0154 c 3.622774,0.008 6.983734,0.01 7.468803,0.003 0.485069,-0.007 3.685064,0.001 7.111101,0.0173 l 6.229159,0.0292 0.29723,3.77329 c 0.163477,2.07532 0.297233,7.98018 0.297233,13.12191 0,9.31751 -0.0028,9.35384 -0.881945,10.92045 -0.485069,0.86451 -1.57014,2.05513 -2.411264,2.64583 l -1.529324,1.074 -16.638732,0.0796 c -14.65093,0.07 -16.765174,0.0124 -17.69707,-0.48289 z m 9.077103,-16.51347 c 0.199771,-7.37222 0.160144,-9.57041 -0.176389,-9.78418 -0.659892,-0.41919 -5.707828,-0.33969 -6.14428,0.0968 -0.264649,0.26465 -0.332686,3.18563 -0.219807,9.4368 0.08991,4.97944 0.228142,9.25842 0.307171,9.50885 0.105684,0.3349 0.914934,0.42821 3.059668,0.35278 l 2.915979,-0.10255 z m 9.583777,9.39087 c 0.09992,-0.16168 0.292576,-3.02571 0.42811,-6.36451 l 0.246429,-6.07054 1.030884,-0.86743 c 0.566988,-0.47709 1.423465,-0.86743 1.903285,-0.86743 1.1485,0 2.797673,0.87148 3.146362,1.66264 0.152809,0.34673 0.370484,3.32916 0.483722,6.62764 l 0.205884,5.99722 h 2.998612 2.998611 V 170.126 c 0,-8.48403 -0.199401,-9.24698 -2.9346,-11.22835 -1.221281,-0.88469 -1.928294,-1.11429 -3.797914,-1.23333 -2.089548,-0.13306 -2.457355,-0.0468 -4.067626,0.95423 -0.973695,0.60528 -1.828137,1.10051 -1.898763,1.10051 -0.07063,0 -0.179144,-0.35719 -0.241145,-0.79375 -0.105311,-0.7415 -0.307954,-0.80055 -3.07854,-0.89711 -1.751845,-0.061 -3.11814,0.049 -3.337962,0.2688 -0.376083,0.37608 -0.35306,17.95776 0.0248,18.94246 0.204223,0.53219 5.570672,0.69373 5.889847,0.17729 z"
           style="fill:#75a4c4;stroke-width:0.35277778" />
        <path
           inkscape:connector-curvature="0"
           id="path3818"
           d="m 43.517904,184.45677 c -1.762622,-0.80726 -3.570729,-2.92894 -4.069973,-4.77581 -0.430093,-1.59106 -0.270496,-19.77174 0.182201,-20.75565 0.156226,-0.33955 0.624251,-0.61979 1.040055,-0.62276 0.415803,-0.003 0.979512,-0.1469 1.252687,-0.31984 0.300682,-0.19035 0.826501,-0.16415 1.332485,0.0664 0.613604,0.27958 0.945808,0.27082 1.249571,-0.0329 0.772637,-0.77264 1.173139,-0.41778 1.225164,1.08554 0.02854,0.82462 0.163142,5.34899 0.299121,10.05416 l 0.247235,8.55487 h 3.088235 3.088238 l 0.226152,-6.26181 c 0.124386,-3.44399 0.320639,-7.87786 0.436118,-9.85303 l 0.209962,-3.59123 0.992061,0.0282 c 0.919064,0.0261 1.010909,0.16058 1.248262,1.82733 0.140913,0.98953 0.350971,5.37101 0.466795,9.73664 l 0.210588,7.9375 h 3.175 3.175 l 0.176389,-6.28283 c 0.173838,-6.19192 0.189148,-6.2926 1.058333,-6.95951 0.539171,-0.4137 1.454704,-0.67975 2.355645,-0.68454 1.177163,-0.006 1.620824,0.17919 2.204862,0.92167 0.670404,0.85228 0.731608,1.40193 0.736561,6.61459 0.0028,3.12678 0.135632,5.89034 0.294802,6.14124 0.208308,0.32835 1.121146,0.4272 3.25779,0.35277 l 2.968396,-0.10339 0.09573,-6.98989 c 0.05474,-3.99685 -0.05907,-7.56475 -0.265779,-8.33241 -0.424992,-1.57831 -1.505737,-3.04829 -2.834728,-3.85569 -0.904505,-0.54951 -0.708932,-0.57184 4.025656,-0.45961 2.736992,0.0649 5.129195,0.26534 5.316005,0.44549 0.347476,0.33507 0.804429,11.07499 0.742375,17.44817 -0.04385,4.50305 -0.898899,6.45583 -3.542668,8.09079 l -1.716444,1.06148 -16.255905,0.0859 c -15.218108,0.0804 -16.347586,0.0439 -17.691973,-0.5718 z m 19.604123,-25.71736 c 0,-0.35372 -0.1905,-0.83363 -0.423333,-1.06646 -0.329258,-0.32926 -0.294689,-0.42333 0.155568,-0.42333 0.318396,0 0.678617,0.16133 0.800488,0.35853 0.121871,0.19719 0.358398,0.27398 0.525611,0.17063 0.167213,-0.10334 0.393005,-0.0439 0.501763,0.13205 0.108754,0.17597 -0.197778,0.57909 -0.681182,0.89583 -0.825889,0.54114 -0.878915,0.53709 -0.878915,-0.0673 z m -11.355035,-1.378 c 0.25466,-0.10191 0.558931,-0.0894 0.676159,0.0279 0.117224,0.11722 -0.09114,0.2006 -0.463021,0.18528 -0.410968,-0.0169 -0.494559,-0.10052 -0.213138,-0.21313 z"
           style="fill:#6793b3;stroke-width:0.35277778" />
        <path
           inkscape:connector-curvature="0"
           id="path3816"
           d="m 44.958468,184.7276 c -1.811233,-0.43503 -3.37725,-1.5191 -4.446031,-3.07776 -0.839377,-1.2241 -0.851457,-1.36019 -0.95481,-10.75741 -0.05757,-5.2347 0.0218,-9.62993 0.176389,-9.76719 0.154586,-0.13726 1.551066,0.165 3.103289,0.67169 l 2.822222,0.92126 0.09569,7.20457 c 0.06093,4.58759 0.236803,7.37461 0.484168,7.67266 0.506572,0.61038 5.626336,0.64716 6.22875,0.0448 0.297667,-0.29767 0.423334,-2.29429 0.423334,-6.72597 0,-6.4312 0.279647,-8.10723 1.222191,-7.32498 0.257087,0.21336 0.682579,0.34267 0.945536,0.28736 0.381748,-0.0803 0.53243,1.25031 0.747649,6.6022 0.148248,3.68653 0.341704,6.90122 0.429899,7.14375 0.176904,0.48647 5.33841,0.63232 6.05076,0.17099 0.263825,-0.17086 0.447386,-2.34612 0.53867,-6.38346 0.133622,-5.90982 0.167302,-6.14763 0.9618,-6.79098 1.162198,-0.94109 3.599208,-0.90025 4.482846,0.0751 0.594677,0.65641 0.685775,1.43796 0.791361,6.78939 0.08069,4.08992 0.251993,6.132 0.529167,6.30835 0.789055,0.50203 5.760064,0.30945 6.216767,-0.24085 0.308296,-0.37147 0.398797,-2.47465 0.329039,-7.64671 -0.109583,-8.12493 -0.533915,-7.13086 3.565426,-8.35262 1.904253,-0.56754 2.340752,-0.60165 2.574351,-0.20118 0.154714,0.26522 0.234089,4.59712 0.176388,9.62643 l -0.104905,9.1442 -1.073997,1.52879 c -0.590702,0.84083 -1.781327,1.92566 -2.645833,2.41073 l -1.571837,0.88194 -15.345834,0.0614 c -8.800984,0.0352 -15.945741,-0.0827 -16.752448,-0.27646 z"
           style="fill:#4a7899;stroke-width:0.35277778" />
        <path
           inkscape:connector-curvature="0"
           id="path3814"
           d="m 43.892612,184.10836 c -1.84197,-0.83679 -3.569004,-2.83291 -4.074171,-4.70895 -0.40065,-1.48791 -0.126871,-14.6534 0.295928,-14.2306 0.103715,0.10371 0.362342,0.0444 0.574725,-0.1319 0.231551,-0.19217 1.077875,-0.19125 2.113895,0.002 1.107575,0.20692 1.878691,0.1975 2.148273,-0.0262 0.321682,-0.26697 0.474341,1.19742 0.649465,6.23004 0.125914,3.61848 0.323086,6.67306 0.438158,6.78796 0.418738,0.41812 6.619471,0.0566 6.911169,-0.40296 0.155864,-0.24555 0.285824,-3.1785 0.288794,-6.51767 l 0.0054,-6.07121 1.057632,0.074 c 0.949692,0.0664 1.062228,0.20001 1.102663,1.30872 0.02477,0.67909 0.144145,3.53659 0.265285,6.35 l 0.220254,5.11528 2.998611,0.20993 c 1.649236,0.11546 3.25598,0.0811 3.570542,-0.0763 0.484018,-0.24222 0.595936,-1.20884 0.728094,-6.28849 0.08589,-3.30124 0.277262,-6.12336 0.42527,-6.27136 0.148008,-0.14801 1.240265,-0.27016 2.427235,-0.27145 2.689892,-0.003 2.643995,-0.12484 2.691472,7.15015 0.03426,5.25117 0.05541,5.39605 0.828915,5.68134 1.018318,0.37557 5.899118,0.19358 6.328675,-0.23597 0.179768,-0.17977 0.421686,-3.21006 0.537594,-6.73398 0.210041,-6.38571 0.213561,-6.40783 1.054291,-6.61884 0.463952,-0.11644 0.935658,-0.11961 1.048233,-0.007 0.112579,0.11258 0.663663,-0.0327 1.224633,-0.32274 0.919134,-0.47531 1.041605,-0.47099 1.23909,0.0436 0.167033,0.43529 0.284713,0.465 0.494876,0.12494 0.535298,-0.86613 0.728497,1.97332 0.618254,9.08652 l -0.110229,7.11203 -1.086083,1.34087 c -0.597348,0.73747 -1.773255,1.70425 -2.613127,2.14838 -1.526004,0.80697 -1.537702,0.80752 -17.258359,0.79977 -14.453263,-0.007 -15.846209,-0.0599 -17.145458,-0.65017 z"
           style="fill:#29638e;stroke-width:0.35277778" />
      </g>
    </g>
  </g>
</svg>
