<?xml version="1.0" encoding="UTF-8" standalone="no"?>
<!-- Created with Inkscape (http://www.inkscape.org/) -->

<svg
   xmlns:dc="http://purl.org/dc/elements/1.1/"
   xmlns:cc="http://creativecommons.org/ns#"
   xmlns:rdf="http://www.w3.org/1999/02/22-rdf-syntax-ns#"
   xmlns:svg="http://www.w3.org/2000/svg"
   xmlns="http://www.w3.org/2000/svg"
   xmlns:sodipodi="http://sodipodi.sourceforge.net/DTD/sodipodi-0.dtd"
   xmlns:inkscape="http://www.inkscape.org/namespaces/inkscape"
   width="225.6069mm"
   height="58.043007mm"
   viewBox="0 0 799.39454 205.6642"
   id="svg4716"
   version="1.1"
   inkscape:version="0.91 r13725"
   sodipodi:docname="paypal.svg">
  <defs
     id="defs4718" />
  <sodipodi:namedview
     id="base"
     pagecolor="#ffffff"
     bordercolor="#666666"
     borderopacity="1.0"
     inkscape:pageopacity="0.0"
     inkscape:pageshadow="2"
     inkscape:zoom="0.35"
     inkscape:cx="-18.095378"
     inkscape:cy="-17.460807"
     inkscape:document-units="px"
     inkscape:current-layer="layer1"
     showgrid="false"
     fit-margin-top="0"
     fit-margin-left="0"
     fit-margin-right="0"
     fit-margin-bottom="0"
     inkscape:window-width="1280"
     inkscape:window-height="962"
     inkscape:window-x="-8"
     inkscape:window-y="-8"
     inkscape:window-maximized="1" />
  <metadata
     id="metadata4721">
    <rdf:RDF>
      <cc:Work
         rdf:about="">
        <dc:format>image/svg+xml</dc:format>
        <dc:type
           rdf:resource="http://purl.org/dc/dcmitype/StillImage" />
        <dc:title></dc:title>
      </cc:Work>
    </rdf:RDF>
  </metadata>
  <g
     inkscape:label="Layer 1"
     inkscape:groupmode="layer"
     id="layer1"
     transform="translate(42.618908,-309.23721)">
    <g
       id="g5293"
       transform="translate(4.2857145e-6,-14.285714)">
      <path
         style="fill:#a3d6f0"
         d="m -0.93177425,526.70358 c -1.95442625,-2.15962 -2.05355125,-3.34444 -0.85098125,-10.17155 0.7486162,-4.24995 1.06118375,-8.2125 0.694595,-8.80565 -0.3665887,-0.59315 -9.2570265,-1.07846 -19.7565285,-1.07846 -19.061281,0 -19.09251,-0.005 -20.755234,-3.11151 -2.254712,-4.21297 -1.226258,-12.52919 12.520073,-101.23908 10.610256,-68.4717 11.404785,-72.64956 14.382052,-75.62499 l 3.151361,-3.14942 40.907148,0 c 43.792542,0 50.054612,0.64508 62.362833,6.42429 14.431316,6.77608 21.876286,18.48887 22.699746,35.71236 0.50872,10.64015 0.62888,11.00383 4.64888,14.07003 2.26966,1.73116 5.6971,6.35742 7.61652,10.28059 3.02053,6.17374 3.47995,8.57072 3.41603,17.82289 -0.2719,39.35915 -25.55536,64.9406 -64.28545,65.04314 -4.96359,0.0131 -9.128938,0.70199 -10.556412,1.74579 -1.876016,1.37177 -3.182703,6.66673 -6.394562,25.91208 -3.430488,20.55535 -4.447168,24.52035 -6.76957,26.40092 -2.347368,1.90078 -5.418784,2.21291 -21.775614,2.21291 -17.3107637,0 -19.2439863,-0.22233 -21.25488625,-2.44434 z M 409.89286,527.64792 c -2.75207,-2.75206 -1.57042,-5.40135 9.346,-20.95404 l 10.84598,-15.45236 -11.76877,-34.62241 c -10.16933,-29.91699 -11.53763,-34.90094 -10.06794,-36.6718 1.37249,-1.65375 4.159,-2.04939 14.43388,-2.04939 8.32575,0 13.48508,0.54993 14.90581,1.58878 1.30372,0.95331 4.36435,9.00134 7.65211,20.12153 5.18841,17.54878 6.35689,20.65563 7.30964,19.43553 0.22369,-0.28647 5.91996,-8.67709 12.6584,-18.64584 6.73844,-9.96875 13.11135,-19.10938 14.16202,-20.3125 1.59525,-1.8267 4.10504,-2.1875 15.2166,-2.1875 13.31833,0 16.30627,0.86849 16.30627,4.73966 0,2.00154 -69.23743,102.58644 -72.24064,104.94784 -2.66913,2.0987 -26.671,2.15086 -28.75936,0.0625 z m -93.4215,-26.66677 c -7.60898,-2.81083 -13.77375,-8.57814 -17.68655,-16.54624 -3.08465,-6.28165 -3.51029,-8.5448 -3.46277,-18.41199 0.0644,-13.35932 3.02357,-22.17799 10.70153,-31.89135 13.526,-17.11167 38.67337,-23.64722 56.13356,-14.58856 6.10608,3.16795 6.24068,3.18131 7.54263,0.74859 1.21325,-2.26697 2.44767,-2.4469 14.56373,-2.12279 10.69774,0.28616 13.48782,0.75087 14.53922,2.42169 0.94783,1.50625 -0.14688,11.34792 -4.03215,36.25 -2.93328,18.80033 -5.86577,35.92767 -6.51663,38.06076 -1.57517,5.1623 -5.53256,6.74666 -16.85171,6.74666 -8.32709,0 -9.72114,-0.34814 -12.49286,-3.11986 l -3.11988,-3.11988 -6.51081,3.34132 c -8.07305,4.14305 -24.59144,5.26667 -32.80731,2.23165 z m 35.14475,-25.45364 c 9.31865,-4.23233 14.6184,-14.88793 11.90657,-23.9392 -2.52651,-8.43273 -10.09975,-11.96013 -20.7852,-9.68114 -11.55969,2.46544 -19.01082,15.41065 -15.34046,26.6517 2.82859,8.66295 13.63955,11.77362 24.21909,6.96864 z m 278.01866,26.27483 c -17.49828,-5.72679 -26.80611,-22.606 -23.65055,-42.88881 2.70391,-17.3798 15.44579,-33.87666 30.80291,-39.88046 10.99821,-4.29971 26.19116,-4.14601 35.2901,0.35701 6.6666,3.29925 6.8381,3.31817 8.50559,0.9375 1.48737,-2.12352 3.23635,-2.42966 13.88091,-2.42966 13.43184,0 15.19956,0.79523 15.14379,6.8125 -0.0849,9.15439 -11.1015,72.36005 -12.93113,74.18969 -1.2631,1.26309 -5.18561,2.08512 -11.65613,2.44276 -10.40599,0.57516 -16.6274,-0.9361 -16.6274,-4.03901 0,-2.65743 -1.61005,-2.4041 -9.10405,1.43245 -5.13918,2.63097 -8.63994,3.41816 -16.52095,3.7149 -5.5,0.20709 -11.40989,-0.0849 -13.13309,-0.64887 z m 33.80806,-26.78285 c 11.88783,-6.28643 15.21708,-25.06391 5.56511,-31.38812 -9.6073,-6.29495 -24.2616,-1.66184 -30.10168,9.51698 -2.73605,5.23722 -2.26942,15.01913 0.90925,19.06015 5.03241,6.39767 14.67533,7.54492 23.62732,2.81099 z m -465.06356,24.36878 -2.79055,-2.25965 8.96655,-56.80285 c 5.18479,-32.84559 9.72615,-57.96441 10.7676,-59.55694 2.58944,-3.9596 7.48805,-4.48052 35.90514,-3.81818 19.88801,0.46353 26.6905,1.06836 31.84727,2.8316 16.85918,5.76461 24.04016,20.27061 19.87891,40.15656 -2.93732,14.03699 -6.48456,20.90582 -14.7464,28.55485 -9.3188,8.62756 -17.49142,11.34965 -37.83706,12.60255 -16.98174,1.04574 -15.70444,-0.13529 -18.17145,16.80171 -3.33531,22.8981 -4.05974,23.75 -20.19607,23.75 -8.58683,0 -11.41208,-0.46859 -13.62394,-2.25965 z m 61.73512,-68.22067 c 2.98427,-1.2469 4.71917,-3.1747 6.20985,-6.90029 4.67493,-11.68379 1.20717,-17.90808 -10.81395,-19.41001 -12.1803,-1.52183 -11.92886,-1.88474 -15.31352,22.10312 l -0.83778,5.9375 8.30708,0 c 4.5689,0 10.17064,-0.77865 12.44832,-1.73032 z m 249.84097,69.19137 c -2.08368,-0.83754 -2.8125,-2.15269 -2.8125,-5.0751 0,-3.37814 15.21255,-103.02501 16.90547,-110.73604 1.41965,-6.46631 2.34915,-6.64991 33.66526,-6.64991 34.64602,0 39.17285,0.9377 48.2734,9.99946 8.53468,8.4983 10.53349,18.75485 6.76772,34.72739 -6.15657,26.11311 -21.96894,37.77315 -51.22482,37.77315 -8.1844,0 -13.39466,0.55231 -14.73978,1.5625 -1.45847,1.0953 -2.83134,6.27986 -4.59143,17.33917 -3.00087,18.85565 -3.29206,19.71488 -7.18267,21.19408 -3.8385,1.4594 -21.32864,1.36539 -25.06065,-0.1347 z m 54.82753,-67.48761 c 9.22072,-1.74867 12.60084,-5.32158 13.32782,-14.08802 0.70281,-8.47501 -0.95513,-11.66718 -6.92007,-13.32376 -6.38447,-1.77309 -14.72476,-1.64431 -16.2454,0.25084 -1.59265,1.98491 -5.62417,25.65556 -4.64062,27.24698 0.95247,1.54115 6.05815,1.51081 14.47827,-0.086 z m 149.54832,67.97501 c -1.20265,-0.34729 -2.5208,-1.96282 -2.92923,-3.5901 -0.93311,-3.71781 16.55604,-115.45325 18.42323,-117.70308 2.06701,-2.49058 23.975,-2.30176 26.07178,0.22472 1.97673,2.3818 0.97892,10.97387 -8.27372,71.24501 -5.67298,36.95345 -7.34416,45.44559 -9.346,47.49194 -1.9687,2.01247 -4.29658,2.53726 -12.09858,2.72745 -5.31346,0.12952 -10.64482,-0.0486 -11.84748,-0.39594 z"
         id="path5307"
         inkscape:connector-curvature="0" />
      <path
         style="fill:#97abcf"
         d="m 411.83036,527.7978 c -3.82422,-2.22741 -2.4208,-6.05608 7.02878,-19.17557 5.06897,-7.03756 9.83075,-13.94367 10.58174,-15.34691 1.11993,-2.0926 -0.6496,-8.43911 -9.8413,-35.29669 -6.1637,-18.00995 -11.20672,-33.81352 -11.20672,-35.11906 0,-3.70161 3.94717,-4.96165 15.54282,-4.96165 12.66109,0 14.39891,1.14114 17.418,11.43745 6.96659,23.75894 9.14909,30.30327 10.21326,30.62501 0.6605,0.19969 7.10717,-8.3978 14.32592,-19.10552 7.21875,-10.70773 14.23453,-20.25348 15.59063,-21.21277 1.64742,-1.16537 6.02735,-1.74417 13.19859,-1.74417 11.68071,0 15.8104,1.616 14.72608,5.7625 -0.34323,1.3125 -16.45023,25.23416 -35.79334,53.15925 -24.53651,35.42266 -36.02756,51.00285 -38.00813,51.5335 -4.57441,1.22563 -21.39303,0.83276 -23.77633,-0.55538 z M 1.6963457,526.4728 c -2.06508995,-1.20008 -2.22589495,-2.36947 -1.45584995,-10.58699 l 0.86566125,-9.23789 -19.34317,0 c -26.026868,0 -25.697388,0.24815 -23.410603,-17.6321 0.913947,-7.14609 6.82713,-45.84664 13.140406,-86.0012 11.386643,-72.4229 11.506908,-73.03258 14.998796,-76.03617 l 3.520111,-3.02788 42.62808,0.48053 c 39.087701,0.44062 43.273212,0.69631 50.39583,3.07867 21.251213,7.10806 30.276453,18.69077 30.329803,38.92434 l 0.0275,10.41117 5.5978,5.59782 c 9.44252,9.44251 11.83805,24.28082 6.984,43.26001 -3.22697,12.61729 -7.78615,21.2682 -15.02228,28.50433 -10.49487,10.49488 -23.213973,15.29494 -44.6677,16.85715 -8.439208,0.61452 -11.992929,1.39944 -13.406178,2.96107 -1.191694,1.31681 -3.116102,9.7065 -5.060317,22.06107 -4.072137,25.87652 -5.021429,29.12445 -8.94879,30.61764 -4.307428,1.63767 -34.2777392,1.45097 -37.1730492,-0.23157 z M 322.57254,501.59615 c -16.99362,-3.36207 -26.67968,-16.08307 -26.67968,-35.03923 0,-28.11408 20.95488,-49.909 47.98536,-49.909 9.63826,0 15.57984,1.45074 20.79939,5.07854 3.07521,2.13738 3.23153,2.11556 5.84291,-0.8162 2.45424,-2.75533 3.62977,-3.01234 13.77775,-3.01234 12.196,0 14.09459,0.89411 14.09459,6.63764 0,3.52797 -9.41168,64.85658 -10.83187,70.58283 -1.08142,4.3604 -4.47422,5.40874 -16.23207,5.01557 -9.2881,-0.31059 -10.99004,-0.7104 -12.17898,-2.86104 -0.76015,-1.375 -1.5199,-2.73156 -1.68832,-3.01458 -0.16843,-0.28301 -2.98093,0.93392 -6.25,2.70428 -3.26908,1.77036 -9.28145,3.83005 -13.36084,4.57707 -8.20966,1.50337 -7.9693,1.50248 -15.27824,0.0565 z m 25.19532,-23.84706 c 10.26097,-2.84206 16.875,-11.06108 16.875,-20.97 0,-7.0997 -1.8445,-11.01836 -6.53134,-13.87592 -9.39013,-5.72515 -24.00511,-1.3941 -29.34024,8.69477 -5.88981,11.13782 -2.38637,23.30519 7.53771,26.17835 5.37329,1.55565 5.74733,1.55477 11.45887,-0.0273 z m 284.48197,22.59373 c -28.2342,-5.80599 -33.9433,-46.0994 -9.85441,-69.54998 8.4207,-8.19757 17.24401,-12.01006 29.27857,-12.65106 10.71937,-0.57095 17.32088,0.83409 23.16183,4.92965 4.27481,2.99742 5.1993,2.93033 6.69812,-0.48601 1.13098,-2.57787 2.18264,-2.84227 12.60652,-3.1694 8.67193,-0.27214 11.72487,0.0676 12.85605,1.43056 1.16137,1.39937 0.25268,9.56444 -4.1851,37.60594 -3.1177,19.70017 -5.66855,36.03186 -5.66855,36.29266 0,0.26079 -0.88393,1.3581 -1.96429,2.43845 -1.46743,1.46743 -4.56601,1.96429 -12.25,1.96429 -10.68016,0 -13.28571,-1.05004 -13.28571,-5.35416 0,-1.2948 -0.42188,-2.16668 -0.9375,-1.9375 -0.51563,0.22916 -4.59375,2.21643 -9.0625,4.41617 -9.02127,4.4407 -18.64104,5.87013 -27.39303,4.07039 z m 32.6516,-23.8618 c 13.8797,-6.9761 15.60884,-30.21454 2.65108,-35.62864 -9.16699,-3.83021 -19.63915,-1.3844 -26.23435,6.12713 -16.69957,19.01975 0.82385,40.94067 23.58327,29.50151 z m -466.25857,22.4169 c -0.825,-0.825 -1.49722,-2.65313 -1.49382,-4.0625 0.004,-1.40937 3.90932,-27.30987 8.67982,-57.55666 7.75048,-49.14103 8.96192,-55.22759 11.3823,-57.1875 2.38401,-1.93045 5.75602,-2.19334 28.13365,-2.19334 34.07403,0 43.48541,2.18555 51.55188,11.97157 7.26989,8.81963 8.36187,23.86707 2.87508,39.61858 -7.21604,20.71585 -20.96549,29.37853 -48.56421,30.59728 -8.83534,0.39016 -15.7865,1.26003 -16.43632,2.05683 -0.61931,0.7594 -2.29525,8.63506 -3.7243,17.50148 -1.66136,10.3078 -3.35428,16.95612 -4.69491,18.4375 -1.7653,1.95062 -4.00197,2.31676 -14.15291,2.31676 -7.71043,0 -12.59696,-0.5407 -13.55626,-1.5 z m 60.91115,-66.93944 c 6.4105,-3.2688 9.10748,-7.71851 9.22053,-15.21285 0.14457,-9.58248 -2.62346,-11.82892 -15.2839,-12.40386 -8.72192,-0.39607 -9.92883,-0.18245 -10.54753,1.86695 -1.41652,4.69206 -4.40458,25.91365 -3.78897,26.90973 1.20608,1.95146 15.94109,1.11361 20.39987,-1.15997 z m 250.22411,65.47742 c -2.03864,-2.45641 15.42846,-112.91996 18.37365,-116.19666 1.89825,-2.11191 4.26432,-2.25293 31.45936,-1.875 27.57024,0.38316 29.79608,0.58814 35.64115,3.28224 12.35323,5.69382 16.81891,12.92533 16.86313,27.30726 0.0498,16.18518 -7.13362,32.65429 -17.32272,39.71534 -9.17025,6.35499 -17.03602,8.50126 -33.67121,9.1876 -13.93667,0.575 -15.5547,0.88556 -17.06624,3.27573 -0.91842,1.45228 -2.67772,9.60051 -3.90956,18.10717 -1.25216,8.64694 -2.99849,16.22543 -3.96056,17.1875 -2.41588,2.41588 -24.40323,2.42323 -26.407,0.009 z m 60.32001,-63.76151 c 5.3848,-2.24991 9.13425,-7.14756 10.17135,-13.28611 2.10046,-12.43248 -3.01857,-17.47803 -17.74035,-17.48568 -4.9438,-0.003 -9.32812,0.54446 -9.74292,1.21563 -1.04253,1.68684 -4.34483,22.24701 -4.37153,27.21719 l -0.0218,4.0625 8.79015,0 c 4.83457,0 10.64638,-0.77559 12.91512,-1.72353 z m 143.52354,63.87424 c -0.95543,-1.15122 1.10825,-17.17315 7.36595,-57.1875 4.78127,-30.57352 9.23512,-56.85384 9.89744,-58.40071 1.12878,-2.63635 1.95207,-2.8125 13.14523,-2.8125 9.20132,0 12.0984,0.41011 12.62695,1.78749 0.37727,0.98312 -0.1775,6.18625 -1.2328,11.5625 -1.0553,5.37626 -5.11057,30.30626 -9.01172,55.40001 -3.90115,25.09375 -7.87701,46.89062 -8.83525,48.4375 -1.58163,2.55321 -2.70501,2.8125 -12.18538,2.8125 -6.95768,0 -10.88611,-0.53378 -11.77042,-1.59929 z"
         id="path5305"
         inkscape:connector-curvature="0" />
      <path
         style="fill:#0c9edd"
         d="m 410.93829,526.07767 c -1.77246,-2.1357 -2.35162,-1.07012 10.75015,-19.77889 l 10.31134,-14.72414 -11.23752,-33.30111 c -6.18064,-18.31561 -11.07032,-34.471 -10.86597,-35.90086 0.3428,-2.39846 1.3049,-2.62733 12.42612,-2.95591 9.56872,-0.28272 12.45426,0.0435 13.99285,1.58212 1.06606,1.06606 3.33402,6.57009 5.03991,12.23116 1.7059,5.66109 4.32327,14.371 5.81641,19.35538 1.49313,4.98437 3.39321,9.0625 4.22241,9.0625 0.8292,0 7.82832,-9.27623 15.55359,-20.61383 9.27845,-13.61703 14.9835,-20.84886 16.80811,-21.30631 1.51919,-0.38087 7.54342,-0.52652 13.38717,-0.32367 10.41128,0.3614 10.62437,0.43166 10.59373,3.49381 -0.0202,2.02206 -12.09906,20.55136 -34.22358,52.5 -18.80579,27.15625 -35.0711,50.07812 -36.14515,50.9375 -2.91699,2.33395 -24.45295,2.12392 -26.42957,-0.25775 z M 0.0950095,524.77323 c -0.3956625,-1.03107 -0.111275,-5.32702 0.631985,-9.54653 0.7432525,-4.21953 1.0514338,-8.15717 0.684845,-8.75032 -0.3665887,-0.59315 -9.5258175,-1.07846 -20.3538415,-1.07846 -14.4286,0 -20.295867,-0.44499 -21.965575,-1.6659 -2.178104,-1.59268 -1.690547,-5.39801 11.090774,-86.5625 10.054212,-63.84669 13.92496,-85.67144 15.611145,-88.0216 l 2.242113,-3.125 39.240701,-0.35144 c 43.107343,-0.38608 51.635178,0.40745 63.210814,5.88186 14.72614,6.96436 21.93876,18.44096 21.92415,34.8853 l -0.009,9.58428 6.01665,6.37879 c 9.57039,10.14642 11.92434,21.70347 8.09871,39.76176 -6.51446,30.75045 -24.77677,46.13729 -56.854094,47.9022 -18.687037,1.02817 -18.47996,0.76042 -22.975302,29.70725 -2.265428,14.58776 -4.186932,23.26925 -5.464171,24.6875 -1.713859,1.90307 -4.469071,2.1875 -21.190496,2.1875 -15.9303538,0 -19.34364,-0.32091 -19.9398825,-1.87469 z M 319.41854,499.98163 c -16.23086,-4.58529 -25.3129,-21.37357 -22.15852,-40.96045 2.55721,-15.87882 11.56542,-28.87245 25.10667,-36.21435 7.64483,-4.14494 8.35022,-4.28391 21.74245,-4.28391 13.05199,0 14.14153,0.19869 19.10629,3.48421 5.21149,3.4488 7.67743,3.55343 7.67743,0.32575 0,-2.52614 2.96301,-3.18496 14.32417,-3.18496 6.92056,0 10.81304,0.53417 11.70256,1.60597 1.87095,2.25438 -9.27476,73.14121 -11.98215,76.20653 -1.56677,1.77394 -4.02977,2.1875 -13.02755,2.1875 -11.58511,0 -11.16687,0.18931 -12.94237,-5.85843 -0.28561,-0.97283 -3.36358,0.009 -8.94259,2.85297 -9.98561,5.09005 -21.19942,6.49667 -30.60639,3.83917 z m 37.06082,-25.0946 c 12.45192,-9.49755 12.30125,-28.82096 -0.26569,-34.07177 -14.55401,-6.08105 -31.57081,5.7309 -31.57081,21.91438 0,11.60945 5.92983,16.66204 18.88793,16.09369 6.83998,-0.3 9.06987,-0.97787 12.94857,-3.9363 z m 268.07513,22.07339 c -26.73186,-13.53995 -20.68378,-59.32005 9.81973,-74.32906 7.69469,-3.78613 9.2831,-4.10534 20.2467,-4.06893 12.00469,0.0399 14.33695,0.70738 22.17667,6.3472 2.64238,1.9009 2.85305,1.83883 4.26315,-1.256 1.45027,-3.18299 1.75514,-3.25571 13.64903,-3.25571 8.59746,0 12.33152,0.45828 12.73129,1.5625 0.99063,2.73636 -10.82689,73.00767 -12.63875,75.15465 -1.32627,1.57155 -4.03517,2.03285 -11.9375,2.03285 -10.54852,0 -13.22195,-1.06154 -13.22195,-5.25 0,-2.92951 -1.90219,-2.84591 -6.28695,0.27631 -5.83178,4.15259 -13.49265,6.22369 -23.02107,6.22369 -7.33272,0 -10.24707,-0.63484 -15.78035,-3.4375 z m 35.36205,-17.86751 c 17.07842,-4.74314 23.23835,-29.03023 9.48904,-37.41295 -5.54374,-3.37992 -15.69379,-3.38327 -22.31112,-0.007 -12.99103,6.62753 -16.7847,27.4582 -6.34902,34.86178 5.44838,3.86535 11.53893,4.67818 19.1711,2.55852 z m -460.69035,19.22167 c -0.45833,-0.45832 -0.84935,-2.0052 -0.86892,-3.4375 -0.0913,-6.67731 16.81824,-110.42606 18.41947,-113.01336 l 1.80047,-2.9092 30.22032,0.42022 c 28.62123,0.39798 30.56806,0.5768 36.79193,3.37954 14.95222,6.7333 19.94877,21.0546 14.57756,41.78278 -2.54469,9.82027 -4.57168,13.6334 -10.8925,20.49067 -9.2525,10.03779 -21.08993,14.12019 -40.94319,14.12019 -14.87847,0 -15.18325,0.32898 -18.07402,19.51014 -3.13253,20.78518 -2.87402,20.48986 -17.93494,20.48986 -6.74456,0 -12.63785,-0.375 -13.09618,-0.83334 z m 62.64114,-66.07775 c 5.09015,-3.00682 7.77553,-8.70441 7.77553,-16.49744 0,-4.99851 -0.6054,-6.72442 -3.22045,-9.18115 -2.72977,-2.56447 -4.72459,-3.09376 -13.09218,-3.47376 -9.38614,-0.42624 -9.93184,-0.30351 -11.09396,2.49508 -1.6888,4.06692 -5.11551,27.52133 -4.23018,28.95383 1.26143,2.04104 19.48795,0.2868 23.86124,-2.29656 z m 248.04979,65.34859 c -0.89636,-1.0926 1.3001,-17.9149 7.30369,-55.9375 4.72205,-29.90625 8.8929,-55.62439 9.26855,-57.15143 1.27893,-5.19877 4.29096,-5.64989 33.63227,-5.03725 31.38673,0.65537 36.62308,1.79053 44.47384,9.64129 5.91279,5.91279 8.13604,13.60097 7.19141,24.86845 -1.35609,16.17538 -7.09357,27.51726 -18.2539,36.08439 -7.19292,5.52159 -15.66991,7.7577 -32.93171,8.68695 -11.14296,0.59986 -15.08724,1.26921 -16.41743,2.78607 -0.96295,1.09809 -2.89326,9.19374 -4.28958,17.99034 -1.39633,8.7966 -3.21799,16.81223 -4.04814,17.8125 -1.98924,2.39689 -23.99444,2.61432 -25.929,0.25619 z m 61.92466,-64.68075 c 5.83379,-3.5569 9.04083,-9.46495 9.0464,-16.6654 0.007,-8.89356 -4.17187,-12.6942 -15.26312,-13.88196 -9.30267,-0.99624 -13.0807,0.24751 -14.09208,4.63918 -1.70936,7.42255 -4.24664,26.37233 -3.65852,27.32392 0.36627,0.59262 4.99212,1.07541 10.27967,1.07283 7.38695,-0.004 10.55735,-0.58 13.68765,-2.48857 z m 142.38441,65.40991 c -1.54848,-1.54849 -0.83991,-7.17155 7.83323,-62.1625 5.66156,-35.89641 9.2255,-55.24451 10.30632,-55.95142 2.5659,-1.67824 23.62503,-1.00206 24.30907,0.78054 0.31668,0.82526 -0.28034,5.67226 -1.32672,10.7711 -1.04638,5.09885 -5.27685,30.64401 -9.40103,56.76703 -5.92144,37.507 -7.94898,47.8258 -9.64028,49.0625 -2.23775,1.63629 -20.56874,2.2446 -22.08059,0.73275 z"
         id="path5303"
         inkscape:connector-curvature="0" />
      <path
         style="fill:#4e6fad"
         d="m 410.93829,526.07767 c -1.77246,-2.1357 -2.35162,-1.07012 10.75015,-19.77889 l 10.31134,-14.72414 -11.23752,-33.30111 c -6.18064,-18.31561 -11.07032,-34.471 -10.86597,-35.90086 0.3428,-2.39846 1.3049,-2.62733 12.42612,-2.95591 9.56872,-0.28272 12.45426,0.0435 13.99285,1.58212 1.06606,1.06606 3.33402,6.57009 5.03991,12.23116 1.7059,5.66109 4.32327,14.371 5.81641,19.35538 1.49313,4.98437 3.39321,9.0625 4.22241,9.0625 0.8292,0 7.82832,-9.27623 15.55359,-20.61383 9.27845,-13.61703 14.9835,-20.84886 16.80811,-21.30631 1.51919,-0.38087 7.54342,-0.52652 13.38717,-0.32367 10.41128,0.3614 10.62437,0.43166 10.59373,3.49381 -0.0202,2.02206 -12.09906,20.55136 -34.22358,52.5 -18.80579,27.15625 -35.0711,50.07812 -36.14515,50.9375 -2.91699,2.33395 -24.45295,2.12392 -26.42957,-0.25775 z M -40.907577,503.73202 c -2.178104,-1.59267 -1.690547,-5.39801 11.090774,-86.5625 10.054212,-63.84669 13.92496,-85.67144 15.611145,-88.0216 l 2.242113,-3.125 39.240701,-0.35144 c 43.107343,-0.38608 51.635178,0.40745 63.210814,5.88186 9.170374,4.3369 14.94361,10.0349 18.88071,18.63467 2.57158,5.61707 3.06076,8.61471 3.07351,18.83426 0.0335,26.78262 -12.709421,49.45017 -34.12563,60.70406 -11.115534,5.84105 -21.10206,7.86817 -44.019889,8.93535 -17.11077,0.79679 -18.684269,1.07345 -20.703374,3.64033 -1.531504,1.947 -3.440497,10.95849 -6.3815675,30.12446 -2.3080113,15.04055 -4.6600225,28.61207 -5.22669,30.15895 -1.0091925,2.75486 -1.43587625,2.8125 -20.8223325,2.8125 -14.515834,0 -20.399368,-0.4441 -22.070284,-1.6659 z m 360.326117,-3.75039 c -16.23086,-4.58529 -25.3129,-21.37357 -22.15852,-40.96045 2.55721,-15.87882 11.56542,-28.87245 25.10667,-36.21435 7.64483,-4.14494 8.35022,-4.28391 21.74245,-4.28391 13.05199,0 14.14153,0.19869 19.10629,3.48421 5.21149,3.4488 7.67743,3.55343 7.67743,0.32575 0,-2.52614 2.96301,-3.18496 14.32417,-3.18496 6.92056,0 10.81304,0.53417 11.70256,1.60597 1.87095,2.25438 -9.27476,73.14121 -11.98215,76.20653 -1.56677,1.77394 -4.02977,2.1875 -13.02755,2.1875 -11.58511,0 -11.16687,0.18931 -12.94237,-5.85843 -0.28561,-0.97283 -3.36358,0.009 -8.94259,2.85297 -9.98561,5.09005 -21.19942,6.49667 -30.60639,3.83917 z m 37.06082,-25.0946 c 12.45192,-9.49755 12.30125,-28.82096 -0.26569,-34.07177 -14.55401,-6.08105 -31.57081,5.7309 -31.57081,21.91438 0,11.60945 5.92983,16.66204 18.88793,16.09369 6.83998,-0.3 9.06987,-0.97787 12.94857,-3.9363 z m -157.25317,23.42755 c -0.45833,-0.45832 -0.84935,-2.0052 -0.86892,-3.4375 -0.0913,-6.67731 16.81824,-110.42606 18.41947,-113.01336 l 1.80047,-2.9092 30.22032,0.42022 c 28.62123,0.39798 30.56806,0.5768 36.79193,3.37954 14.95222,6.7333 19.94877,21.0546 14.57756,41.78278 -2.54469,9.82027 -4.57168,13.6334 -10.8925,20.49067 -9.2525,10.03779 -21.08993,14.12019 -40.94319,14.12019 -14.87847,0 -15.18325,0.32898 -18.07402,19.51014 -3.13253,20.78518 -2.87402,20.48986 -17.93494,20.48986 -6.74456,0 -12.63785,-0.375 -13.09618,-0.83334 z m 62.64114,-66.07775 c 5.09015,-3.00682 7.77553,-8.70441 7.77553,-16.49744 0,-4.99851 -0.6054,-6.72442 -3.22045,-9.18115 -2.72977,-2.56447 -4.72459,-3.09376 -13.09218,-3.47376 -9.38614,-0.42624 -9.93184,-0.30351 -11.09396,2.49508 -1.6888,4.06692 -5.11551,27.52133 -4.23018,28.95383 1.26143,2.04104 19.48795,0.2868 23.86124,-2.29656 z"
         id="path5301"
         inkscape:connector-curvature="0" />
      <path
         style="fill:#1f519c"
         d="m 411.51786,525.39792 c -0.94804,-1.53395 -1.12077,-1.24253 10.85092,-18.307 5.37574,-7.6626 9.77408,-15.06368 9.77408,-16.44684 0,-1.38317 -4.78125,-16.4166 -10.625,-33.40761 -5.84375,-16.99101 -10.625,-32.23056 -10.625,-33.86565 0,-2.9214 0.20521,-2.9729 11.84618,-2.9729 14.42558,0 13.45877,-1.08 20.70144,23.125 5.25753,17.57065 6.83633,21.15327 8.78983,19.94595 0.5798,-0.35834 7.56776,-10.19589 15.52878,-21.86124 l 14.47459,-21.20971 12.45459,0 c 11.18565,0 12.45459,0.23052 12.45459,2.26259 0,2.13347 -63.51602,95.15261 -69.08499,101.17491 -2.33699,2.52723 -3.77573,2.8125 -14.18414,2.8125 -6.37386,0 -11.93077,-0.56218 -12.35587,-1.25 z M -42.163664,502.00063 c -0.830077,-2.16315 0.168404,-9.64177 1.799427,-13.47771 0.584644,-1.375 6.500376,-37.375 13.146071,-80 8.809462,-56.50324 12.631038,-78.11206 14.105612,-79.75913 1.891915,-2.11324 4.851376,-2.23176 45.82647,-1.83528 41.360898,0.40022 44.26778,0.57922 52.120603,3.20954 10.039038,3.36259 19.552951,11.36085 23.697451,19.92223 3.68762,7.61763 4.53315,28.56985 1.57472,39.02229 -6.82761,24.12275 -25.50182,42.06546 -48.868744,46.95446 -4.632698,0.96929 -16.718336,2.14861 -26.856975,2.62073 -15.832366,0.73725 -18.736289,1.19253 -20.57663,3.2261 -1.51258,1.67137 -3.343874,9.98046 -6.2269552,28.25337 -2.2463175,14.23713 -4.4174238,27.7346 -4.82468,29.99439 l -0.7404663,4.1087 -21.7160515,-0.15069 c -18.372347,-0.12748 -21.830577,-0.44914 -22.459852,-2.089 z m 360.833754,-3.36444 c -11.2405,-3.66856 -19.07116,-13.79082 -20.93852,-27.06608 -2.54664,-18.10432 9.398,-40.51108 25.83071,-48.45539 12.64763,-6.11444 30.44711,-5.94985 39.9968,0.36983 5.84534,3.86826 6.4206,3.89357 7.97486,0.35087 1.12739,-2.56969 2.19532,-2.84393 12.36985,-3.17656 6.12478,-0.20023 11.61603,0.116 12.20279,0.70278 1.28514,1.28514 -9.89914,72.74197 -11.73472,74.97378 -1.40643,1.71 -23.40447,2.2932 -23.57464,0.625 -0.24845,-2.43541 -1.01678,-5.59159 -1.47203,-6.04683 -0.27788,-0.27788 -4.47543,1.53173 -9.3279,4.02136 -10.30158,5.28539 -22.17507,6.68823 -31.3272,3.70125 z m 34.46007,-20.61662 c 19.27621,-9.88543 18.2857,-36.50979 -1.4776,-39.71694 -6.81929,-1.10661 -15.53753,1.87311 -20.7597,7.09529 -7.56542,7.56541 -9.53304,20.42827 -4.33779,28.35722 4.29014,6.54757 17.87291,8.72715 26.57509,4.26443 z m -153.76432,18.31585 c -0.68957,-1.97885 16.84259,-112.26723 18.1818,-114.375 1.54514,-2.43189 54.56792,-2.17827 62.91632,0.30094 8.93345,2.65295 14.3651,6.68453 17.7121,13.14665 2.58267,4.98639 2.84408,6.87421 2.33537,16.86491 -0.7922,15.55835 -4.24341,24.20197 -13.25936,33.20841 -9.23258,9.22284 -14.97776,11.20095 -35.53388,12.23456 -19.92207,1.00174 -19.45902,0.57287 -22.60735,20.93919 -1.26408,8.17732 -2.8063,15.85221 -3.42713,17.05534 -0.95933,1.85906 -2.97894,2.1875 -13.45109,2.1875 -8.73411,0 -12.48084,-0.45499 -12.86678,-1.5625 z m 62.57282,-62.7069 c 7.64318,-3.95245 11.6598,-18.81155 6.91583,-25.58451 -1.1211,-1.60059 -3.91553,-3.6945 -6.20985,-4.65313 -5.61152,-2.34465 -18.47943,-2.30474 -20.44482,0.0634 -2.44371,2.9445 -6.37228,29.72715 -4.66309,31.79021 1.91585,2.31251 18.99185,1.18167 24.40193,-1.61598 z"
         id="path5299"
         inkscape:connector-curvature="0" />
      <path
         style="fill:#002f86"
         d="m 412.57884,523.56473 c 0.3869,-1.00825 5.22834,-8.23643 10.75874,-16.06264 5.5304,-7.82621 10.05528,-15.18835 10.05528,-16.36032 0,-1.17196 -5.0625,-17.06804 -11.25,-35.32461 -6.1875,-18.25657 -11.25,-33.41324 -11.25,-33.6815 0,-0.26825 5.27487,-0.48774 11.72195,-0.48774 7.88532,0 12.1263,0.51141 12.95736,1.5625 0.67949,0.85937 3.80674,10.21775 6.94945,20.7964 3.14271,10.57864 6.21784,19.7377 6.83361,20.35347 2.26888,2.26888 4.96613,-0.79921 18.92803,-21.53047 l 14.26538,-21.1819 12.29712,0 c 6.7634,0 12.2971,0.33006 12.2971,0.73346 0,0.85818 -62.46253,91.41221 -67.82557,98.32904 l -3.63451,4.6875 -11.9037,0 c -9.94682,0 -11.78805,-0.30136 -11.20024,-1.83319 z M -42.14014,501.79678 c -0.301314,-0.48753 -0.224641,-3.29609 0.170384,-6.24121 0.395026,-2.94514 1.091162,-4.75137 1.546969,-4.01386 0.455807,0.73751 6.570658,-35.02875 13.588558,-79.48058 7.017899,-44.45181 13.383827,-81.57338 14.146507,-82.49235 2.15208,-2.5931 81.141686,-2.35603 92.313661,0.27706 10.103705,2.38131 17.241443,6.49749 23.065131,13.30117 15.39545,17.98612 8.43567,59.09103 -13.158788,77.71672 -12.872106,11.10248 -28.482439,15.78419 -52.629526,15.78419 -17.675062,0 -23.847243,1.54186 -26.010198,6.49755 -0.9476773,2.17129 -9.999701,55.77152 -9.999701,59.21176 0,0.99025 -42.416022,0.43784 -43.032997,-0.56045 z m 360.38933,-4.37338 c -7.57661,-2.70759 -12.03696,-6.74975 -15.71666,-14.24314 -6.65751,-13.55747 -3.94977,-33.23617 6.44674,-46.85207 7.15937,-9.37633 22.58254,-17.18027 33.95394,-17.18027 7.28681,0 16.69703,2.65079 20.36408,5.73641 4.5822,3.85567 7.35054,3.8208 8.84557,-0.11137 1.1462,-3.01473 1.58622,-3.125 12.46906,-3.125 6.32681,0 11.28094,0.52384 11.28094,1.19282 0,0.65605 -2.51968,17.10826 -5.59929,36.56047 -4.35066,27.48075 -6.07641,35.71653 -7.73891,36.93217 -2.18955,1.60104 -16.12557,2.17151 -19.68457,0.8058 -1.1725,-0.44992 -1.97723,-2.23055 -1.97723,-4.375 0,-4.5209 -2.45919,-4.71394 -7.8959,-0.61977 -8.58578,6.46558 -24.61352,8.90057 -34.74777,5.27898 z m 34.52939,-18.10671 c 11.99883,-5.45095 18.46704,-19.67145 13.90924,-30.57978 -6.78094,-16.22908 -31.38581,-15.19728 -40.76301,1.70939 -4.06707,7.33274 -4.32155,18.17947 -0.54727,23.32536 5.58824,7.61905 17.5204,10.03371 27.40104,5.54503 z m -151.53676,17.57335 c -1.16544,-0.74047 0.51609,-13.88948 7.11616,-55.64646 4.7532,-30.07228 8.99345,-55.78361 9.42276,-57.13627 0.74619,-2.351 2.03509,-2.45939 29.24769,-2.45939 30.26855,0 36.28396,0.85224 43.8022,6.20569 2.12785,1.51516 5.05079,5.0717 6.49543,7.90341 2.28175,4.4726 2.55107,6.717 2.05133,17.09492 -0.73722,15.31002 -4.79163,25.11793 -13.69081,33.11906 -8.40239,7.55446 -14.88279,9.57221 -33.8452,10.53808 -20.49666,1.04403 -20.24777,0.8241 -23.50101,20.7673 -3.00965,18.44994 -3.17085,18.93823 -6.55141,19.8445 -4.00869,1.07469 -18.7531,0.90904 -20.54714,-0.23084 z m 60.66525,-62.36332 c 8.36136,-4.08711 12.81426,-18.01673 8.45454,-26.44751 -2.32464,-4.49534 -6.89482,-6.46698 -16.92394,-7.30119 -11.67924,-0.97147 -13.20776,0.57919 -15.64329,15.8699 -2.51001,15.75831 -2.4556,19.65209 0.28598,20.46651 4.26321,1.26645 19.27796,-0.36423 23.82671,-2.58771 z"
         id="path5297"
         inkscape:connector-curvature="0" />
      <path
         style="fill:#002069"
         d="m 12.167598,437.09416 c 0.01361,-0.58919 2.213813,-14.75318 4.889344,-31.47554 3.524124,-22.02615 5.465153,-31.0679 7.043994,-32.8125 2.047781,-2.26278 4.189933,-2.4082 35.473032,-2.4082 26.051727,0 34.914164,0.42186 40.743762,1.93946 4.09758,1.0667 7.98749,2.47595 8.64428,3.13165 0.75882,0.75759 0.68726,3.58208 -0.19634,7.74804 -3.83536,18.08302 -12.642551,32.23136 -25.343051,40.71244 -12.338076,8.23905 -20.936782,10.393 -45.654762,11.43639 -11.6875,0.49334 -22.234375,1.32506 -23.4375,1.84824 -1.203125,0.52319 -2.176366,0.46919 -2.162759,-0.12 z"
         id="path5295"
         inkscape:connector-curvature="0" />
    </g>
  </g>
</svg>
