<?xml version="1.0" encoding="UTF-8" standalone="no"?>
<!-- Created with Inkscape (http://www.inkscape.org/) -->

<svg
   xmlns:dc="http://purl.org/dc/elements/1.1/"
   xmlns:cc="http://creativecommons.org/ns#"
   xmlns:rdf="http://www.w3.org/1999/02/22-rdf-syntax-ns#"
   xmlns:svg="http://www.w3.org/2000/svg"
   xmlns="http://www.w3.org/2000/svg"
   xmlns:sodipodi="http://sodipodi.sourceforge.net/DTD/sodipodi-0.dtd"
   xmlns:inkscape="http://www.inkscape.org/namespaces/inkscape"
   width="67.420174mm"
   height="55.46294mm"
   viewBox="0 0 67.420174 55.46294"
   version="1.1"
   id="svg3847"
   inkscape:version="0.92.0 r15299"
   sodipodi:docname="twitter.svg">
  <defs
     id="defs3841" />
  <sodipodi:namedview
     id="base"
     pagecolor="#ffffff"
     bordercolor="#666666"
     borderopacity="1.0"
     inkscape:pageopacity="0.0"
     inkscape:pageshadow="2"
     inkscape:zoom="0.35"
     inkscape:cx="575.402"
     inkscape:cy="117.91448"
     inkscape:document-units="mm"
     inkscape:current-layer="layer1"
     showgrid="false"
     fit-margin-top="0"
     fit-margin-left="0"
     fit-margin-right="0"
     fit-margin-bottom="0"
     inkscape:window-width="1920"
     inkscape:window-height="1018"
     inkscape:window-x="-8"
     inkscape:window-y="-8"
     inkscape:window-maximized="1" />
  <metadata
     id="metadata3844">
    <rdf:RDF>
      <cc:Work
         rdf:about="">
        <dc:format>image/svg+xml</dc:format>
        <dc:type
           rdf:resource="http://purl.org/dc/dcmitype/StillImage" />
        <dc:title></dc:title>
      </cc:Work>
    </rdf:RDF>
  </metadata>
  <g
     inkscape:label="Layer 1"
     inkscape:groupmode="layer"
     id="layer1"
     transform="translate(46.408446,-124.5686)">
    <g
       id="g3860"
       transform="translate(-125.4881,9.0714286)">
      <path
         style="fill:#cfecf5;stroke-width:0.35277778"
         d="m 94.645228,170.7692 c -5.37921,-0.87009 -12.889457,-3.55329 -14.904862,-5.32509 -1.263142,-1.11047 -0.767441,-1.4917 1.940278,-1.49221 5.004635,-0.001 10.942469,-1.55265 14.506901,-3.79102 l 1.36593,-0.85776 -2.366585,-0.82695 c -3.716578,-1.29868 -6.842309,-4.10104 -8.375859,-7.50934 -0.877213,-1.9496 -0.445756,-2.64978 1.444858,-2.34475 1.272255,0.20526 1.272962,0.20465 0.499215,-0.43416 -0.426165,-0.35183 -1.347007,-1.03658 -2.046315,-1.52165 -1.461575,-1.0138 -3.877293,-4.33798 -4.561274,-6.27659 -0.256606,-0.7273 -0.576816,-2.12405 -0.711579,-3.1039 -0.320107,-2.32745 0.195862,-2.85631 2.036415,-2.08727 1.991354,0.83204 2.12369,0.65046 0.794574,-1.09023 -1.948265,-2.55156 -2.763109,-5.09836 -2.754339,-8.60867 0.0081,-3.22652 1.025683,-6.80152 2.047677,-7.1937 0.345389,-0.13253 1.695974,0.89364 3.870728,2.94099 6.191477,5.82875 12.060921,8.8965 19.984349,10.44509 3.66308,0.71593 4.23223,0.59083 3.94082,-0.86622 -0.63014,-3.15068 1.61038,-8.85315 4.53911,-11.55276 5.09858,-4.6997 13.37502,-5.05983 18.68136,-0.81287 0.71622,0.57324 1.59004,1.04225 1.9418,1.04225 0.75121,0 4.77773,-1.42449 6.40474,-2.26585 0.62242,-0.32186 1.28576,-0.48998 1.47409,-0.37358 0.82724,0.51126 0.10045,2.66266 -1.69934,5.03028 -0.48337,0.63587 -0.81703,1.21697 -0.74147,1.29134 0.0756,0.0744 0.77239,-0.0863 1.5485,-0.35707 1.96371,-0.68506 2.99948,-0.64547 2.99486,0.11446 -0.005,0.80859 -2.16851,3.48426 -4.49416,5.55781 -1.81856,1.62143 -1.85221,1.68745 -1.85907,3.6471 -0.0276,7.88639 -3.40482,17.26941 -8.71772,24.22078 -5.63158,7.36834 -14.47951,12.64901 -23.70245,14.14621 -2.74984,0.44639 -10.914696,0.60576 -13.081182,0.25533 z"
         id="path3874"
         inkscape:connector-curvature="0" />
      <path
         style="fill:#a9daec;stroke-width:0.35277778"
         d="m 93.939673,170.30239 c -3.480263,-0.59146 -7.498058,-1.9029 -10.626006,-3.46841 -1.809782,-0.90578 -3.347526,-1.84531 -3.417208,-2.08785 -0.09275,-0.32282 0.534482,-0.44097 2.341115,-0.44097 3.222423,0 7.080986,-0.75589 10.327336,-2.02313 4.427,-1.72811 6.790657,-3.62131 4.521198,-3.62131 -1.125717,0 -5.002646,-1.90954 -6.441034,-3.17246 -1.703525,-1.49572 -3.358445,-3.899 -3.634154,-5.27755 l -0.214998,-1.07499 h 1.787166 c 0.982942,0 1.871584,-0.13659 1.974762,-0.30353 0.103177,-0.16695 -0.475778,-0.60268 -1.286566,-0.9683 -3.473554,-1.56635 -6.932242,-6.39564 -7.491821,-10.46066 -0.283506,-2.05951 0.117461,-2.30976 2.438305,-1.52182 0.89797,0.30487 1.784526,0.55431 1.970125,0.55431 0.1856,0 -0.368164,-0.92783 -1.230586,-2.06184 -2.224649,-2.92522 -3.04588,-5.21918 -3.067853,-8.56951 -0.01932,-2.9467 0.881023,-6.58746 1.707483,-6.9046 0.270773,-0.10391 1.616346,0.90107 3.124257,2.33344 6.313674,5.99737 12.874311,9.42224 20.740656,10.82731 4.12231,0.73631 4.55378,0.61683 4.26623,-1.1814 -0.11795,-0.73762 -0.0395,-2.28944 0.17432,-3.44851 1.37485,-7.45248 8.29348,-12.44333 15.8224,-11.41368 2.52991,0.34598 4.34514,1.08549 6.57281,2.6777 2.00407,1.43239 2.69195,1.42374 6.26317,-0.0788 3.22604,-1.35728 3.82612,-1.45684 3.82612,-0.63477 0,0.79781 -1.68313,3.525 -2.76884,4.4864 -1.55324,1.37539 -0.71255,1.62328 2.29258,0.676 1.03334,-0.32574 1.98334,-0.48771 2.1111,-0.35995 0.41409,0.41408 -1.53092,2.93205 -3.9044,5.05455 l -2.31616,2.07125 -2e-4,2.00295 c -3.5e-4,5.28266 -1.55907,11.58301 -4.22282,17.07047 -5.60743,11.55157 -16.15207,19.43517 -28.47689,21.2905 -2.834,0.42662 -10.720005,0.44407 -13.161597,0.0291 z"
         id="path3872"
         inkscape:connector-curvature="0" />
      <path
         style="fill:#8fcfe7;stroke-width:0.35277778"
         d="m 95.174395,170.25224 c -4.457797,-0.56624 -10.732601,-2.62668 -13.905705,-4.56616 -1.632617,-0.99791 -0.966414,-1.36858 2.472189,-1.37552 4.287197,-0.009 10.475241,-1.92358 13.749051,-4.25474 1.36156,-0.96951 1.306939,-1.26652 -0.287063,-1.56089 -2.34625,-0.4333 -5.545535,-2.20685 -7.230651,-4.00837 -1.737009,-1.857 -3.245094,-4.45864 -2.904233,-5.01016 0.115803,-0.18737 1.074307,-0.34068 2.130009,-0.34068 1.055702,0 1.919458,-0.13464 1.919458,-0.2992 0,-0.16456 -0.671009,-0.60112 -1.491131,-0.97014 -3.403823,-1.53156 -6.983815,-6.24667 -7.535356,-9.9246 -0.366211,-2.44207 -0.172011,-2.60576 2.212523,-1.86485 1.128305,0.35058 2.173372,0.5636 2.322371,0.47338 0.148998,-0.0902 -0.297122,-0.82761 -0.991379,-1.63862 -0.694256,-0.81102 -1.768665,-2.50312 -2.387573,-3.76022 -1.029422,-2.09092 -1.124555,-2.57178 -1.116672,-5.64444 0.0069,-2.69847 0.161332,-3.69336 0.785404,-5.06048 0.862098,-1.88856 0.971243,-1.88318 2.797168,0.1379 5.599106,6.19755 16.360465,11.53209 24.278255,12.03506 l 1.76389,0.11204 0.20281,-3.20223 c 0.16127,-2.5464 0.4204,-3.66629 1.26525,-5.46806 1.40288,-2.99185 3.77725,-5.38154 6.74293,-6.78643 2.15833,-1.02245 2.67468,-1.12272 5.72373,-1.11156 3.76044,0.0138 5.87699,0.71685 8.74244,2.9041 1.79027,1.36655 2.10724,1.34985 6.53913,-0.34433 1.51688,-0.57985 2.84793,-0.9643 2.9579,-0.85433 0.4009,0.40089 -0.78911,2.55676 -2.31655,4.19675 -0.86116,0.92462 -1.45544,1.79144 -1.32062,1.92626 0.13482,0.13482 1.36018,-0.0421 2.72301,-0.39319 1.36284,-0.35108 2.56387,-0.55235 2.66894,-0.44726 0.33055,0.33054 -1.21924,2.21456 -3.66591,4.45648 l -2.35871,2.16133 -0.25383,4.12707 c -1.01012,16.42364 -12.24645,30.7524 -27.55358,35.1368 -5.01288,1.43583 -11.33433,1.89799 -16.677495,1.21929 z"
         id="path3870"
         inkscape:connector-curvature="0" />
      <path
         style="fill:#74c3e3;stroke-width:0.35277778"
         d="m 93.939673,169.92953 c -3.841248,-0.56784 -13.052779,-3.98536 -13.052779,-4.84265 0,-0.17739 1.468438,-0.42222 3.263195,-0.54406 4.03268,-0.27378 7.329361,-1.19126 11.101596,-3.08963 2.768533,-1.39326 3.930827,-2.25334 3.554159,-2.63 -0.09529,-0.0953 -1.110104,-0.41722 -2.255132,-0.71538 -3.683371,-0.95914 -7.107029,-3.55999 -8.6389,-6.5627 -0.948204,-1.85863 -0.869281,-2.05599 0.824388,-2.06143 1.856624,-0.006 3.139453,-0.33015 2.891837,-0.7308 -0.102868,-0.16645 -0.894954,-0.61578 -1.76019,-0.99851 -3.674794,-1.62553 -7.345384,-6.56423 -7.625793,-10.26032 -0.136313,-1.79675 -0.09237,-1.81187 2.965848,-1.02044 0.921346,0.23844 1.777995,0.3307 1.903665,0.20503 0.125669,-0.12567 -0.419791,-0.93179 -1.212133,-1.79138 -2.458817,-2.6675 -3.35467,-4.83914 -3.530129,-8.55738 -0.151635,-3.21336 0.495424,-6.48202 1.392979,-7.03674 0.193599,-0.11965 1.649899,1.04785 3.236222,2.59445 5.884334,5.737 13.333344,9.47475 21.318394,10.69713 3.71011,0.56795 4.07715,0.41524 3.77909,-1.57235 -0.51813,-3.45517 1.44483,-8.53836 4.32103,-11.18955 0.86039,-0.79309 2.46528,-1.86432 3.56642,-2.38051 1.78832,-0.83833 2.41637,-0.9384 5.88262,-0.93729 3.52987,0.001 4.04339,0.0871 5.68235,0.9506 0.99099,0.52214 2.30764,1.37499 2.92589,1.89521 1.38894,1.16872 2.5442,1.07695 6.529,-0.51865 1.52749,-0.61163 2.84538,-1.04394 2.92865,-0.96067 0.29517,0.29517 -1.2577,2.8896 -2.72732,4.55662 -0.81993,0.93006 -1.39413,1.78768 -1.27599,1.90581 0.11814,0.11814 1.24167,-0.0632 2.49673,-0.40289 1.25506,-0.33973 2.46409,-0.55698 2.68672,-0.48277 0.49366,0.16456 -1.49291,2.5998 -3.84845,4.71764 l -1.70593,1.53377 -0.2191,3.80899 c -0.63493,11.03785 -6.07633,21.79579 -14.38764,28.44509 -5.05761,4.04625 -10.98233,6.74684 -17.16823,7.82557 -3.19174,0.55659 -10.553541,0.63646 -13.843067,0.15019 z"
         id="path3868"
         inkscape:connector-curvature="0" />
      <path
         style="fill:#54b4dd;stroke-width:0.35277778"
         d="m 95.473752,169.93006 c -1.193547,-0.15557 -3.257297,-0.55274 -4.586111,-0.88261 -3.67004,-0.91104 -9.960517,-3.489 -9.539893,-3.90962 0.0955,-0.0955 1.667601,-0.31499 3.49355,-0.48774 1.825948,-0.17275 4.580374,-0.71447 6.120946,-1.2038 3.213928,-1.02086 8.092707,-3.66896 8.092707,-4.39255 0,-0.2975 -0.759683,-0.6826 -1.940278,-0.98358 -4.117714,-1.04975 -7.511681,-3.56284 -9.15081,-6.7758 -0.862416,-1.69048 -0.811255,-1.73711 2.067524,-1.8844 1.051902,-0.0538 1.966639,-0.26237 2.032747,-0.46345 0.06611,-0.20108 -0.833742,-0.80348 -1.99967,-1.33865 -3.871961,-1.77727 -7.101133,-5.97116 -7.643307,-9.92675 -0.252753,-1.84403 -0.228628,-1.85365 2.591851,-1.03372 2.835272,0.82424 3.122922,0.2691 1.023533,-1.97531 -3.092802,-3.30646 -4.313183,-7.62447 -3.387581,-11.9861 0.791552,-3.72997 0.919895,-3.74826 4.214496,-0.60061 6.407507,6.12169 15.555704,10.42255 23.127604,10.87303 l 2.11667,0.12593 0.19773,-3.35139 c 0.15179,-2.57253 0.41251,-3.82018 1.12186,-5.36859 1.28958,-2.81496 3.7733,-5.34784 6.58647,-6.71685 2.11576,-1.02961 2.62544,-1.13143 5.67588,-1.13382 2.89719,-0.002 3.62517,0.1252 5.3715,0.94053 1.11106,0.51873 2.65155,1.45059 3.42332,2.0708 1.36348,1.09573 1.45009,1.11586 3.05828,0.71091 0.91029,-0.22921 2.6112,-0.80526 3.77981,-1.28011 1.16861,-0.47485 2.18911,-0.799 2.26777,-0.72034 0.31212,0.31212 -1.1482,2.55872 -2.79518,4.30016 -1.00655,1.06427 -1.58475,1.9352 -1.37204,2.06666 0.2022,0.12496 1.40173,-0.0321 2.66562,-0.3491 1.2639,-0.31698 2.49647,-0.50448 2.73904,-0.41669 0.25703,0.093 -0.80098,1.36656 -2.53583,3.05236 l -2.97689,2.89273 -0.26753,4.12081 c -1.47304,22.6893 -21.1415,38.95157 -43.573788,36.02766 z"
         id="path3866"
         inkscape:connector-curvature="0" />
      <path
         style="fill:#2ba8e1;stroke-width:0.35277778"
         d="m 95.10342,169.60066 c -4.087571,-0.57938 -12.805415,-3.45076 -12.805415,-4.21769 0,-0.1471 1.309688,-0.36488 2.910417,-0.48396 3.709625,-0.27596 6.876939,-1.20235 10.42899,-3.05033 3.368414,-1.75244 4.249533,-2.5744 3.59942,-3.35773 -0.244563,-0.29469 -0.737175,-0.53579 -1.094694,-0.53579 -1.117494,0 -3.956635,-1.08093 -5.640753,-2.14757 -1.612247,-1.02113 -4.558935,-4.56413 -4.558935,-5.48151 0,-0.34551 0.498528,-0.48481 1.735036,-0.48481 3.444985,0 3.837701,-0.98367 0.909687,-2.27858 -3.814655,-1.68702 -7.185909,-5.86979 -7.793514,-9.66955 -0.262734,-1.64305 -0.257832,-1.64518 2.118053,-0.92444 2.17029,0.65838 2.649047,0.6584 2.901653,1.2e-4 0.123067,-0.3207 -0.451722,-1.24795 -1.476103,-2.38125 -3.153676,-3.48897 -4.274437,-7.47724 -3.339397,-11.88334 0.702474,-3.31021 0.685214,-3.30943 3.951019,-0.17957 3.28694,3.15011 6.252495,5.21958 10.165789,7.09404 4.595707,2.20133 9.961267,3.64202 13.563977,3.64202 h 1.87619 l 0.14675,-3.43958 c 0.12666,-2.96835 0.3006,-3.7589 1.26965,-5.77027 1.33154,-2.76379 3.5344,-4.92886 6.36498,-6.25578 1.72753,-0.80984 2.46163,-0.93854 5.35345,-0.93854 2.918,0 3.61895,0.12534 5.42039,0.96918 1.13795,0.53304 2.62752,1.45956 3.31015,2.05892 1.44085,1.26508 2.26193,1.22847 6.02264,-0.26851 1.22626,-0.48812 2.32141,-0.79565 2.43366,-0.6834 0.31935,0.31935 -1.68936,3.02206 -2.97472,4.00245 -2.27052,1.73181 -1.25892,2.57304 1.99594,1.65977 1.18559,-0.33265 2.22288,-0.53756 2.3051,-0.45535 0.17245,0.17246 -2.72706,3.29536 -4.08087,4.39526 -0.83043,0.67469 -0.93355,1.04682 -1.13347,4.09026 -0.39378,5.99482 -1.8443,11.2838 -4.57645,16.68698 -2.08469,4.12273 -3.49676,6.05848 -7.02651,9.63238 -6.84169,6.92726 -15.21493,10.50305 -25.33197,10.818 -2.619373,0.0815 -5.746939,0.009 -6.95014,-0.16183 z"
         id="path3864"
         inkscape:connector-curvature="0" />
      <path
         style="fill:#2ea8dd;stroke-width:0.35277778"
         d="m 95.10342,169.60066 c -4.087571,-0.57938 -12.805415,-3.45076 -12.805415,-4.21769 0,-0.1471 1.309688,-0.36488 2.910417,-0.48396 3.709625,-0.27596 6.876939,-1.20235 10.42899,-3.05033 3.368414,-1.75244 4.249533,-2.5744 3.59942,-3.35773 -0.244563,-0.29469 -0.737175,-0.53579 -1.094694,-0.53579 -1.117494,0 -3.956635,-1.08093 -5.640753,-2.14757 -1.612247,-1.02113 -4.558935,-4.56413 -4.558935,-5.48151 0,-0.34551 0.498528,-0.48481 1.735036,-0.48481 3.444985,0 3.837701,-0.98367 0.909687,-2.27858 -3.814655,-1.68702 -7.185909,-5.86979 -7.793514,-9.66955 -0.262734,-1.64305 -0.257832,-1.64518 2.118053,-0.92444 2.17029,0.65838 2.649047,0.6584 2.901653,1.2e-4 0.123067,-0.3207 -0.451722,-1.24795 -1.476103,-2.38125 -3.153676,-3.48897 -4.274437,-7.47724 -3.339397,-11.88334 0.702474,-3.31021 0.685214,-3.30943 3.951019,-0.17957 3.28694,3.15011 6.252495,5.21958 10.165789,7.09404 4.615687,2.2109 9.961737,3.64202 13.605007,3.64202 h 1.91722 v -3.01943 c 0,-1.66069 0.13536,-2.93577 0.3008,-2.83353 0.16544,0.10225 0.2845,1.56995 0.26458,3.26155 l -0.0362,3.07564 -1.20875,0.31326 c -0.76165,0.19739 -1.76548,0.17308 -2.71386,-0.0657 -2.19984,-0.55393 -4.25135,-0.48539 -4.49524,0.15017 -0.31618,0.82397 -0.93076,0.62223 -0.93076,-0.30553 0,-0.68106 -0.3409,-0.96616 -1.85208,-1.54891 l -1.85209,-0.71421 -0.792356,0.72715 c -0.937369,0.86024 -1.490987,0.53158 -0.845538,-0.50195 0.503015,-0.80545 0.522376,-0.75871 -0.543772,-1.31293 -1.105563,-0.57471 -1.522497,-0.49689 -1.522497,0.28418 0,0.3766 -0.165703,0.78714 -0.368229,0.91231 -0.613569,0.37921 -1.465304,-0.60467 -1.294945,-1.49585 0.113764,-0.59511 -0.130588,-1.06602 -0.880643,-1.69715 -0.570952,-0.48042 -1.258454,-0.87349 -1.527783,-0.87349 -0.269328,0 -0.659608,-0.3175 -0.867289,-0.70556 -0.46562,-0.87002 -1.707404,-0.91766 -2.313515,-0.0888 -0.248061,0.33924 -0.571474,0.49635 -0.718694,0.34913 -0.147221,-0.14722 0.03824,-0.49342 0.412129,-0.76933 0.651064,-0.48044 0.612691,-0.56947 -0.907698,-2.10593 -0.873125,-0.88235 -1.839831,-1.60747 -2.148235,-1.61136 -0.308404,-0.004 -0.741563,-0.40397 -0.962576,-0.88904 -0.586181,-1.28653 -1.195097,-1.09686 -1.071833,0.33386 0.05761,0.66869 -0.0096,1.33015 -0.14936,1.46991 -0.310794,0.31079 -0.327847,3.88207 -0.02396,5.01703 0.15015,0.56077 0.306106,0.68508 0.488745,0.38956 0.378967,-0.61318 1.4344,-0.13157 1.177692,0.5374 -0.114502,0.29839 -0.429326,0.54252 -0.699608,0.54252 -1.132969,0 -0.147938,1.96348 1.093358,2.17941 0.462187,0.0804 0.765149,0.482 0.884825,1.17291 0.120317,0.69462 0.50976,1.20775 1.149246,1.51425 1.175823,0.56356 1.293304,1.86294 0.261703,2.89454 -0.434043,0.43404 -0.705556,1.17593 -0.705556,1.92787 0,0.88631 -0.206656,1.33291 -0.751786,1.62465 -0.715621,0.38299 -0.740701,0.34325 -0.521348,-0.826 0.260801,-1.39019 -0.246636,-3.0793 -0.925073,-3.0793 -0.248479,0 -0.671852,0.49718 -0.940828,1.10484 -0.451149,1.01921 -0.414737,1.25159 0.469859,2.99861 0.819277,1.61802 1.281149,2.11662 1.699037,1.83416 0.215653,-0.14576 1.715464,0.84299 1.541932,1.01652 -0.311826,0.31183 0.466568,1.51254 0.980544,1.51254 0.258049,0 0.886271,0.32808 1.396049,0.72907 0.509778,0.401 1.401254,0.74257 1.981058,0.75905 0.734755,0.0209 1.123276,0.24765 1.282187,0.74833 0.335319,1.0565 -1.00236,1.99688 -2.840527,1.99688 -1.875968,0 -2.059886,0.19464 -1.396352,1.47778 0.62981,1.21792 1.744859,1.22481 1.701404,0.0105 -0.02919,-0.81565 0.270381,-0.9146 1.413329,-0.46686 0.608238,0.23828 0.617518,0.29018 0.08819,0.4933 -0.325363,0.12486 -0.591568,0.54013 -0.591568,0.92283 0,0.38269 -0.15875,0.79391 -0.352778,0.91383 -0.655,0.40481 -0.359236,0.81104 1.322917,1.817 2.704497,1.61735 3.693633,1.95436 5.094662,1.7358 1.04914,-0.16366 1.399416,-0.0645 1.801865,0.51007 0.509026,0.72674 0.411826,2.46352 -0.137862,2.46352 -0.166557,0 -0.211649,0.45591 -0.100203,1.01315 0.183628,0.91813 0.100905,1.02807 -0.882153,1.17236 -0.596628,0.0876 -1.138265,-10e-4 -1.203635,-0.19735 -0.06537,-0.19611 -0.466118,-0.009 -0.890556,0.41514 -0.424434,0.42443 -1.084298,0.7717 -1.466356,0.7717 -0.382062,0 -1.929875,0.4126 -3.439585,0.9169 -1.50971,0.50429 -3.062428,0.95076 -3.450483,0.99216 -3.143494,0.33536 -4.829091,1.26594 -2.293056,1.26594 0.559182,0 1.106513,0.14533 1.216293,0.32296 0.259101,0.41923 4.676098,1.84703 5.433852,1.75649 0.31999,-0.0382 0.978675,0.0937 1.463745,0.29319 1.329531,0.54676 8.600385,0.59857 8.266855,0.0589 -0.19805,-0.32045 0.0763,-0.35691 1.1151,-0.14823 2.12225,0.42633 3.85647,0.4131 3.77557,-0.0288 -0.0445,-0.24329 0.89798,-0.46463 2.49181,-0.58517 1.60122,-0.1211 3.41577,-0.54859 4.83413,-1.13885 2.25709,-0.93932 3.74145,-1.94162 2.87546,-1.94162 -0.61014,0 -0.53007,-0.88753 0.12944,-1.43488 0.43746,-0.36306 0.70284,-0.37237 1.22994,-0.0432 0.92151,0.5755 1.37452,0.53232 3.08488,-0.29404 1.47809,-0.71414 1.84227,-1.22244 1.06213,-1.48249 -0.22838,-0.0761 -0.29812,-0.32791 -0.15498,-0.55952 0.17955,-0.29052 0.45804,-0.31526 0.89802,-0.0798 0.86428,0.46255 1.22362,0.023 0.46047,-0.56331 -0.56856,-0.43678 -0.55541,-0.48594 0.18573,-0.6944 0.43868,-0.12339 0.89068,-0.59519 1.00444,-1.04845 0.17424,-0.6942 0.36827,-0.79182 1.23087,-0.6193 0.58857,0.11771 1.02402,0.0535 1.02402,-0.15093 0,-0.19565 0.32938,-0.44186 0.73195,-0.54714 0.61116,-0.15982 0.66938,-0.30833 0.35278,-0.89989 -0.63887,-1.19375 -0.46967,-1.53637 0.63853,-1.29297 0.83076,0.18247 1.15476,0.0493 1.76389,-0.7251 0.4104,-0.52174 0.74619,-1.1459 0.74619,-1.38702 0,-0.24112 0.23812,-0.63602 0.52916,-0.87756 0.29105,-0.24155 0.52917,-0.96636 0.52917,-1.6107 0,-0.79168 0.24116,-1.34043 0.7438,-1.6925 0.40909,-0.28653 0.63697,-0.69383 0.5064,-0.9051 -0.27014,-0.43709 0.0781,-1.79251 0.44699,-1.73999 0.79439,0.11311 1.12503,-0.14461 1.12503,-0.8769 0,-0.45538 0.33696,-1.20944 0.7488,-1.6757 l 0.7488,-0.84773 -0.24637,0.88195 c -0.50064,1.79221 -3.59004,7.94975 -5.02287,10.01119 -2.06579,2.97209 -6.85459,7.72028 -9.68208,9.59999 -6.11502,4.06526 -12.49681,6.0718 -20.06017,6.30725 -2.619371,0.0815 -5.746937,0.009 -6.950138,-0.16182 z m 26.79389,-10.46802 c -0.55307,-0.22317 -0.57384,-1.05372 -0.0347,-1.38694 0.38401,-0.23734 1.35759,0.7202 1.35759,1.33522 0,0.31014 -0.62219,0.33446 -1.32292,0.0517 z m 7.73397,-5.55972 c 0.0634,-0.51225 0.27409,-0.92642 0.46812,-0.92039 0.52768,0.0164 0.42572,1.51536 -0.11534,1.69571 -0.32702,0.109 -0.43335,-0.12468 -0.35278,-0.77532 z m -2.40876,-1.45381 c -0.11489,-0.29941 -0.11676,-0.63652 -0.004,-0.74913 0.35597,-0.35597 1.29352,0.19001 1.29352,0.75328 0,0.70416 -1.01883,0.70089 -1.28938,-0.004 z m 9.75604,-10.78613 c 0,-0.86368 0.3175,-2.47367 0.70556,-3.57776 0.38806,-1.10409 0.71946,-2.84483 0.73646,-3.86833 0.0718,-4.32173 0.32234,-4.99679 2.52673,-6.8075 2.02631,-1.66442 2.44852,-2.28534 1.55399,-2.28534 -0.56812,0 -1.61778,1.08994 -1.52885,1.5875 0.0347,0.19403 -0.45288,0.40253 -1.08347,0.46333 -1.21121,0.11678 -1.5652,-0.40357 -0.54172,-0.79631 0.52107,-0.19996 0.48444,-0.29177 -0.26458,-0.66315 -0.60589,-0.30041 -0.9029,-0.77614 -0.97994,-1.56955 -0.0973,-1.00204 -0.007,-1.13848 0.75056,-1.13848 0.95817,0 1.83808,-0.82631 1.4862,-1.39566 -0.12517,-0.20253 -0.7887,-0.36823 -1.47451,-0.36823 -0.95024,0 -1.29082,0.16787 -1.43143,0.70555 -0.19999,0.76475 -1.51333,0.99147 -1.51333,0.26125 0,-0.45735 -0.67754,-0.97266 -2.82222,-2.14645 -1.2804,-0.70076 -3.39325,-2.34813 -3.01163,-2.34813 0.54078,0 3.30145,1.60503 4.3815,2.54737 1.38832,1.2113 2.25063,1.16555 5.97497,-0.31695 1.22626,-0.48812 2.32141,-0.79565 2.43366,-0.6834 0.31935,0.31935 -1.68936,3.02206 -2.97472,4.00245 -2.27052,1.73181 -1.25892,2.57304 1.99594,1.65977 1.18559,-0.33265 2.22288,-0.53756 2.3051,-0.45535 0.17245,0.17246 -2.72706,3.29536 -4.08087,4.39526 -0.83043,0.67469 -0.93355,1.04682 -1.13347,4.09026 -0.19447,2.96051 -1.42654,9.6948 -1.85146,10.11971 -0.0872,0.0872 -0.15847,-0.54818 -0.15847,-1.41186 z m -3.66967,-2.68731 c -0.35047,-0.35047 -0.23728,-1.33689 0.20406,-1.77822 0.5691,-0.5691 1.32874,0.0985 1.10137,0.96795 -0.18291,0.69948 -0.94389,1.17181 -1.30543,0.81027 z M 96.2448,134.33859 c -0.340522,-0.55098 0.107516,-1.07787 0.916559,-1.07787 0.485084,0 0.673118,0.19464 0.592491,0.61331 -0.135372,0.70292 -1.165702,1.02011 -1.50905,0.46456 z m -2.826003,-0.65801 c -0.364318,-0.36431 -0.174776,-1.05373 0.344487,-1.25299 0.704936,-0.27051 1.5875,0.0927 1.5875,0.65336 0,0.45246 -1.586697,0.94492 -1.931987,0.59963 z m 20.981993,-0.2176 c 0,-0.30527 0.15875,-0.55504 0.35277,-0.55504 0.19403,0 0.35521,0.19844 0.35818,0.44097 0.004,0.29897 0.12592,0.27057 0.37964,-0.0882 0.33265,-0.47037 0.3582,-0.47037 0.22994,0 -0.19902,0.72993 -1.32053,0.9017 -1.32053,0.20226 z m 1.28392,-1.15259 c -0.3362,-0.3362 -0.27254,-1.16634 0.0894,-1.16634 0.43279,0 0.78022,0.99388 0.42432,1.21384 -0.15849,0.0979 -0.38968,0.0766 -0.51376,-0.0475 z m -0.1374,-2.83615 c -0.24253,-0.0841 -0.44097,-0.49116 -0.44097,-0.90462 0,-0.69223 0.0451,-0.70661 0.57011,-0.18164 0.63526,0.63525 0.55351,1.32291 -0.12914,1.08626 z m -26.105554,-1.03327 c -0.634425,-0.256 -0.542857,-1.06289 0.150827,-1.32908 0.33744,-0.12949 0.830225,0.0114 1.146527,0.32779 0.490534,0.49068 0.493493,0.59361 0.02556,0.88951 -0.579185,0.36624 -0.672707,0.37415 -1.322917,0.11178 z m 23.547914,-1.87321 c 0,-0.24096 0.47351,-1.43024 1.05223,-2.64285 1.98181,-4.15251 6.05732,-6.8689 10.74653,-7.16272 1.36881,-0.0858 3.04437,0.005 3.72347,0.20198 1.1547,0.33472 1.17185,0.35998 0.26458,0.38973 -0.56766,0.0186 -0.97014,0.23106 -0.97014,0.51207 0,0.32203 -0.29054,0.4247 -0.88194,0.31165 -0.48507,-0.0927 -0.88195,-0.38821 -0.88195,-0.65664 0,-0.27443 -0.35603,-0.48804 -0.81344,-0.48804 -0.93032,0 -5.18378,1.37422 -5.18378,1.67478 0,0.1094 0.4183,0.74732 0.92956,1.41761 0.91925,1.2052 0.92063,1.21588 0.12498,0.96335 -0.44251,-0.14044 -1.15231,-0.65963 -1.57733,-1.15374 -0.44227,-0.51417 -0.94835,-0.78987 -1.18332,-0.64465 -0.64285,0.3973 -0.50127,0.77124 0.82417,2.1766 1.16833,1.2388 1.59355,2.26883 0.93662,2.26883 -0.38967,0 -1.29949,-1.06819 -1.57749,-1.85208 -0.12041,-0.33955 -0.46204,-0.61736 -0.75918,-0.61736 -0.29713,0 -0.54023,-0.15875 -0.54023,-0.35278 0,-0.19403 -0.15936,-0.35278 -0.35412,-0.35278 -0.19477,0 -0.31383,0.49866 -0.26459,1.10814 0.0517,0.63984 -0.0968,1.17406 -0.35143,1.26412 -0.24624,0.0871 -0.44097,-0.12184 -0.44097,-0.47314 0,-0.88453 -0.473,-0.22183 -1.03654,1.45227 -0.50166,1.49025 -1.78569,3.39985 -1.78569,2.65565 z m 21.39227,-2.72404 c -0.3973,-0.39729 -0.24197,-0.81356 0.30357,-0.81356 0.29104,0 0.52917,0.14939 0.52917,0.33196 0,0.44485 -0.5509,0.76345 -0.83274,0.4816 z m -1.5436,-2.5258 c 0.0336,-0.4459 0.25105,-0.60115 0.68363,-0.48802 0.78358,0.20491 0.8196,0.64259 0.0763,0.9278 -0.78944,0.30294 -0.81482,0.28825 -0.75998,-0.43978 z m -5.00415,-2.02132 c 0.0169,-0.41097 0.10052,-0.49456 0.21314,-0.21314 0.1019,0.25466 0.0894,0.55894 -0.0278,0.67616 -0.11722,0.11723 -0.2006,-0.0911 -0.18528,-0.46302 z"
         id="path3862"
         inkscape:connector-curvature="0" />
    </g>
  </g>
</svg>
