<?xml version="1.0" encoding="UTF-8" standalone="no"?>
<!-- Created with Inkscape (http://www.inkscape.org/) -->

<svg
   xmlns:dc="http://purl.org/dc/elements/1.1/"
   xmlns:cc="http://creativecommons.org/ns#"
   xmlns:rdf="http://www.w3.org/1999/02/22-rdf-syntax-ns#"
   xmlns:svg="http://www.w3.org/2000/svg"
   xmlns="http://www.w3.org/2000/svg"
   xmlns:sodipodi="http://sodipodi.sourceforge.net/DTD/sodipodi-0.dtd"
   xmlns:inkscape="http://www.inkscape.org/namespaces/inkscape"
   id="svg3392"
   version="1.1"
   inkscape:version="0.91 r13725"
   width="376.5"
   height="487.5"
   viewBox="0 0 376.5 487.5"
   sodipodi:docname="Spritelink2.svg">
  <metadata
     id="metadata3398">
    <rdf:RDF>
      <cc:Work
         rdf:about="">
        <dc:format>image/svg+xml</dc:format>
        <dc:type
           rdf:resource="http://purl.org/dc/dcmitype/StillImage" />
        <dc:title></dc:title>
      </cc:Work>
    </rdf:RDF>
  </metadata>
  <defs
     id="defs3396">
    <inkscape:path-effect
       effect="skeletal"
       id="path-effect3688"
       is_visible="true"
       pattern="M 0,5 C 0,2.24 2.24,0 5,0 7.76,0 10,2.24 10,5 10,7.76 7.76,10 5,10 2.24,10 0,7.76 0,5 Z"
       copytype="single_stretched"
       prop_scale="1"
       scale_y_rel="false"
       spacing="0"
       normal_offset="0"
       tang_offset="0"
       prop_units="false"
       vertical_pattern="false"
       fuse_tolerance="0" />
    <inkscape:path-effect
       effect="skeletal"
       id="path-effect3684"
       is_visible="true"
       pattern="M 0,5 C 0,2.24 2.24,0 5,0 7.76,0 10,2.24 10,5 10,7.76 7.76,10 5,10 2.24,10 0,7.76 0,5 Z"
       copytype="single_stretched"
       prop_scale="1"
       scale_y_rel="false"
       spacing="0"
       normal_offset="0"
       tang_offset="0"
       prop_units="false"
       vertical_pattern="false"
       fuse_tolerance="0" />
    <inkscape:path-effect
       effect="skeletal"
       id="path-effect3680"
       is_visible="true"
       pattern="M 0,5 C 0,2.24 2.24,0 5,0 7.76,0 10,2.24 10,5 10,7.76 7.76,10 5,10 2.24,10 0,7.76 0,5 Z"
       copytype="single_stretched"
       prop_scale="1"
       scale_y_rel="false"
       spacing="0"
       normal_offset="0"
       tang_offset="0"
       prop_units="false"
       vertical_pattern="false"
       fuse_tolerance="0" />
    <inkscape:path-effect
       effect="skeletal"
       id="path-effect3676"
       is_visible="true"
       pattern="M 0,5 C 0,2.24 2.24,0 5,0 7.76,0 10,2.24 10,5 10,7.76 7.76,10 5,10 2.24,10 0,7.76 0,5 Z"
       copytype="single_stretched"
       prop_scale="1"
       scale_y_rel="false"
       spacing="0"
       normal_offset="0"
       tang_offset="0"
       prop_units="false"
       vertical_pattern="false"
       fuse_tolerance="0" />
    <inkscape:path-effect
       effect="skeletal"
       id="path-effect3672"
       is_visible="true"
       pattern="M 0,5 C 0,2.24 2.24,0 5,0 7.76,0 10,2.24 10,5 10,7.76 7.76,10 5,10 2.24,10 0,7.76 0,5 Z"
       copytype="single_stretched"
       prop_scale="1"
       scale_y_rel="false"
       spacing="0"
       normal_offset="0"
       tang_offset="0"
       prop_units="false"
       vertical_pattern="false"
       fuse_tolerance="0" />
    <inkscape:path-effect
       effect="skeletal"
       id="path-effect3668"
       is_visible="true"
       pattern="M 0,5 C 0,2.24 2.24,0 5,0 7.76,0 10,2.24 10,5 10,7.76 7.76,10 5,10 2.24,10 0,7.76 0,5 Z"
       copytype="single_stretched"
       prop_scale="1"
       scale_y_rel="false"
       spacing="0"
       normal_offset="0"
       tang_offset="0"
       prop_units="false"
       vertical_pattern="false"
       fuse_tolerance="0" />
    <inkscape:path-effect
       effect="skeletal"
       id="path-effect3664"
       is_visible="true"
       pattern="M 0,5 C 0,2.24 2.24,0 5,0 7.76,0 10,2.24 10,5 10,7.76 7.76,10 5,10 2.24,10 0,7.76 0,5 Z"
       copytype="single_stretched"
       prop_scale="1"
       scale_y_rel="false"
       spacing="0"
       normal_offset="0"
       tang_offset="0"
       prop_units="false"
       vertical_pattern="false"
       fuse_tolerance="0" />
    <inkscape:path-effect
       effect="skeletal"
       id="path-effect3660"
       is_visible="true"
       pattern="M 0,5 C 0,2.24 2.24,0 5,0 7.76,0 10,2.24 10,5 10,7.76 7.76,10 5,10 2.24,10 0,7.76 0,5 Z"
       copytype="single_stretched"
       prop_scale="1"
       scale_y_rel="false"
       spacing="0"
       normal_offset="0"
       tang_offset="0"
       prop_units="false"
       vertical_pattern="false"
       fuse_tolerance="0" />
    <inkscape:path-effect
       effect="skeletal"
       id="path-effect3656"
       is_visible="true"
       pattern="M 0,5 C 0,2.24 2.24,0 5,0 7.76,0 10,2.24 10,5 10,7.76 7.76,10 5,10 2.24,10 0,7.76 0,5 Z"
       copytype="single_stretched"
       prop_scale="1"
       scale_y_rel="false"
       spacing="0"
       normal_offset="0"
       tang_offset="0"
       prop_units="false"
       vertical_pattern="false"
       fuse_tolerance="0" />
    <inkscape:path-effect
       effect="skeletal"
       id="path-effect3652"
       is_visible="true"
       pattern="M 0,5 C 0,2.24 2.24,0 5,0 7.76,0 10,2.24 10,5 10,7.76 7.76,10 5,10 2.24,10 0,7.76 0,5 Z"
       copytype="single_stretched"
       prop_scale="1"
       scale_y_rel="false"
       spacing="0"
       normal_offset="0"
       tang_offset="0"
       prop_units="false"
       vertical_pattern="false"
       fuse_tolerance="0" />
    <inkscape:path-effect
       effect="skeletal"
       id="path-effect3648"
       is_visible="true"
       pattern="M 0,5 C 0,2.24 2.24,0 5,0 7.76,0 10,2.24 10,5 10,7.76 7.76,10 5,10 2.24,10 0,7.76 0,5 Z"
       copytype="single_stretched"
       prop_scale="1"
       scale_y_rel="false"
       spacing="0"
       normal_offset="0"
       tang_offset="0"
       prop_units="false"
       vertical_pattern="false"
       fuse_tolerance="0" />
    <inkscape:path-effect
       effect="skeletal"
       id="path-effect3644"
       is_visible="true"
       pattern="M 0,5 C 0,2.24 2.24,0 5,0 7.76,0 10,2.24 10,5 10,7.76 7.76,10 5,10 2.24,10 0,7.76 0,5 Z"
       copytype="single_stretched"
       prop_scale="1"
       scale_y_rel="false"
       spacing="0"
       normal_offset="0"
       tang_offset="0"
       prop_units="false"
       vertical_pattern="false"
       fuse_tolerance="0" />
    <inkscape:path-effect
       effect="skeletal"
       id="path-effect3640"
       is_visible="true"
       pattern="M 0,5 C 0,2.24 2.24,0 5,0 7.76,0 10,2.24 10,5 10,7.76 7.76,10 5,10 2.24,10 0,7.76 0,5 Z"
       copytype="single_stretched"
       prop_scale="1"
       scale_y_rel="false"
       spacing="0"
       normal_offset="0"
       tang_offset="0"
       prop_units="false"
       vertical_pattern="false"
       fuse_tolerance="0" />
    <inkscape:path-effect
       effect="skeletal"
       id="path-effect3636"
       is_visible="true"
       pattern="M 0,5 C 0,2.24 2.24,0 5,0 7.76,0 10,2.24 10,5 10,7.76 7.76,10 5,10 2.24,10 0,7.76 0,5 Z"
       copytype="single_stretched"
       prop_scale="1"
       scale_y_rel="false"
       spacing="0"
       normal_offset="0"
       tang_offset="0"
       prop_units="false"
       vertical_pattern="false"
       fuse_tolerance="0" />
    <inkscape:path-effect
       effect="skeletal"
       id="path-effect3632"
       is_visible="true"
       pattern="M 0,5 C 0,2.24 2.24,0 5,0 7.76,0 10,2.24 10,5 10,7.76 7.76,10 5,10 2.24,10 0,7.76 0,5 Z"
       copytype="single_stretched"
       prop_scale="1"
       scale_y_rel="false"
       spacing="0"
       normal_offset="0"
       tang_offset="0"
       prop_units="false"
       vertical_pattern="false"
       fuse_tolerance="0" />
    <inkscape:path-effect
       effect="skeletal"
       id="path-effect3628"
       is_visible="true"
       pattern="M 0,5 C 0,2.24 2.24,0 5,0 7.76,0 10,2.24 10,5 10,7.76 7.76,10 5,10 2.24,10 0,7.76 0,5 Z"
       copytype="single_stretched"
       prop_scale="1"
       scale_y_rel="false"
       spacing="0"
       normal_offset="0"
       tang_offset="0"
       prop_units="false"
       vertical_pattern="false"
       fuse_tolerance="0" />
    <inkscape:path-effect
       effect="skeletal"
       id="path-effect3624"
       is_visible="true"
       pattern="M 0,5 C 0,2.24 2.24,0 5,0 7.76,0 10,2.24 10,5 10,7.76 7.76,10 5,10 2.24,10 0,7.76 0,5 Z"
       copytype="single_stretched"
       prop_scale="1"
       scale_y_rel="false"
       spacing="0"
       normal_offset="0"
       tang_offset="0"
       prop_units="false"
       vertical_pattern="false"
       fuse_tolerance="0" />
    <inkscape:path-effect
       effect="skeletal"
       id="path-effect3620"
       is_visible="true"
       pattern="M 0,5 C 0,2.24 2.24,0 5,0 7.76,0 10,2.24 10,5 10,7.76 7.76,10 5,10 2.24,10 0,7.76 0,5 Z"
       copytype="single_stretched"
       prop_scale="1"
       scale_y_rel="false"
       spacing="0"
       normal_offset="0"
       tang_offset="0"
       prop_units="false"
       vertical_pattern="false"
       fuse_tolerance="0" />
    <inkscape:path-effect
       effect="skeletal"
       id="path-effect3616"
       is_visible="true"
       pattern="M 0,5 C 0,2.24 2.24,0 5,0 7.76,0 10,2.24 10,5 10,7.76 7.76,10 5,10 2.24,10 0,7.76 0,5 Z"
       copytype="single_stretched"
       prop_scale="1"
       scale_y_rel="false"
       spacing="0"
       normal_offset="0"
       tang_offset="0"
       prop_units="false"
       vertical_pattern="false"
       fuse_tolerance="0" />
    <inkscape:path-effect
       effect="skeletal"
       id="path-effect3560"
       is_visible="true"
       pattern="m -69.216133,-97.002722 c 0,-2.76 2.24,-4.999998 5,-4.999998 2.76,0 5,2.239998 5,4.999998 0,2.76 -2.24,5 -5,5 -2.76,0 -5,-2.24 -5,-5 z"
       copytype="single_stretched"
       prop_scale="1"
       scale_y_rel="false"
       spacing="0"
       normal_offset="0"
       tang_offset="0"
       prop_units="false"
       vertical_pattern="false"
       fuse_tolerance="0" />
    <inkscape:path-effect
       effect="skeletal"
       id="path-effect3556"
       is_visible="true"
       pattern="m -69.216133,-97.002722 c 0,-2.76 2.24,-4.999998 5,-4.999998 2.76,0 5,2.239998 5,4.999998 0,2.76 -2.24,5 -5,5 -2.76,0 -5,-2.24 -5,-5 z"
       copytype="single_stretched"
       prop_scale="1"
       scale_y_rel="false"
       spacing="0"
       normal_offset="0"
       tang_offset="0"
       prop_units="false"
       vertical_pattern="false"
       fuse_tolerance="0" />
    <inkscape:path-effect
       effect="skeletal"
       id="path-effect3552"
       is_visible="true"
       pattern="M 0,5 C 0,2.24 2.24,0 5,0 7.76,0 10,2.24 10,5 10,7.76 7.76,10 5,10 2.24,10 0,7.76 0,5 Z"
       copytype="single_stretched"
       prop_scale="1"
       scale_y_rel="false"
       spacing="0"
       normal_offset="0"
       tang_offset="0"
       prop_units="false"
       vertical_pattern="false"
       fuse_tolerance="0" />
    <inkscape:path-effect
       effect="spiro"
       id="path-effect3550"
       is_visible="true" />
    <inkscape:path-effect
       effect="skeletal"
       id="path-effect3540"
       is_visible="true"
       pattern="m -69.216133,-97.002722 c 0,-2.76 2.24,-4.999998 5,-4.999998 2.76,0 5,2.239998 5,4.999998 0,2.76 -2.24,5 -5,5 -2.76,0 -5,-2.24 -5,-5 z"
       copytype="single_stretched"
       prop_scale="1"
       scale_y_rel="false"
       spacing="0"
       normal_offset="0"
       tang_offset="0"
       prop_units="false"
       vertical_pattern="false"
       fuse_tolerance="0" />
    <inkscape:path-effect
       effect="spiro"
       id="path-effect3538"
       is_visible="true" />
    <inkscape:path-effect
       effect="skeletal"
       id="path-effect3496"
       is_visible="true"
       pattern="M 0,5 C 0,2.24 2.24,0 5,0 7.76,0 10,2.24 10,5 10,7.76 7.76,10 5,10 2.24,10 0,7.76 0,5 Z"
       copytype="single_stretched"
       prop_scale="1"
       scale_y_rel="false"
       spacing="0"
       normal_offset="0"
       tang_offset="0"
       prop_units="false"
       vertical_pattern="false"
       fuse_tolerance="0" />
    <inkscape:path-effect
       effect="skeletal"
       id="path-effect3492"
       is_visible="true"
       pattern="M 0,5 C 0,2.24 2.24,0 5,0 7.76,0 10,2.24 10,5 10,7.76 7.76,10 5,10 2.24,10 0,7.76 0,5 Z"
       copytype="single_stretched"
       prop_scale="1"
       scale_y_rel="false"
       spacing="0"
       normal_offset="0"
       tang_offset="0"
       prop_units="false"
       vertical_pattern="false"
       fuse_tolerance="0" />
    <inkscape:path-effect
       effect="skeletal"
       id="path-effect3472"
       is_visible="true"
       pattern="m -69.216133,-97.002722 c 0,-2.76 2.24,-4.999998 5,-4.999998 2.76,0 5,2.239998 5,4.999998 0,2.76 -2.24,5 -5,5 -2.76,0 -5,-2.24 -5,-5 z"
       copytype="single_stretched"
       prop_scale="1"
       scale_y_rel="false"
       spacing="0"
       normal_offset="0"
       tang_offset="0"
       prop_units="false"
       vertical_pattern="false"
       fuse_tolerance="0" />
    <inkscape:path-effect
       effect="skeletal"
       id="path-effect3468"
       is_visible="true"
       pattern="m -69.216133,-97.002722 c 0,-2.76 2.24,-4.999998 5,-4.999998 2.76,0 5,2.239998 5,4.999998 0,2.76 -2.24,5 -5,5 -2.76,0 -5,-2.24 -5,-5 z"
       copytype="single_stretched"
       prop_scale="1"
       scale_y_rel="false"
       spacing="0"
       normal_offset="0"
       tang_offset="0"
       prop_units="false"
       vertical_pattern="false"
       fuse_tolerance="0" />
    <inkscape:path-effect
       effect="skeletal"
       id="path-effect3464"
       is_visible="true"
       pattern="m -69.216133,-97.002722 c 0,-2.76 2.24,-4.999998 5,-4.999998 2.76,0 5,2.239998 5,4.999998 0,2.76 -2.24,5 -5,5 -2.76,0 -5,-2.24 -5,-5 z"
       copytype="single_stretched"
       prop_scale="1"
       scale_y_rel="false"
       spacing="0"
       normal_offset="0"
       tang_offset="0"
       prop_units="false"
       vertical_pattern="false"
       fuse_tolerance="0" />
    <inkscape:path-effect
       effect="skeletal"
       id="path-effect3460"
       is_visible="true"
       pattern="M 0,5 C 0,2.24 2.24,0 5,0 7.76,0 10,2.24 10,5 10,7.76 7.76,10 5,10 2.24,10 0,7.76 0,5 Z"
       copytype="single_stretched"
       prop_scale="1"
       scale_y_rel="false"
       spacing="0"
       normal_offset="0"
       tang_offset="0"
       prop_units="false"
       vertical_pattern="false"
       fuse_tolerance="0" />
    <inkscape:path-effect
       effect="skeletal"
       id="path-effect3456"
       is_visible="true"
       pattern="M 0,5 C 0,2.24 2.24,0 5,0 7.76,0 10,2.24 10,5 10,7.76 7.76,10 5,10 2.24,10 0,7.76 0,5 Z"
       copytype="single_stretched"
       prop_scale="1"
       scale_y_rel="false"
       spacing="0"
       normal_offset="0"
       tang_offset="0"
       prop_units="false"
       vertical_pattern="false"
       fuse_tolerance="0" />
    <inkscape:path-effect
       effect="skeletal"
       id="path-effect3452"
       is_visible="true"
       pattern="m -69.216133,-97.002722 c 0,-2.76 2.24,-4.999998 5,-4.999998 2.76,0 5,2.239998 5,4.999998 0,2.76 -2.24,5 -5,5 -2.76,0 -5,-2.24 -5,-5 z"
       copytype="single_stretched"
       prop_scale="1"
       scale_y_rel="false"
       spacing="0"
       normal_offset="0"
       tang_offset="0"
       prop_units="false"
       vertical_pattern="false"
       fuse_tolerance="0" />
    <inkscape:path-effect
       effect="skeletal"
       id="path-effect3436"
       is_visible="true"
       pattern="M 0,5 C 0,2.24 2.24,0 5,0 7.76,0 10,2.24 10,5 10,7.76 7.76,10 5,10 2.24,10 0,7.76 0,5 Z"
       copytype="single_stretched"
       prop_scale="1"
       scale_y_rel="false"
       spacing="0"
       normal_offset="0"
       tang_offset="0"
       prop_units="false"
       vertical_pattern="false"
       fuse_tolerance="0" />
    <inkscape:path-effect
       effect="skeletal"
       id="path-effect3432"
       is_visible="true"
       pattern="M 0,5 C 0,2.24 2.24,0 5,0 7.76,0 10,2.24 10,5 10,7.76 7.76,10 5,10 2.24,10 0,7.76 0,5 Z"
       copytype="single_stretched"
       prop_scale="1"
       scale_y_rel="false"
       spacing="0"
       normal_offset="0"
       tang_offset="0"
       prop_units="false"
       vertical_pattern="false"
       fuse_tolerance="0" />
    <inkscape:path-effect
       effect="skeletal"
       id="path-effect3420"
       is_visible="true"
       pattern="M 0,5 C 0,2.24 2.24,0 5,0 7.76,0 10,2.24 10,5 10,7.76 7.76,10 5,10 2.24,10 0,7.76 0,5 Z"
       copytype="single_stretched"
       prop_scale="1"
       scale_y_rel="false"
       spacing="0"
       normal_offset="0"
       tang_offset="0"
       prop_units="false"
       vertical_pattern="false"
       fuse_tolerance="0" />
    <inkscape:path-effect
       effect="skeletal"
       id="path-effect3416"
       is_visible="true"
       pattern="M 0,5 C 0,2.24 2.24,0 5,0 7.76,0 10,2.24 10,5 10,7.76 7.76,10 5,10 2.24,10 0,7.76 0,5 Z"
       copytype="single_stretched"
       prop_scale="1"
       scale_y_rel="false"
       spacing="0"
       normal_offset="0"
       tang_offset="0"
       prop_units="false"
       vertical_pattern="false"
       fuse_tolerance="0" />
    <inkscape:path-effect
       effect="skeletal"
       id="path-effect3404"
       is_visible="true"
       pattern="m -69.216133,-97.002722 c 0,-2.76 2.24,-4.999998 5,-4.999998 2.76,0 5,2.239998 5,4.999998 0,2.76 -2.24,5 -5,5 -2.76,0 -5,-2.24 -5,-5 z"
       copytype="single_stretched"
       prop_scale="1"
       scale_y_rel="false"
       spacing="0"
       normal_offset="0"
       tang_offset="0"
       prop_units="false"
       vertical_pattern="false"
       fuse_tolerance="0" />
  </defs>
  <sodipodi:namedview
     pagecolor="#ffffff"
     bordercolor="#666666"
     borderopacity="1"
     objecttolerance="10"
     gridtolerance="10"
     guidetolerance="10"
     inkscape:pageopacity="0"
     inkscape:pageshadow="2"
     inkscape:window-width="1280"
     inkscape:window-height="962"
     id="namedview3394"
     showgrid="false"
     inkscape:zoom="0.54900496"
     inkscape:cx="-99.487458"
     inkscape:cy="393.37173"
     inkscape:window-x="-8"
     inkscape:window-y="-8"
     inkscape:window-maximized="1"
     inkscape:current-layer="svg3392" />
  <path
     style="fill:#87de87;fill-rule:evenodd;stroke:none;stroke-width:1px;stroke-linecap:butt;stroke-linejoin:miter;stroke-opacity:1"
     d="m 242.25649,53.077717 c 0.0454,-0.05091 0.11159,-0.08285 0.1989,-0.09579 0.0858,-0.01264 0.1913,-0.0065 0.31624,0.01844 l 0,0 0,0 0,0 c 0.25188,0.05065 0.57892,0.177536 0.979,0.382403 l 0,0 c 0.81172,0.415651 1.8905,1.135481 3.21913,2.189254 l 0,0 c 2.75651,2.186329 6.31621,5.576119 10.50749,10.446374 l 0,0 c 9.04196,11.428942 18.52014,28.041166 27.06368,51.358827 l -10e-6,0 c 2.30744,0.2031 2.85313,0.68213 1.62658,1.39192 l 0,0 c 0.30819,-0.49769 0.45636,-0.7529 0.43168,-0.77317 0,0 0,0 0,0 l 0,0 c 0.0558,-0.17817 0.0731,-0.15876 0.0154,0.0524 l 0,0 0,0 0,0 c -0.13015,0.62644 -0.17026,1.39829 -0.20359,2.30726 l 0,0 c -0.0824,2.95584 0.38819,6.03885 1.26516,9.13856 1.00096,3.51195 2.61158,6.94341 4.72964,10.15008 0.4669,0.70687 0.95513,1.39774 1.4624,2.07123 3.8795,5.21946 9.07491,9.42211 14.49637,12.76571 4e-5,1e-5 5e-5,2e-5 5e-5,2e-5 1.05352,0.56464 2.09932,1.12631 3.13699,1.68477 2.69877,1.73368 5.04563,4.21419 6.62594,7.32924 0.90774,1.95332 1.37053,4.02795 1.40872,6.09016 0.0156,2.63755 -0.53422,5.03977 -1.38943,7.11155 -2.81662,6.37113 -7.95629,10.72914 -12.26542,13.86001 0,0 10e-6,0 10e-6,0 0.41412,0.0777 0.66545,-0.15194 0.86976,-0.69594 0.13928,0.58622 0.36272,1.19321 0.63266,1.80789 1.36552,3.08515 3.68005,5.9846 5.78538,8.47065 0.27862,1.06855 0.54476,2.105 0.79857,3.1097 0.16794,2.21993 -0.16107,4.35585 -0.87329,6.25378 -1.23877,3.04871 -3.38637,5.1063 -5.43188,6.33612 -7.28376,4.29863 -11.75118,1.8025 -11.73672,1.89888 -0.25778,-1.71852 4.1692,-0.94531 9.07617,-5.56572 1.207,-1.12887 2.37901,-2.70727 2.72613,-4.44638 0.26479,-1.05272 0.27662,-2.24032 0.0442,-3.45501 -0.0433,-0.38263 -0.0801,-0.76061 -0.11023,-1.13381 -2.36879,-1.98676 -5.04323,-4.58091 -7.01393,-8.03165 -0.50184,-0.89796 -0.95808,-1.88794 -1.32949,-2.97171 -0.0513,-1.38107 0.0408,-2.47761 0.17547,-3.24171 0,1e-5 0,-1e-5 0,-1e-5 3.92951,-4.37598 8.46746,-9.61545 10.22874,-15.37198 0.41463,-1.29511 0.68211,-2.55575 0.57553,-3.63022 -0.0563,-0.80491 -0.2739,-1.61577 -0.6418,-2.3042 -0.47474,-1.14099 -1.61535,-2.18212 -3.0037,-3.12339 -0.99427,-0.49473 -1.99474,-0.99367 -3.00108,-1.49669 0,0 -10e-6,0 -10e-6,0 -6.43589,-3.69652 -12.72549,-8.68639 -17.7495,-15.21105 -0.64033,-0.84027 -1.25558,-1.70558 -1.8433,-2.59466 -2.66659,-4.03393 -4.67723,-8.42145 -5.93881,-12.99001 -1.0997,-3.95985 -1.62068,-8.06945 -1.43859,-12.17841 l 0,0 c 0.0458,-1.20385 0.18063,-2.52644 0.48303,-3.9434 l 0,0 10e-6,-2e-5 -10e-6,1e-5 c 0.0631,-0.35976 0.21409,-0.90721 0.48542,-1.62544 0,0 10e-6,-10e-6 10e-6,-10e-6 0.0355,-0.1711 0.24877,-0.57679 0.65066,-1.20712 l -1.4e-4,1e-4 c -1.17874,0.64209 -0.57387,1.04147 1.81617,1.24454 l 2.3e-4,2e-5 C 270.18955,94.702168 260.85778,80.85657 252.79154,69.544837 l 0,0 c -3.66743,-5.627447 -5.85166,-8.625066 -8.08028,-11.848758 l 0,0 c -0.91892,-1.329229 -1.64145,-2.417235 -2.05869,-3.169005 l 0,0 c -0.21109,-0.380342 -0.35464,-0.693451 -0.42285,-0.933296 l 0,0 0,-10e-7 0,0 c -0.0344,-0.120342 -0.0501,-0.223599 -0.0463,-0.309043 0.004,-0.08682 0.0277,-0.156153 0.0731,-0.207017 z"
     id="path3402"
     inkscape:path-effect="#path-effect3404"
     inkscape:original-d="m 242.25647,53.077698 c 0,0 20.94698,18.21477 40.0725,62.840962 -0.91074,0 -5.46444,25.50068 23.6792,42.80471 0,0 22.11718,7.8175 -3.3204,31.00112 0.32199,0.96599 0.64399,4.82992 7.72787,11.91381 0,0 4.82992,13.20178 -14.48976,16.09973"
     inkscape:connector-curvature="0" />
  <path
     style="fill:#87de87;fill-rule:evenodd;stroke:none;stroke-width:1px;stroke-linecap:butt;stroke-linejoin:miter;stroke-opacity:1"
     d="m 308.17123,216.66914 c 0.40532,-0.54201 1.30768,-0.66995 2.65174,-0.39832 0,0 10e-6,0 10e-6,0 1.10923,0.34159 2.69184,1.21314 4.09312,3.05829 1.20669,1.68433 2.05702,4.17168 1.5556,7.12728 -0.71261,2.49456 -2.59271,4.33266 -5.01922,4.9571 l 0,0 c 0.0401,-0.0838 0.0815,-0.15886 0.11935,-0.23581 0.0782,-0.15895 0.1487,-0.3201 0.21362,-0.48687 0,0 0,-2e-5 0,-2e-5 0.24444,-0.62795 0.40759,-1.32989 0.49455,-2.11336 0,0 1e-5,-2e-5 1e-5,-2e-5 0.30206,0.39838 0.52373,0.72211 0.67748,0.95896 0.60002,0.90439 1.12617,1.80397 1.60699,2.68988 0.38399,0.70372 0.75546,1.42706 1.11203,2.16914 1.04327,2.17122 1.88208,4.34275 2.52794,6.47101 1.19199,3.81384 1.6713,7.44339 1.39107,10.73587 -0.15189,1.93374 -0.65157,3.6583 -1.36829,5.0269 -1.54383,3.02592 -3.6685,3.16105 -4.2501,2.61697 -0.56209,-0.52583 -0.64076,-2.2906 -0.92955,-3.86137 -0.1841,-1.03964 -0.42687,-1.8386 -0.83599,-3.2658 -0.73519,-2.524 -1.61214,-4.54783 -3.05945,-7.96272 -0.76658,-1.75615 -1.58447,-3.54513 -2.48991,-5.42957 -0.30786,-0.64073 -0.61638,-1.27281 -0.92479,-1.89667 -0.40232,-0.80761 -0.75549,-1.52338 -1.11589,-2.18755 -0.11838,-0.20738 -0.16943,-0.32222 -0.17116,-0.33911 0,0 0,-3e-5 0,-3e-5 0.006,-0.89381 0.0879,-1.70605 0.23738,-2.4317 0,0 10e-6,-2e-5 10e-6,-2e-5 0.0397,-0.19273 0.0843,-0.37975 0.13169,-0.55768 0.0229,-0.0862 0.0448,-0.1715 0.0704,-0.24555 l 0,0 c 1.83629,-2.95602 3.11739,-4.81839 3.62162,-6.78579 0.42915,-0.45912 0.61827,-1.32939 0.60989,-2.08356 1.1e-4,-0.94274 -0.42794,-2.11264 -0.70012,-2.96159 0,0 0,0 0,0 -0.52677,-1.12512 -0.65426,-2.02772 -0.25002,-2.56829 z"
     id="path3450"
     inkscape:path-effect="#path-effect3452"
     inkscape:original-d="m 308.17117,216.66911 c 0,0 10.24581,6.03365 0,14.57182 0.34153,-0.22768 12.40882,20.94699 5.80596,28.00521"
     inkscape:connector-curvature="0" />
  <path
     style="fill:#87de87;fill-rule:evenodd;stroke:none;stroke-width:1px;stroke-linecap:butt;stroke-linejoin:miter;stroke-opacity:1"
     d="m 257.5114,145.97305 c 0.0429,-0.13098 0.0967,-0.25215 0.1629,-0.37261 0,0 10e-6,0 10e-6,0 0.0627,-0.11379 0.13594,-0.22395 0.21839,-0.32863 l 0,0 0,0 0,0 c 0.16145,-0.20658 0.36098,-0.39958 0.59158,-0.57329 l 0,0 c 0.44937,-0.33858 1.02563,-0.6229 1.69313,-0.85343 l 0,0 c 1.25805,-0.43469 2.80799,-0.69188 4.48435,-0.90268 l 0,0 c 0,0 0,0 0,0 1.32818,-0.18167 2.98024,-0.31814 4.06175,-0.53474 0.0171,-0.003 0.0341,-0.007 0.0511,-0.0103 0.0309,-0.01 2.67562,-0.55937 1.96583,-0.34153 1.7739,-1.34139 3.59584,-2.32776 4.909,-2.73859 -0.0692,0.0914 0.87614,-0.51292 1.77885,-0.83983 0,0 0,0 0,0 2.14528,0.12649 1.23323,1.39724 1.14393,1.57585 -0.18536,0.37072 -1.27494,0.96551 0.0446,1.25211 0,0 0,0 0,0 0.45535,-0.14652 1.32785,-0.34605 0.91436,0.30926 0.1582,1.73819 -0.53293,4.08015 -2.00692,6.45418 -1.80183,2.27451 -4.32534,3.81793 -6.96059,4.16697 -0.0374,0.006 -0.0747,0.0127 -0.11209,0.0188 -2.64692,0.43453 -4.9644,0.15134 -6.77151,-0.40176 0,0 0,0 0,0 l 0,0 c -2.15847,-0.63274 -3.81104,-1.61092 -4.86109,-2.62048 l 0,0 c -0.56876,-0.54537 -0.97293,-1.10299 -1.19771,-1.64655 l 0,0 c -0.11553,-0.27948 -0.18488,-0.55175 -0.20487,-0.81852 l 0,0 0,0 0,0 c -0.01,-0.13471 -0.007,-0.26643 0.008,-0.39656 0,0 0,0 0,0 0.0159,-0.13713 0.0442,-0.26645 0.0872,-0.39764 z"
     id="path3466"
     inkscape:path-effect="#path-effect3468"
     inkscape:original-d="m 257.51134,145.97303 c 0,0 12.18113,4.09832 16.62098,-0.91074 4.43985,-5.00906 3.30143,-5.57827 4.43985,-5.00906"
     inkscape:connector-curvature="0" />
  <path
     style="fill:#87de87;fill-rule:evenodd;stroke:none;stroke-width:1px;stroke-linecap:butt;stroke-linejoin:miter;stroke-opacity:1"
     d="m 204.47938,237.05772 c -0.21343,0.85373 -3.69641,0.7971 -10.24648,-0.34253 -7.25319,-7.30955 -19.76841,-21.6277 -34.34081,-39.39708 -0.24233,-5.62627 -0.43614,-11.42308 -0.61161,-17.45636 -0.39122,-13.45141 -0.39702,-15.88369 -0.76246,-28.10112 0,0 1e-5,0 1e-5,0 25.26589,16.98382 41.50248,30.05488 39.84345,32.16796 -1.68099,2.14104 -17.85099,-10.3215 -38.07926,-29.01103 0,0 0,-1e-5 0,-1e-5 1.79974,8.49525 3.18762,14.6276 5.19883,23.96084 1.10006,5.10494 2.13168,10.01297 3.08694,14.8443 12.30036,16.02352 22.5366,30.33223 28.12616,39.16963 4.94472,1.72985 7.99767,3.31564 7.78523,4.1654 z"
     id="path3536"
     inkscape:path-effect="#path-effect3538;#path-effect3540"
     inkscape:original-d="m 204.47938,237.05772 c 0,0 -5.79591,3.21994 -9.01585,-2.25397 -0.96599,-1.93197 -31.23349,-19.64167 -31.23349,-39.28335 -4.82992,-41.85932 -4.82992,-42.18131 -4.82992,-42.18131 0,0 21.25165,3.54194 38.96136,30.5895"
     inkscape:connector-curvature="0" />
  <path
     style="fill:#87de87;fill-rule:evenodd;stroke:none;stroke-width:1px;stroke-linecap:butt;stroke-linejoin:miter;stroke-opacity:1"
     d="m 212.8457,40.319702 c 0.006,0.04028 0.006,0.08117 0.001,0.12267 -0.008,0.0412 -0.0233,0.08326 -0.045,0.126145 0,0 0,0 0,0 -0.0432,0.08555 -0.11296,0.174637 -0.20846,0.267065 0,0 0,0 0,0 l 0,0 c -0.18968,0.183831 -0.482,0.382236 -0.87067,0.594532 l 0,0 c -0.76822,0.419611 -1.92534,0.901092 -3.4151,1.44338 l 0,0 c -2.88539,1.050346 -7.18927,2.387373 -12.37578,4.005419 l 0,0 c -9.65896,3.015669 -23.4266,7.281523 -37.76095,13.354527 -4.39914,1.864567 -8.90445,3.917748 -13.38028,6.204877 -2.33278,1.19204 -4.59646,2.416359 -6.79551,3.679891 -6.7726,3.899513 -12.61365,7.933835 -17.6733,12.37785 -5.80017,5.107166 -10.00243,10.167642 -13.03915,15.211089 0,0 -10e-6,3e-6 -10e-6,3e-6 -6.61216,10.90685 -6.61014,19.28459 -8.417722,19.24654 -0.713437,-0.015 -3.849967,-8.70132 2.114722,-22.463862 0,10e-7 0,-4e-6 0,-4e-6 2.68998,-6.170715 6.97133,-12.561579 13.12635,-18.637807 5.34495,-5.289276 11.65103,-10.043303 18.87502,-14.318612 2.34878,-1.392696 4.76854,-2.724461 7.25831,-3.997822 4.78182,-2.445605 9.57405,-4.548968 14.24683,-6.370524 15.33315,-5.979492 29.65873,-9.138559 39.99776,-10.657984 l 0,0 c 5.54844,-0.816898 10.03186,-1.167185 13.20156,-1.172144 l 0,0 c 1.61592,-0.0025 2.8753,0.08502 3.75108,0.251548 l 0,0 c 0.44104,0.08387 0.78215,0.187085 1.01968,0.309075 l 0,0 c 0,0 0,0 0,0 0.11899,0.06122 0.21168,0.126896 0.27763,0.197104 0,0 0,0 0,0 0.033,0.03516 0.0593,0.07141 0.0788,0.108751 0.0162,0.03859 0.0272,0.07802 0.0328,0.118293 z"
     id="path3554"
     inkscape:path-effect="#path-effect3556"
     inkscape:original-d="m 212.85124,40.318938 c 0,0 -112.69815,15.45575 -113.986133,76.634752"
     inkscape:connector-curvature="0" />
  <path
     style="fill:#87de87;fill-rule:evenodd;stroke:none;stroke-width:1px;stroke-linecap:butt;stroke-linejoin:miter;stroke-opacity:1"
     d="m 120.76075,133.6974 c -0.0344,-0.01 -0.0674,-0.0235 -0.0994,-0.0411 0,0 0,0 0,0 -0.0309,-0.017 -0.0606,-0.0376 -0.0892,-0.0619 -0.0572,-0.0485 -0.10953,-0.11132 -0.15737,-0.18835 l 0,0 0,0 c -0.0955,-0.15428 -0.17121,-0.36447 -0.22764,-0.62917 l 0,0 0,0 c -0.11247,-0.5277 -0.14428,-1.26483 -0.089,-2.19791 l 0,0 c 0.10989,-1.85333 0.56216,-4.43369 1.43676,-7.61487 l 0,0 c 1.7154,-6.24341 5.00936,-14.64678 10.51679,-23.723696 3.12441,-5.157542 6.93696,-10.455961 11.51191,-15.550425 3.62755,-4.039481 7.43311,-7.614949 11.33319,-10.732176 0,0 0,-2e-6 0,-2e-6 9.38227,-7.491403 18.69369,-11.682056 25.71163,-13.725475 6.98373,-2.033459 11.34581,-1.906355 11.63514,-0.881649 0.3268,1.157421 -3.41579,3.07807 -9.27432,6.46709 -5.9885,3.464205 -13.73656,8.25683 -21.8885,15.499901 0,10e-7 0,3e-6 0,3e-6 -3.39619,3.013451 -6.75536,6.34665 -10.0752,10.049851 -4.17946,4.662079 -7.85654,9.419928 -11.08953,14.004808 -5.73222,8.14345 -9.83943,15.38919 -12.97473,20.83125 l 0,0 c -1.55457,2.69956 -2.86388,4.93954 -3.85886,6.38628 l 0,0 c -0.51059,0.74246 -0.9598,1.30726 -1.34198,1.66469 l 0,0 0,0 c -0.1926,0.18013 -0.37073,0.30915 -0.53265,0.38403 l 0,0 0,0 c -0.0814,0.0378 -0.15914,0.0619 -0.23292,0.072 -0.037,0.005 -0.073,0.007 -0.10816,0.005 0,0 0,0 0,0 -0.0364,-0.002 -0.0716,-0.008 -0.10598,-0.0178 z"
     id="path3558"
     inkscape:path-effect="#path-effect3560"
     inkscape:original-d="m 120.76075,133.69741 c 0,0 16.74373,-59.891022 71.48283,-75.346762"
     inkscape:connector-curvature="0" />
  <path
     style="fill:#87de87;fill-rule:evenodd;stroke:none;stroke-width:1px;stroke-linecap:butt;stroke-linejoin:miter;stroke-opacity:1"
     d="m 176.45311,107.54625 c 0.031,-0.0239 0.0645,-0.0438 0.10103,-0.0603 0.0354,-0.0159 0.0733,-0.0283 0.11372,-0.0372 0.0808,-0.0178 0.17167,-0.0218 0.27237,-0.0121 0,0 0,0 0,0 l 0,0 c 0.20117,0.0195 0.44107,0.0936 0.71794,0.22032 l 0,0 c 0.55168,0.25258 1.24685,0.71367 2.06948,1.37066 l 0,0 c 1.63081,1.30246 3.74424,3.36074 6.20657,6.08534 l 0,0 c 4.77649,5.28477 10.83393,13.03463 16.96532,22.49899 2.13206,3.28807 4.28077,6.79084 6.36919,10.46765 3.91172,6.88686 7.1085,13.4991 9.63541,19.82295 3.52411,8.71147 5.32737,15.74619 5.84077,21.60451 0.48658,5.5522 -0.32202,8.75121 -1.28058,8.84164 -1.03855,0.098 -2.10395,-2.86939 -4.01777,-7.59964 -2.41693,-5.97373 -4.32838,-10.12822 -8.8235,-19.11428 -2.99333,-5.91008 -6.204,-11.84586 -10.05092,-18.6138 -2.01198,-3.53972 -4.0325,-7.01662 -5.95335,-10.31087 -5.51818,-9.45535 -10.49829,-17.79602 -13.84399,-23.92988 l 0,0 c -1.72794,-3.1677 -3.0453,-5.78936 -3.80859,-7.69617 l 0,0 c -0.38669,-0.96601 -0.63428,-1.75649 -0.72627,-2.3502 l 0,0 c -0.0462,-0.29843 -0.0531,-0.54811 -0.0189,-0.74619 l 0,0 c 0,0 0,0 0,0 0.0171,-0.0994 0.0446,-0.18588 0.0827,-0.25916 0.0191,-0.0367 0.0408,-0.0701 0.0653,-0.10015 0.0252,-0.031 0.0531,-0.0583 0.0841,-0.0822 z"
     id="path3618"
     inkscape:path-effect="#path-effect3620"
     inkscape:original-d="m 176.4531,107.54624 c 0,0 43.79129,56.67107 47.01123,90.80251"
     inkscape:connector-curvature="0" />
  <path
     style="fill:#87de87;fill-rule:evenodd;stroke:none;stroke-width:1px;stroke-linecap:butt;stroke-linejoin:miter;stroke-opacity:1"
     d="m 194.48482,97.242412 c 0.0294,-0.02323 0.062,-0.04214 0.098,-0.05676 0.0351,-0.0143 0.0733,-0.0245 0.11459,-0.03062 0.0825,-0.01223 0.17718,-0.0082 0.28386,0.0119 0,0 0,0 0,0 l 0,0 c 0.21321,0.04026 0.47341,0.144629 0.77859,0.311283 l 0,0 c 0.60877,0.332437 1.39076,0.910422 2.32783,1.723265 l 0,1e-6 c 1.86284,1.615921 4.30225,4.127861 7.16272,7.465631 l 0,0 c 5.58836,6.52011 12.68456,16.06287 19.74655,27.90029 2.98608,5.00028 5.96598,10.40818 8.77312,16.14915 3.86655,7.90761 6.97194,15.56114 9.37739,22.9382 4.00421,12.18447 5.57163,22.2496 5.66935,30.16191 0.094,7.61454 -1.18116,11.93199 -2.16884,11.9198 -1.11258,-0.0137 -1.81222,-4.30485 -3.45652,-11.24544 -1.82035,-7.6837 -4.19213,-15.91071 -8.79485,-27.6989 -2.72115,-6.91829 -5.86948,-14.0369 -9.61098,-21.68003 -2.69938,-5.5143 -5.46917,-10.81493 -8.1513,-15.79572 -6.43759,-11.94222 -12.16824,-21.60053 -16.41547,-29.11527 l 0,0 c -2.11143,-3.73537 -3.78231,-6.81382 -4.78935,-8.99787 l 0,0 c -0.51154,-1.1094 -0.86178,-2.008895 -1.02706,-2.672476 l 0,0 c -0.0831,-0.333683 -0.11972,-0.609611 -0.10744,-0.82447 l 0,0 c 0,0 0,-10e-7 0,-10e-7 0.006,-0.107806 0.0246,-0.200484 0.0557,-0.277556 0.0156,-0.03861 0.0344,-0.07334 0.0564,-0.10413 0.0225,-0.03154 0.0484,-0.05896 0.0778,-0.08218 z"
     id="path3622"
     inkscape:path-effect="#path-effect3624"
     inkscape:original-d="m 194.48481,97.242404 c 0,0 52.80713,66.330916 52.16314,118.494056"
     inkscape:connector-curvature="0" />
  <path
     style="fill:#87de87;fill-rule:evenodd;stroke:none;stroke-width:1px;stroke-linecap:butt;stroke-linejoin:miter;stroke-opacity:1"
     d="m 145.54161,152.62551 c 0.94003,0.1204 1.06165,6.1503 0.49958,16.48136 -0.19627,9.53251 -0.41112,23.18299 0.74931,38.87599 1.06274,14.3157 3.25973,30.98523 8.41236,47.51091 0.72877,2.32393 1.51832,4.6534 2.37354,6.97601 5.2383,14.22611 12.21429,26.23909 20.93443,35.74315 27.29903,29.86837 45.62923,51.75608 44.33184,53.38311 0,0 0,0 0,0 -0.0278,0.0279 -0.0223,0.0222 -0.0223,0.0222 0,0 0.006,-0.005 -0.0233,0.0211 0,0 0,0 0,0 -1.693,1.21002 -22.58634,-18.246 -50.97757,-47.07818 -10.02074,-10.24994 -18.03767,-23.32546 -23.65131,-38.63458 -0.91706,-2.50092 -1.74914,-5.00515 -2.50215,-7.50053 -5.37552,-17.71636 -7.18386,-35.17683 -7.48969,-50.03889 -0.34327,-16.38078 1.10338,-30.23506 2.71724,-39.85256 2.07054,-10.22182 3.70781,-16.02954 4.64809,-15.90911 z"
     id="path3630"
     inkscape:path-effect="#path-effect3632"
     inkscape:original-d="m 145.54161,152.6255 c 0,0 -18.0317,98.53038 29.62352,148.76155 47.65521,50.23118 47.65521,50.23118 47.65521,50.23118"
     inkscape:connector-curvature="0" />
  <path
     style="fill:#87de87;fill-rule:evenodd;stroke:none;stroke-width:1px;stroke-linecap:butt;stroke-linejoin:miter;stroke-opacity:1"
     d="m 124.93395,153.91348 c 0.028,0.0113 0.0534,0.0289 0.0763,0.0525 0.0224,0.0231 0.0424,0.0521 0.06,0.0869 0,0 0,1e-5 0,1e-5 0.0351,0.0693 0.0607,0.16184 0.077,0.277 l 0,0 0,0 c 0.0324,0.22862 0.0284,0.54753 -0.01,0.95284 l 0,0 c -0.0757,0.79874 -0.28592,1.94306 -0.61132,3.39953 l 0,0 c -0.62843,2.81291 -1.71055,6.88838 -3.07044,11.95298 l 0,0 c -2.41867,9.00975 -6.18028,22.73537 -9.35731,37.94927 l 0,0 c -2.67086,12.84136 -5.42613,28.37111 -5.61281,44.05873 l 0,0 c -0.0724,6.44201 0.25249,13.05356 1.53552,19.43603 0.12568,0.61163 0.25881,1.22159 0.40018,1.8287 1.13844,4.88875 2.76782,9.40189 5.2262,13.20207 7.02261,11.10611 10.69615,23.3042 12.73316,34.2845 2.43175,13.01774 2.88883,25.37328 2.65294,35.52628 -2.4115,23.93592 -4.61392,38.62537 -6.0283,38.48903 0,0 0,0 0,0 -0.003,-3.4e-4 -0.003,-3.4e-4 -0.003,-3.4e-4 0,0 0,0 -0.003,-3.6e-4 0,0 0,0 0,0 -1.40998,-0.1799 -1.76134,-15.11429 -1.19886,-38.66031 -0.53195,-9.76294 -1.62116,-21.54641 -4.3535,-33.5069 -2.34442,-10.21033 -5.90267,-21.28317 -12.13741,-30.7615 -3.22968,-5.03128 -5.348819,-10.60153 -6.650516,-16.32844 -0.161685,-0.71134 -0.309976,-1.42164 -0.44574,-2.12981 -1.43955,-7.36155 -1.764615,-14.67641 -1.560119,-21.58287 l 0,0 c 0.48888,-16.85207 3.847505,-32.77676 7.300965,-45.784 l 0,0 c 4.13573,-15.63047 8.97627,-28.75313 12.73659,-37.65904 l 0,0 c 2.0742,-4.91344 3.89072,-8.70399 5.30907,-11.27284 l 0,0 c 0.72916,-1.3206 1.3479,-2.30825 1.84234,-2.95174 l 0,0 c 0.24995,-0.32529 0.46686,-0.56101 0.64918,-0.70525 l 0,0 0,0 c 0.0916,-0.0724 0.17429,-0.12164 0.2479,-0.14738 0,0 0,0 0,0 0.0369,-0.0129 0.0715,-0.0199 0.10378,-0.0209 0.0329,-0.001 0.0634,0.004 0.0914,0.0153 z"
     id="path3634"
     inkscape:path-effect="#path-effect3636"
     inkscape:original-d="m 124.93395,153.91347 c 0,0 -39.927345,97.8864 -15.45575,135.88177 24.4716,37.99538 13.52378,105.61427 13.52378,105.61427"
     inkscape:connector-curvature="0" />
  <path
     style="fill:#87de87;fill-rule:evenodd;stroke:none;stroke-width:1px;stroke-linecap:butt;stroke-linejoin:miter;stroke-opacity:1"
     d="m 231.83619,52.807137 c 0.01,0.03572 0.0156,0.07205 0.0179,0.10953 0.002,0.03604 0.001,0.07291 -0.003,0.110567 -0.009,0.07513 -0.0305,0.153754 -0.0651,0.235406 0,0 0,0 0,0 l 0,0 c -0.0685,0.162532 -0.18761,0.339073 -0.35455,0.527875 l 0,0 c -0.33123,0.374632 -0.85516,0.806148 -1.54595,1.289312 l 0,0 c -1.35109,0.945066 -3.41431,2.141372 -5.93251,3.549473 l 0,0 c -4.98771,2.790528 -11.72843,6.401849 -19.22806,11.293464 -3.7858,2.476231 -7.72774,5.250364 -11.60186,8.353917 -3.79219,3.037929 -7.16397,6.106423 -10.19416,9.239996 0,0 0,3e-6 0,3e-6 -6.35695,6.57154 -10.50369,12.72945 -13.56892,17.64184 -2.96617,4.75363 -4.66028,7.84532 -5.78651,7.53963 -1.00455,-0.27266 -1.32,-3.95956 0.34505,-9.90024 1.67604,-5.979912 5.31296,-13.835728 11.94358,-21.656514 0,0 0,-3e-6 0,-3e-6 3.15539,-3.722505 6.82354,-7.306576 11.00252,-10.664555 4.28364,-3.442087 8.69284,-6.316402 12.97031,-8.687644 8.41217,-4.67593 16.20416,-7.405324 21.96576,-8.755984 l 0,0 c 2.96511,-0.695792 5.37527,-1.021591 7.10508,-1.043832 l 0,0 c 0.87346,-0.01121 1.56481,0.05448 2.06037,0.192171 l 0,0 c 0.24885,0.06915 0.44688,0.155426 0.59266,0.259388 l 0,0 c 0,0 0,0 0,0 0.0728,0.05211 0.13237,0.10825 0.17856,0.16871 0.0231,0.03024 0.0428,0.06151 0.0591,0.0938 0.017,0.03358 0.0302,0.06796 0.0398,0.103694 z"
     id="path3638"
     inkscape:path-effect="#path-effect3640"
     inkscape:original-d="m 231.8362,52.807133 c 0,0 -56.02709,14.811757 -68.26288,59.891017"
     inkscape:connector-curvature="0" />
  <path
     style="fill:#87de87;fill-rule:evenodd;stroke:none;stroke-width:1px;stroke-linecap:butt;stroke-linejoin:miter;stroke-opacity:1"
     d="m 121.714,202.21269 c 0.85349,0.1582 0.91561,4.3055 0.31779,11.43368 -0.31383,5.94597 -0.87986,15.23925 -0.58172,25.09568 0.26528,8.13751 0.97699,18.00099 4.02258,26.96891 1.25173,3.67782 2.87407,7.3025 5.13401,10.35049 2.03233,2.75401 4.62517,5.17731 7.62314,6.74354 0.1499,0.0803 0.29954,0.1611 0.44893,0.24239 9.11289,4.95947 16.77851,11.51627 23.17952,17.74241 8.05808,7.79794 14.84445,15.84562 20.20311,22.79944 l 0,0 c 6.10819,7.92212 10.71803,14.90491 13.6753,19.96754 l 0,0 c 1.58301,2.70981 2.71061,4.90114 3.37403,6.49215 l 0,0 c 0.33883,0.81261 0.55457,1.46387 0.64481,1.94399 l 0,0 c 0.0455,0.24227 0.0591,0.44019 0.04,0.59261 l 0,0 0,0 c -0.009,0.0767 -0.0272,0.14163 -0.0532,0.19485 l 0,0 0,0 c -0.0558,0.0555 -0.0823,0.0869 -0.0948,0.10442 -0.0123,0.0173 -0.0109,0.0211 -0.0108,0.0214 0,0 0,0 0,0 0,0 0,0 0,0 0,0 0,0 0,0 0,0 0,0 0,0 0,0 0,0 0,0 0,0 0,0 0,0 0,0 0,0 0,0 0,0 0,0 0,0 0,0 0,0 0,0 0,0 0,0 0,0 1e-5,10e-6 1e-5,10e-6 1e-5,10e-6 0,0 0,0 -1e-5,-10e-6 0,0 0,0 0,0 0,0 0,0 0,0 0,0 0,0 0,0 0,0 0,0 0,0 0,0 0,0 0,0 0,0 0,0 0,0 0,0 0,0 0,0 0,0 0,0 0,0 0,0 0,0 0,0 0,0 0,0 0,0 -2.3e-4,-2.6e-4 -0.003,-0.003 -0.0239,0.002 -0.0209,0.005 -0.0599,0.0181 -0.13219,0.0492 l 0,0 0,1e-5 c -0.0589,0.005 -0.12568,-0.002 -0.20004,-0.021 l 0,0 0,0 c -0.14812,-0.0372 -0.32716,-0.1204 -0.53594,-0.24786 l 0,0 c -0.41295,-0.2521 -0.94541,-0.67895 -1.58938,-1.26569 l 0,0 c -1.25514,-1.14357 -2.95691,-2.91588 -5.04731,-5.191 l 0,0 c -2.73118,-2.9724 -10.52792,-11.75287 -15.97054,-17.64498 l 0,0 c -5.78725,-6.26223 -12.90505,-13.7407 -20.78288,-20.83844 -6.36146,-5.70235 -13.51959,-11.66435 -21.42962,-15.90684 -0.13028,-0.0699 -0.26067,-0.13924 -0.39119,-0.20811 -4.52565,-2.43573 -8.22244,-5.89091 -10.9711,-9.80165 -2.96764,-4.23942 -4.93313,-8.81644 -6.2335,-13.24071 -3.15351,-10.71696 -3.35966,-21.38495 -2.88441,-29.94892 0.56233,-10.64019 2.29919,-19.71522 3.86178,-25.79834 2.0095,-6.93763 3.55375,-10.78952 4.40749,-10.63128 z"
     id="path3642"
     inkscape:path-effect="#path-effect3644"
     inkscape:original-d="m 121.714,202.21268 c 0,0 -16.09973,68.90687 14.16777,85.00661 30.2675,16.09973 63.75495,65.68692 63.75495,65.68692"
     inkscape:connector-curvature="0" />
  <path
     style="fill:#87de87;fill-rule:evenodd;stroke:none;stroke-width:1px;stroke-linecap:butt;stroke-linejoin:miter;stroke-opacity:1"
     d="m 109.47597,108.19591 c 0.0376,0.0146 0.0729,0.0347 0.10599,0.0601 0.0311,0.0286 0.0594,0.0643 0.0848,0.10674 0,0 0,0 0,0 0.0509,0.0848 0.0907,0.19713 0.11963,0.33621 0,0 0,0 0,0 l 0,0 c 0.0578,0.27709 0.0729,0.66129 0.0478,1.14684 l 0,0 c -0.05,0.9638 -0.25904,2.33598 -0.60506,4.0683 l 0,0 c -0.67872,3.39803 -1.90678,8.28315 -3.48456,14.24322 l 0,0 c -3.00017,11.3348 -7.484676,27.28722 -11.798351,45.01855 -1.181487,4.86773 -2.377889,9.93303 -3.515692,15.07745 -3.030498,13.70198 -5.117715,25.61296 -6.423645,37.12609 0,0 0,1e-5 0,1e-5 -1.046339,9.26303 -1.405214,16.54301 -1.225396,23.38538 0.35588,12.07488 2.55418,19.32093 1.58113,19.77884 -1.113134,0.52383 -5.941926,-5.93296 -8.093228,-19.14141 -1.174689,-7.08539 -1.579601,-15.15678 -1.091242,-24.74003 0,0 0,-1e-5 0,-1e-5 0.601612,-11.91624 2.406131,-24.64933 5.481691,-38.5688 1.167667,-5.28466 2.448118,-10.42465 3.771941,-15.35116 4.853223,-18.10045 10.481926,-33.66873 15.126025,-44.69705 l 0,0 c 2.429837,-5.77092 4.593377,-10.29648 6.313857,-13.37232 l 0,0 c 0.87043,-1.55614 1.62043,-2.72792 2.22967,-3.48827 l 0,0 c 0.30604,-0.38195 0.57531,-0.6586 0.80545,-0.82608 l 0,0 c 0,0 0,0 0,0 0.1153,-0.0838 0.22058,-0.14022 0.3156,-0.16858 0,0 0,0 0,0 0.0476,-0.0142 0.0925,-0.0214 0.13485,-0.0215 0.0416,0.004 0.0812,0.0129 0.11874,0.0275 z"
     id="path3646"
     inkscape:path-effect="#path-effect3648"
     inkscape:original-d="m 109.4782,108.19022 c 0,0 -45.723246,116.56209 -25.115584,160.35337"
     inkscape:connector-curvature="0" />
  <path
     style="fill:#87de87;fill-rule:evenodd;stroke:none;stroke-width:1px;stroke-linecap:butt;stroke-linejoin:miter;stroke-opacity:1"
     d="m 84.362614,117.20608 c 1.257014,0.4022 -0.558432,10.0175 -4.533585,25.3743 0,0 -1e-6,1e-5 -1e-6,1e-5 -3.394478,13.84894 -8.806728,34.62734 -13.825984,56.05879 -0.833546,3.55886 -1.668832,7.18638 -2.492416,10.86031 -1.597572,7.1266 -3.042867,13.9455 -4.354873,20.63391 -2.140477,10.92392 -3.726736,20.3398 -4.84844,29.53185 -1.215081,10.08535 -1.676587,17.30802 -1.421364,24.42908 0.140366,3.86556 0.451122,6.7582 0.934476,9.42083 0.893367,4.83008 2.122847,7.46033 1.562664,7.87189 -0.513519,0.37728 -3.146609,-1.43219 -5.42696,-6.66358 -1.182011,-2.68954 -2.171021,-5.94813 -2.89745,-9.98704 -1.321312,-7.31762 -1.66639,-15.52573 -1.105902,-25.79744 0.504748,-9.47604 1.716858,-19.48412 3.616447,-30.56511 1.170658,-6.8367 2.565407,-13.8434 4.183248,-21.06169 0.836673,-3.73296 1.706497,-7.40428 2.596186,-10.99874 5.500954,-22.22362 11.809132,-41.78628 16.962626,-55.77257 0,0 2e-6,0 2e-6,0 5.690363,-14.85131 9.794169,-23.73703 11.051326,-23.3348 z"
     id="path3650"
     inkscape:path-effect="#path-effect3652"
     inkscape:original-d="m 84.362616,117.20608 c 0,0 -52.163144,152.62549 -28.979525,184.18097"
     inkscape:connector-curvature="0" />
  <path
     style="fill:#87de87;fill-rule:evenodd;stroke:none;stroke-width:1px;stroke-linecap:butt;stroke-linejoin:miter;stroke-opacity:1"
     d="m 170.01321,215.73647 c 2.28278,-0.96786 12.43529,17.70108 23.59435,43.01692 0,0 1e-5,10e-6 1e-5,10e-6 1.47275,3.07745 2.58208,5.40852 4.11231,8.60789 4.84432,10.12837 8.53011,17.66488 12.72355,25.81186 0,0 0,0 0,0 3.12783,6.07237 5.26398,10.03351 7.74674,14.34989 3.82751,6.5721 6.51799,10.51859 5.91815,11.25173 -0.80996,0.98995 -5.31469,-1.33395 -10.93055,-7.58311 -3.27769,-3.6219 -6.61702,-8.0682 -10.23374,-13.6742 0,0 0,-1e-5 0,-1e-5 -4.83815,-7.49781 -9.58418,-16.09692 -14.29401,-25.94692 -1.4293,-2.9892 -2.78414,-5.94427 -4.06294,-8.82777 0,0 -10e-6,-10e-6 -10e-6,-10e-6 -10.48628,-25.73768 -16.85699,-46.03827 -14.57386,-47.00628 z"
     id="path3654"
     inkscape:path-effect="#path-effect3656"
     inkscape:original-d="m 170.01321,215.73646 c 0,0 32.84346,85.65059 54.09511,103.03831"
     inkscape:connector-curvature="0" />
  <path
     style="fill:#87de87;fill-rule:evenodd;stroke:none;stroke-width:1px;stroke-linecap:butt;stroke-linejoin:miter;stroke-opacity:1"
     d="m 240.89034,63.095824 c 0.77155,1.901708 -6.87359,6.909423 -18.33117,12.380573 -3.74156,2.181775 -7.66739,4.520853 -11.87024,7.167498 -8.85828,5.578294 -14.51786,9.691959 -20.49535,13.819268 -5.26424,3.634827 -8.82878,5.841097 -9.86734,4.883677 -0.98708,-0.90996 0.75916,-4.849848 5.13429,-10.104083 4.43792,-5.329638 11.24267,-11.576823 20.1645,-17.182731 4.50172,-2.828592 8.95641,-5.126061 13.14873,-6.934524 12.33283,-4.177976 21.34398,-5.933962 22.11658,-4.029678 z"
     id="path3658"
     inkscape:path-effect="#path-effect3660"
     inkscape:original-d="m 240.89036,63.095818 c 0,0 -33.69733,9.107385 -60.56412,38.251022"
     inkscape:connector-curvature="0" />
  <path
     style="fill:#87de87;fill-rule:evenodd;stroke:none;stroke-width:1px;stroke-linecap:butt;stroke-linejoin:miter;stroke-opacity:1"
     d="m 237.70276,48.523992 c -0.0176,0.02748 -0.0384,0.05258 -0.0624,0.07574 -0.0231,0.02229 -0.0492,0.04264 -0.0782,0.06106 -0.0578,0.03675 -0.12747,0.06611 -0.20837,0.08798 0,0 0,0 0,0 l 0,0 c -0.16064,0.04384 -0.368,0.05985 -0.61845,0.0492 l 0,0 0,0 c -0.49648,-0.02111 -1.18109,-0.144866 -2.02479,-0.348873 l 0,0 c -1.5886,-0.384092 -4.14468,-1.158662 -7.02155,-1.993621 l 0,0 c -6.18441,-1.794321 -14.18065,-3.944054 -24.57794,-5.312486 l 0,0 c -7.79157,-1.023766 -16.31465,-1.474121 -25.5415,-1.012369 -3.7834,0.189338 -7.46907,0.521471 -11.04205,0.967544 0,0 -1e-5,2e-6 -1e-5,2e-6 -13.90621,1.726758 -25.8953,5.211768 -34.51677,7.839766 -8.62945,2.630428 -13.93024,4.374758 -14.52543,3.229026 -0.52765,-1.01572 3.74585,-4.78513 12.06671,-9.170914 8.29555,-4.372439 20.62591,-9.290181 35.60427,-11.632718 0,10e-7 0,-1e-6 0,-1e-6 3.83848,-0.597887 7.8193,-1.017963 11.91422,-1.222214 9.97416,-0.497503 19.26463,0.351593 27.56612,2.078619 l 0,0 c 10.94922,2.276671 19.44683,5.902243 25.20614,9.252861 2.84524,1.655282 4.92368,3.190374 6.25603,4.441365 l 0,0 c 0.66581,0.625178 1.13272,1.167432 1.40249,1.611645 l 0,10e-7 0,0 c 0.13497,0.222258 0.21979,0.417327 0.2538,0.58458 l 0,0 c 0,0 0,10e-7 0,10e-7 0.0168,0.08348 0.0211,0.159442 0.0126,0.228119 -0.004,0.03432 -0.0116,0.06672 -0.0221,0.0972 -0.0109,0.03164 -0.0251,0.061 -0.0428,0.08849 z"
     id="path3670"
     inkscape:path-effect="#path-effect3672"
     inkscape:original-d="m 237.70277,48.524 c 0,0 -50.09062,-32.786589 -120.21749,3.642955"
     inkscape:connector-curvature="0" />
  <path
     style="fill:#87de87;fill-rule:evenodd;stroke:none;stroke-width:1px;stroke-linecap:butt;stroke-linejoin:miter;stroke-opacity:1"
     d="m 111.10785,59.446024 c -0.0379,0.01358 -0.0777,0.02087 -0.11944,0.02229 -0.0412,-0.0029 -0.085,-0.01325 -0.13145,-0.0305 0,0 0,0 0,0 -0.0898,-0.03338 -0.19053,-0.09333 -0.30209,-0.177546 l 0,0 c -0.20794,-0.155215 -0.45685,-0.393803 -0.75698,-0.695751 l 0,0 c -0.47124,-0.472049 -1.23599,-1.280012 -2.09539,-1.885241 l 0,0 c -0.7103,-0.487125 -1.64867,-0.98173 -2.54558,-1.016193 l 0,0 c -0.92043,-0.114783 -1.97159,0.244418 -3.18357,0.885508 l 0,0 c -1.79215,0.976874 -3.272371,2.540371 -5.186382,4.745287 l 0,0 c -2.587794,3.080691 -4.796828,6.551375 -7.373958,11.012476 l 0,0 c -8.097765,14.079807 -13.774407,27.776888 -21.940779,48.206098 -0.683829,1.71652 -1.37556,3.44516 -2.074705,5.1845 -12.896098,32.08297 -25.094771,59.79391 -32.60317,74.54105 l 0,0 c -2.438774,4.78996 -4.382729,8.21225 -5.695043,9.97247 l 0,0 c -0.455968,0.61159 -0.835682,1.02254 -1.133402,1.22047 l 0,0 c -0.180905,0.043 -0.287511,0.082 -0.358075,0.1039 l 0,0 0,0 c -0.05593,-0.004 -0.08145,1.8e-4 -0.0936,0.004 m -0.0041,0.0103 c 0,0 0,0 0,0 -0.0097,-0.003 -0.0094,-0.003 -0.0094,-0.003 0,0 -8.7e-5,5.8e-4 -0.009,-0.004 0,0 0,0 0,0 m 0.0041,-0.0103 c -0.006,-0.0113 -0.02123,-0.0323 -0.06467,-0.0678 l 0,0 0,0 c -0.03577,-0.0647 -0.08572,-0.1666 -0.186556,-0.32282 l 0,0 c -0.0779,-0.34892 -0.06757,-0.90834 0.02659,-1.66536 l 0,0 c 0.271008,-2.17879 1.236416,-5.99442 2.791221,-11.1397 l 0,0 c 4.78687,-15.84109 15.160491,-44.28562 28.056589,-76.3686 0.699146,-1.73933 1.396241,-3.46582 2.09065,-5.17809 C 66.270039,96.846402 73.52196,81.610668 82.841149,68.143555 l 0,0 c 3.049982,-4.425354 6.037435,-8.109313 9.396843,-11.221504 l 0,0 c 2.372857,-2.257435 4.910799,-4.012339 7.724028,-5.029395 l 0,0 c 2.11145,-0.796294 4.33229,-0.801112 6.22879,-0.181368 l 0,0 c 1.81952,0.677427 3.01382,1.845866 3.73112,2.873248 l 0,0 c 0.87572,1.244719 1.26183,2.429246 1.40797,3.209023 l 0,0 c 0.09,0.474265 0.10479,0.856017 0.068,1.130849 l 0,10e-7 c -0.0203,0.145917 -0.0546,0.262761 -0.1015,0.350461 0,0 0,10e-7 0,10e-7 -0.0241,0.04508 -0.0514,0.08221 -0.0817,0.111537 -0.0333,0.02624 -0.069,0.04604 -0.10685,0.05962"
     id="path3674"
     inkscape:path-effect="#path-effect3676"
     inkscape:original-d="m 111.11011,59.452863 c 0,0 -10.92887,-33.697327 -48.269147,59.198007 C 25.50068,211.54621 25.50068,211.54621 25.50068,211.54621"
     inkscape:connector-curvature="0" />
  <path
     style="fill:#87de87;fill-rule:evenodd;stroke:none;stroke-width:1px;stroke-linecap:butt;stroke-linejoin:miter;stroke-opacity:1"
     d="m 244.07195,77.922712 c 0.12726,2.041565 -3.99301,4.065056 -9.63201,5.140818 0,0 0,0 0,0 -1.46445,0.690954 -2.9447,1.506567 -4.41694,2.501726 -0.71809,0.485399 -1.39586,0.987658 -2.03807,1.501502 0,0 0,1e-6 0,1e-6 -2.43442,1.760919 -4.71703,4.045772 -6.46495,5.535299 -1.82442,1.554712 -3.36161,2.525045 -4.49554,2.064388 -1.0887,-0.442286 -1.65616,-2.291185 -1.11756,-5.108541 0.53156,-2.780589 2.20425,-6.539901 5.65782,-9.898587 0,10e-7 0,-10e-7 0,-10e-7 1.03471,-0.93964 2.19133,-1.811425 3.45799,-2.584451 2.6032,-1.58869 5.3289,-2.553338 7.8827,-2.996515 0,0 0,0 0,0 6.5854,0.328702 11.03837,1.787918 11.16656,3.844361 z"
     id="path3678"
     inkscape:path-effect="#path-effect3680"
     inkscape:original-d="m 244.07199,77.922721 c 0,0 -18.67569,-3.863936 -27.04755,16.743725"
     inkscape:connector-curvature="0" />
  <path
     style="fill:#87de87;fill-rule:evenodd;stroke:none;stroke-width:1px;stroke-linecap:butt;stroke-linejoin:miter;stroke-opacity:1"
     d="m 71.037611,288.04826 c 1.286601,-0.11641 2.961738,5.32168 4.666772,14.31791 0,0 10e-7,0 10e-7,0 1.749752,8.57804 3.645621,19.86034 6.019727,32.91653 0.479094,2.6259 0.977418,5.35436 1.486986,8.073 2.034123,10.85243 3.856186,19.37764 6.123642,27.90367 0,0 10e-7,0 10e-7,0 1.612181,6.0313 2.917739,10.21534 4.539327,14.36411 2.583758,6.37472 4.968251,10.18607 4.485701,10.80266 -0.73841,0.94352 -5.303504,-1.02262 -9.888086,-7.91997 -2.646941,-3.89891 -5.02887,-8.64053 -7.295236,-14.60133 10e-7,0 -10e-7,0 -10e-7,0 -3.201243,-8.3905 -5.767705,-17.85694 -7.800376,-28.7061 -0.526067,-2.80783 -0.99208,-5.5761 -1.408473,-8.27485 -2.058473,-13.28313 -2.882546,-25.21992 -2.946915,-33.90718 0,0 0,-10e-6 0,-10e-6 0.05898,-9.19912 0.730065,-14.852 2.01693,-14.96844 z"
     id="path3682"
     inkscape:path-effect="#path-effect3684"
     inkscape:original-d="m 71.03761,288.04825 c 0,0 6.37517,91.9846 27.322158,108.37789"
     inkscape:connector-curvature="0" />
  <path
     style="fill:#87de87;fill-rule:evenodd;stroke:none;stroke-width:1px;stroke-linecap:butt;stroke-linejoin:miter;stroke-opacity:1"
     d="m 143.8967,323.56707 c 0.0758,-0.002 0.15153,0.006 0.22704,0.0236 0,0 0,0 0,0 0.0736,0.0174 0.1472,0.0442 0.22063,0.0802 0,0 0,0 0,0 0.14626,0.0716 0.2927,0.17968 0.43853,0.32227 l 0,0 c 0.28964,0.28214 0.58112,0.70157 0.87228,1.24272 l 0,0 c 0.57404,1.06682 1.16279,2.62678 1.77069,4.55249 l 0,0 c 1.17584,3.72263 2.4653,8.94281 4.02748,14.73343 0.6476,2.38469 1.34463,4.90667 2.10352,7.43801 1.09963,3.66792 2.19298,6.90091 3.38612,9.99015 0,0 0,0 0,0 2.1159,5.3635 3.55812,8.28073 5.26042,11.61514 1.43932,2.81931 2.40555,4.72197 1.72954,5.55704 -0.63858,0.78883 -2.90111,0.39064 -5.94731,-1.79967 -3.10114,-2.22981 -6.55955,-6.02594 -9.45428,-11.4377 0,0 0,0 0,0 -1.79405,-3.30309 -3.33441,-6.9991 -4.55442,-11.04357 -0.85478,-2.83369 -1.48444,-5.61301 -1.93823,-8.25586 -1.11789,-6.4475 -1.21788,-12.11859 -0.78602,-16.20311 l 0,0 c 0.22238,-2.10773 0.58528,-3.7899 1.03959,-4.96005 l 0,0 c 0.22956,-0.59123 0.48016,-1.04885 0.74844,-1.36239 l 0,0 c 0.1347,-0.15684 0.27294,-0.27715 0.41488,-0.35973 0,0 0,0 0,0 0.0711,-0.0414 0.14298,-0.0732 0.2156,-0.0953 0,0 0,0 0,0 0.0745,-0.0228 0.14967,-0.0353 0.2255,-0.0376 z"
     id="path3686"
     inkscape:path-effect="#path-effect3688"
     inkscape:original-d="m 143.8967,323.56705 c 0,0 0.91074,40.0725 20.03625,55.55506"
     inkscape:connector-curvature="0" />
  <path
     style="fill:#87de87"
     id="path3702"
     d="m 313.06555,229.77111 c -0.0907,0.37521 -0.17236,0.75151 -0.27241,1.12455 -0.0529,0.33398 -0.19607,0.63867 -0.29968,0.9572 -0.0391,0.16503 -0.5617,1.6941 -0.89951,0.67977 -0.0252,-0.22943 -0.0217,-0.45941 -0.0468,-0.68931 -0.0369,-0.28446 -0.062,-0.57006 -0.0721,-0.85669 -0.007,-0.3052 -0.007,-0.61046 -0.008,-0.91572 -0.004,-0.27808 0.0332,-0.5576 0.12202,-0.82115 0.0779,-0.19528 0.14679,-0.39932 0.2827,-0.56315 0.24834,-0.12029 0.48132,-0.27958 0.74501,-0.36088 0.11147,-0.0344 0.18831,0.83411 0.19293,0.88724 0.0262,0.33633 0.0335,0.67365 0.0363,1.01085 0.001,0.23649 9e-5,0.47298 -4e-4,0.70948 0.006,0.34854 0.0754,0.19556 -0.69913,0.40093 -0.0218,0.006 0.0315,-0.34935 0.0344,-0.37107 0.0643,-0.32314 0.12755,-0.64631 0.2293,-0.96006 0.10788,-0.35478 0.81513,-1.21155 0.96434,-0.48181 0.0527,0.30836 0.007,0.61655 -0.0269,0.92371 -0.0186,0.19823 -0.0102,0.1 -0.025,0.2948 0,0 -0.69512,0.34761 -0.69512,0.34761 l 0,0 c 0.0148,-0.19669 0.007,-0.0976 0.0248,-0.29743 0.031,-0.29958 0.0888,-0.59965 0.0334,-0.90042 -0.0686,-0.35461 -0.12667,-0.0803 0.61044,-0.50035 0.0226,-0.0129 -0.041,0.0327 -0.0572,0.0531 -0.058,0.0731 -0.0859,0.14679 -0.12579,0.23116 -0.10953,0.30748 -0.16972,0.62677 -0.23563,0.94579 -0.0105,0.0875 -0.0261,0.1746 -0.0314,0.2626 -0.002,0.0316 0.0266,0.076 0.001,0.0951 -0.80693,0.60809 -0.70401,0.67858 -0.69818,0.31098 6.3e-4,-0.2368 0.002,-0.4736 0.003,-0.71041 8.4e-4,-0.33688 -1e-4,-0.67406 -0.0233,-1.01032 -0.0169,-0.20061 -0.0312,-0.4021 -0.0799,-0.59825 -0.0116,-0.0468 -0.024,-0.0937 -0.0426,-0.13817 -0.009,-0.021 -0.0569,-0.0426 -0.0387,-0.0563 0.19795,-0.14806 0.42146,-0.25844 0.63219,-0.38766 -0.16845,0.12648 -0.22015,0.35091 -0.30482,0.53415 -0.10192,0.25072 -0.13421,0.528 -0.13627,0.79737 -1.4e-4,0.30416 -0.001,0.60841 0.008,0.91247 0.0108,0.28485 0.0291,0.5694 0.0675,0.85206 0.0279,0.22415 0.0385,0.44664 0.0514,0.67172 0.0683,0.29609 0.0272,0.0544 -0.66173,0.4393 -0.0152,0.008 0.0258,-0.0242 0.0345,-0.0393 0.0401,-0.0697 0.0597,-0.15497 0.0843,-0.2296 0.0155,-0.047 0.032,-0.0937 0.048,-0.1405 0.0954,-0.32283 0.2591,-0.6216 0.30914,-0.95856 0.10033,-0.36758 0.18437,-0.73722 0.25679,-1.11128 0,0 0.7086,-0.3436 0.7086,-0.3436 z"
     inkscape:connector-curvature="0" />
  <path
     style="fill:#87de87"
     id="path3704"
     d="m 313.8538,229.88059 c -0.12018,0.19153 -0.25625,0.37185 -0.37233,0.56605 -0.13093,0.22444 -0.23053,0.46646 -0.31386,0.71217 -0.0812,0.22923 -0.16275,0.45878 -0.23369,0.69146 0,0 -0.7056,0.33436 -0.7056,0.33436 l 0,0 c 0.0671,-0.23456 0.15119,-0.46431 0.23341,-0.69385 0.0791,-0.2505 0.18044,-0.49631 0.30779,-0.72614 0.10429,-0.19776 0.23955,-0.37512 0.36573,-0.55896 0,0 0.71855,-0.32509 0.71855,-0.32509 z"
     inkscape:connector-curvature="0" />
  <path
     style="fill:#87de87"
     id="path3710"
     d="m 177.22491,190.93208 c 0.94617,0.0532 1.88793,0.182 2.83427,0.25253 0.85325,0.003 1.67873,0.13319 2.49021,0.3881 0.68191,0.2192 1.35466,0.4805 2.0133,0.76323 0.88608,0.38628 1.71836,0.85181 2.49255,1.42695 0.53921,0.45469 1.0505,0.92141 1.45874,1.49924 0.36703,0.5902 0.44504,1.287 0.58055,1.95458 0.21691,0.8086 0.40416,1.62125 0.49596,2.45389 0.0722,0.83325 0.0768,1.67072 0.0834,2.50655 8.1e-4,0.76321 -0.002,1.52643 -0.001,2.28965 -0.05,0.69159 0.1757,1.33852 0.36491,1.99074 0.18364,0.70024 0.55413,1.29993 0.93138,1.90674 0.48151,0.74595 0.94042,0.99565 1.70555,1.37927 0.89705,0.38463 1.69333,0.96118 2.54178,1.43762 0.83629,0.50159 1.76775,0.78283 2.70052,1.04075 1.0498,0.26027 2.08215,0.55761 3.1511,0.73302 1.15734,0.0897 2.28383,0.35072 3.41238,0.60421 0,0 -1.8026,1.24802 -1.8026,1.24802 l 0,0 c -1.11752,-0.26654 -2.23853,-0.50926 -3.38658,-0.60613 -1.07608,-0.18641 -2.12483,-0.4758 -3.18379,-0.73925 -0.94239,-0.27302 -1.87475,-0.57886 -2.71975,-1.09124 -0.84324,-0.48477 -1.65393,-1.03283 -2.55016,-1.41909 -0.76851,-0.38935 -1.30307,-0.73015 -1.77262,-1.47965 -0.38708,-0.62419 -0.77347,-1.23819 -0.96596,-1.95703 -0.19133,-0.67112 -0.43992,-1.33611 -0.39065,-2.04743 0.003,-0.76325 0.005,-1.5265 0.004,-2.28976 -3.7e-4,-0.82954 -2e-5,-1.66043 -0.0701,-2.48767 -0.0883,-0.8257 -0.25305,-1.63701 -0.48985,-2.43365 -0.13195,-0.6355 -0.20692,-1.30376 -0.54191,-1.87151 -0.39536,-0.55591 -0.89704,-1.00269 -1.41051,-1.44806 -0.75913,-0.57064 -1.58901,-1.01556 -2.46753,-1.37912 -0.65938,-0.27014 -1.32661,-0.52822 -2.00622,-0.74246 -0.7972,-0.24467 -1.61347,-0.33251 -2.44614,-0.35934 -0.95147,-0.0796 -1.90234,-0.21942 -2.85775,-0.21415 0,0 1.80244,-1.30955 1.80244,-1.30955 z"
     inkscape:connector-curvature="0" />
  <path
     style="fill:#87de87"
     id="path3712"
     d="m 190.67993,201.11695 c 0.774,-0.3804 0.63995,-0.32138 -1.28537,0.74976 -0.11565,0.0643 0.22533,-0.13898 0.33979,-0.20542 0.7533,-0.43726 1.51933,-0.85292 2.26343,-1.30564 0.49466,-0.30096 -1.00431,0.57687 -1.51478,0.85015 -0.11984,0.0642 0.22794,-0.14816 0.34191,-0.22225 0.97991,-0.62519 2.01365,-1.16185 3.00577,-1.76573 0.50613,-0.30808 -1.02809,0.58952 -1.54811,0.87354 -0.19805,0.10817 0.37783,-0.24712 0.56127,-0.37856 0.49146,-0.44965 1.06151,-0.79916 1.54126,-1.26019 0.63581,-0.61478 0.96724,-1.40014 1.18992,-2.23874 0.14938,-0.59903 0.21889,-1.17107 -0.16148,-1.68756 -0.39695,-0.40772 -0.74769,-0.85802 -1.08815,-1.31299 -0.37107,-0.38163 -0.78691,-0.7229 -1.20952,-1.04838 -0.56535,-0.46425 -1.14503,-0.91412 -1.75322,-1.32127 -0.6838,-0.42041 -1.40555,-0.77772 -2.17726,-1.00213 -0.64707,-0.16231 -1.31592,-0.17752 -1.97912,-0.18788 -0.64288,-0.1129 -1.28557,-0.21456 -1.9363,-0.26846 -0.6147,-0.10952 -1.08821,-0.42889 -1.47914,-0.89973 0,0 1.8984,-1.14211 1.8984,-1.14211 l 0,0 c 0.36687,0.42228 0.814,0.68986 1.38055,0.75878 0.64611,0.063 1.28282,0.18317 1.92731,0.25621 0.67568,0.0181 1.35642,0.05 2.00942,0.24172 0.77982,0.25501 1.51474,0.62639 2.21198,1.05774 0.60658,0.41884 1.19411,0.86467 1.76898,1.32586 0.4396,0.33408 0.87332,0.68937 1.24309,1.09932 0.34206,0.45718 0.69818,0.90418 1.09672,1.31409 0.40247,0.58177 0.40059,1.19276 0.22919,1.86874 -0.21015,0.85819 -0.51051,1.69024 -1.13541,2.34008 -0.45446,0.4996 -1.03513,0.8251 -1.52379,1.28896 -0.83254,0.66705 -1.92106,1.17965 -2.77329,1.7038 -0.4924,0.30284 0.9959,-0.58739 1.49922,-0.87171 0.25503,-0.14406 -0.9792,0.60598 -0.74942,0.45884 -1.07772,0.68566 -0.22862,0.15032 -2.58179,1.54999 -0.48836,0.30561 0.99592,-0.57942 1.49538,-0.86652 0.11398,-0.0655 -0.22537,0.13545 -0.3389,0.20174 -2.25571,1.31703 -1.45885,0.90506 -2.5105,1.43936 0,0 1.74196,-1.39341 1.74196,-1.39341 z"
     inkscape:connector-curvature="0" />
  <path
     style="fill:#87de87"
     id="path3714"
     d="m 196.02699,197.32168 c -0.14212,0.20459 -0.30275,0.39204 -0.43575,0.6037 -0.0986,0.21246 -0.22202,0.41126 -0.33064,0.61841 -0.11102,0.23503 -0.27593,0.4373 -0.4262,0.64754 -0.17543,0.22611 -0.40851,0.39605 -0.63564,0.56608 -0.20639,0.1675 -0.40739,0.34164 -0.61595,0.50637 -0.20891,0.15977 -0.40393,0.33673 -0.6173,0.49059 -0.42868,0.27014 -0.85727,0.55689 -1.32692,0.74898 -0.22943,0.1258 -0.45702,0.24028 -0.71146,0.30389 -0.25132,0.0539 -0.49832,0.11921 -0.75389,0.15192 -0.26765,0.004 -0.48337,0.16303 -0.70831,0.28941 -0.0558,0.0308 -0.11096,0.0628 -0.16739,0.0924 -0.057,0.03 -0.11614,0.0557 -0.17278,0.0863 -0.60633,0.32785 0.77216,-0.4647 0.24166,-0.12178 -0.0408,0.0264 -0.0813,0.0532 -0.12198,0.0798 -0.11446,0.0709 -0.21326,0.1624 -0.31431,0.25039 0,0 -0.72284,0.29311 -0.72284,0.29311 l 0,0 c 0.10364,-0.0882 0.19817,-0.18681 0.31334,-0.26061 0.49707,-0.33204 1.01977,-0.62392 1.54629,-0.90602 0.23279,-0.13082 0.45564,-0.26702 0.73151,-0.27062 0.25213,-0.0377 0.49781,-0.10255 0.74622,-0.15878 0.2484,-0.0742 0.47177,-0.19972 0.70422,-0.31265 0.2515,-0.11794 0.73842,-0.41092 -0.32385,0.20941 -0.30132,0.17596 0.62679,-0.34232 0.31385,-0.18981 0.22079,-0.14394 0.41322,-0.32524 0.61956,-0.48828 0.21749,-0.15203 0.41002,-0.34017 0.61755,-0.50606 0.22232,-0.17219 0.46001,-0.32868 0.6443,-0.54452 0.14867,-0.2072 0.31241,-0.40621 0.42774,-0.6347 0.10154,-0.21371 0.244,-0.40489 0.33071,-0.62651 0.12938,-0.20929 0.26994,-0.40559 0.42972,-0.59295 0,0 0.71854,-0.3251 0.71854,-0.3251 z"
     inkscape:connector-curvature="0" />
  <path
     style="fill:#87de87"
     id="path3716"
     d="m 191.27598,201.25453 c 0.71419,-0.41143 -0.76985,0.48306 -0.22795,0.11659 0.0422,-0.0285 0.0836,-0.0582 0.12588,-0.0865 0.0409,-0.0274 0.0824,-0.0537 0.1236,-0.0806 0.46076,-0.28986 0.93156,-0.56534 1.42307,-0.79995 0.34696,-0.16766 0.70082,-0.3194 1.05251,-0.47702 0.32544,-0.13115 0.28362,-0.12226 -0.37248,0.2354 -0.0419,0.0229 0.0808,-0.051 0.12143,-0.076 0.10228,-0.0631 0.19663,-0.12173 0.28733,-0.2006 0.1265,-0.14262 0.1735,-0.33458 0.1589,-0.52203 -0.007,-0.01 -0.0108,-0.0329 -0.0222,-0.0288 -0.0138,0.005 -0.0269,0.0482 -0.0137,0.0418 0.21155,-0.10305 0.40978,-0.23186 0.6202,-0.33719 0.029,-0.0145 -0.0512,0.0401 -0.0736,0.0635 -0.0262,0.0275 -0.11166,0.1441 -0.13346,0.17334 -0.13656,0.18645 -0.29324,0.35592 -0.43897,0.53491 -0.15243,0.25779 -0.35853,0.4623 -0.58104,0.6595 -0.24388,0.18911 -0.45821,0.412 -0.69917,0.60429 -0.37607,0.31993 -0.8138,0.547 -1.23939,0.79381 -0.20461,0.1008 -0.43473,0.0898 -0.65256,0.13352 -0.28944,0.1062 -0.58084,0.20105 -0.87869,0.28128 -0.52612,0.15323 -1.06784,0.24766 -1.60158,0.37115 -0.094,0.0217 -0.18796,0.0434 -0.28195,0.0651 0,0 0.60313,-0.45921 0.60313,-0.45921 l 0,0 c 0.093,-0.0209 0.1859,-0.0418 0.27885,-0.0628 0.53972,-0.12188 1.085,-0.22504 1.61503,-0.38563 0.30003,-0.0841 0.59105,-0.1925 0.88949,-0.28014 0.21701,-0.0323 0.44068,-0.0424 0.6361,-0.15459 -1.18166,0.69125 -0.32915,0.20625 -0.0923,-0.014 0.25118,-0.18262 0.45884,-0.41537 0.70703,-0.60222 0.22378,-0.18928 0.43759,-0.38249 0.57881,-0.64353 0.14383,-0.1803 0.30105,-0.34766 0.43898,-0.53247 0.21325,-0.27554 0.76118,-1.01837 1.03777,-0.58508 0.0223,0.20331 -0.0172,0.41585 -0.1321,0.58725 -0.24938,0.26511 -1.04097,0.6624 -1.20952,0.75457 -0.0494,0.027 -0.10387,0.0433 -0.15581,0.065 -0.35209,0.15748 -0.70719,0.30832 -1.05267,0.47999 -0.25115,0.12244 -0.79679,0.43881 0.27056,-0.18338 0.3794,-0.22116 -0.73822,0.40726 -0.36382,0.2187 -0.45056,0.27957 -0.88518,0.58726 -1.36155,0.8247 0,0 0.61587,-0.49264 0.61587,-0.49264 z"
     inkscape:connector-curvature="0" />
  <path
     style="fill:#87de87"
     id="path3718"
     d="m 191.61751,201.02684 c -0.28412,0.17109 0.58175,-0.29904 0.31489,-0.13792 -1.04351,0.62999 -0.51541,0.28983 -0.29252,0.13356 0.21113,-0.12499 0.40401,-0.27669 0.59503,-0.4298 0.21644,-0.17935 0.45203,-0.33238 0.67115,-0.50816 0.0281,0.009 0.23143,-0.23613 0.24089,-0.2303 0.0302,0.0187 0.0415,0.0641 0.0382,0.0995 -0.002,0.0197 -0.0678,0.041 -0.0505,0.0314 0.19559,-0.10778 0.39016,-0.21741 0.58524,-0.32611 -0.29305,0.24037 -0.57949,0.48614 -0.88897,0.7059 -0.27881,0.19523 -0.53094,0.42409 -0.79884,0.63324 -0.21575,0.14501 -0.43232,0.28873 -0.64948,0.43157 -0.25768,0.14691 -0.51255,0.29885 -0.77302,0.44073 -0.0686,0.0374 -0.14731,0.0525 -0.21793,0.0858 -0.0283,0.0134 -0.11002,0.06 -0.0829,0.0444 0.21358,-0.12333 0.79007,-0.16993 0.64225,-0.36735 -0.15257,-0.20376 -0.47566,0.18148 -0.71348,0.27221 0.48435,-0.32004 1.00147,-0.60201 1.53053,-0.84321 0.30895,-0.0936 0.59068,-0.25183 0.89522,-0.35688 0.1641,-0.0341 0.40632,-0.24274 0.55932,-0.18435 0.009,0.0265 0.0268,0.0515 0.0272,0.0796 0.001,0.0953 -0.17234,0.18987 -0.23612,0.22679 -0.25669,0.14859 -0.51512,0.29414 -0.77268,0.4412 -0.25529,0.12674 -0.52479,0.21928 -0.78839,0.32589 -0.24113,0.10066 -0.48676,0.18573 -0.73144,0.27716 -0.15357,0.0667 -0.3446,0.0737 -0.244,-0.14814 0.11724,-0.15182 0.26278,-0.27351 0.41121,-0.39293 0.33377,-0.3008 0.74593,-0.47903 1.1355,-0.69901 0.0266,-0.0123 0.0526,-0.026 0.0799,-0.0369 0.20435,-0.0817 -0.0269,0.0263 0.1591,-0.0714 0.0252,-0.0132 0.10168,-0.0512 0.077,-0.037 -0.7233,0.41869 -0.78677,0.46306 -0.53621,0.297 0.24047,-0.13839 0.58256,-0.6554 0.72141,-0.41519 0.13941,0.24119 -0.45021,0.32862 -0.68303,0.4816 -0.0501,0.0329 -0.1169,0.0295 -0.17141,0.0545 -0.0359,0.0164 -0.13915,0.0745 -0.10499,0.0547 0.18385,-0.10645 0.36945,-0.20986 0.55417,-0.3148 -0.33567,0.20569 -0.68216,0.39334 -1.01941,0.59626 -0.18976,0.11417 0.38318,-0.22217 0.57682,-0.32962 0.0196,-0.0109 -0.049,0.0418 -0.0629,0.0242 0.005,-0.0217 0.001,-0.0486 0.0161,-0.0652 0.0427,-0.047 0.53809,-0.21878 0.62213,-0.2476 0.2508,-0.11466 0.5213,-0.16667 0.77733,-0.26615 0.23717,-0.1165 0.77706,-0.42995 -0.26566,0.15519 0,0 0.72241,-0.28224 0.72241,-0.28224 l 0,0 c -0.34878,0.20708 -0.69354,0.44378 -1.06927,0.60646 -0.25763,0.0927 -0.52583,0.15323 -0.77719,0.2643 -0.0947,0.0346 -0.57764,0.25017 -0.64059,0.24473 -0.0343,-0.003 -0.0613,-0.0313 -0.0919,-0.0469 -0.004,-0.0176 -0.0187,-0.036 -0.0122,-0.0528 0.0286,-0.0739 1.72117,-0.99927 0.26297,-0.17669 -0.0799,0.0451 0.30626,-0.19256 0.23471,-0.14367 0.26104,-0.15061 0.52002,-0.30486 0.78312,-0.45183 0.0589,-0.0329 0.1491,-0.0636 0.21601,-0.0776 0.0286,-0.006 0.1081,-0.0312 0.0871,-0.0108 -0.50259,0.48708 -1.02968,0.7466 0.0564,0.11374 -0.36295,0.23092 -0.72914,0.45546 -1.12398,0.6252 -0.2899,0.14036 -0.0647,0.034 0.50914,-0.30941 0.0259,-0.0155 -0.0543,0.0269 -0.0796,0.0433 -0.0978,0.0631 -0.053,0.0475 -0.14488,0.12228 -0.026,0.0212 -0.0548,0.0388 -0.0821,0.0582 -0.14019,0.1219 -0.29501,0.22624 -0.41239,0.37238 -0.0261,0.0208 -0.0924,0.0596 -0.0703,0.038 0.0198,-0.0193 0.2156,-0.0215 0.20396,-0.0572 0.24353,-0.0915 0.48886,-0.17709 0.72916,-0.27701 0.26564,-0.10177 0.53192,-0.20355 0.78502,-0.33438 -1.15599,0.67749 -0.58502,0.37448 -0.39909,0.23401 0.0176,-0.0133 0.0264,-0.0365 0.0445,-0.0492 0.0397,-0.0277 0.0469,-0.0101 0.0779,0.011 -0.18256,0.0381 -0.33979,0.16943 -0.52346,0.20942 -0.29785,0.11195 -0.58355,0.25404 -0.88472,0.35769 -0.0579,0.0278 -0.1163,0.0547 -0.17372,0.0835 -0.0567,0.0285 -0.11205,0.0596 -0.16861,0.0883 -0.66375,0.33757 0.86458,-0.5266 0.15007,-0.10553 -0.25323,0.10366 -0.63259,0.55329 -0.75969,0.31098 -0.0127,-0.0242 0.54452,-0.33986 0.79186,-0.44688 0.0711,-0.0308 0.27946,-0.13189 0.2137,-0.091 -0.18497,0.11495 -0.3755,0.22069 -0.56326,0.33104 0.22246,-0.13732 0.43251,-0.29439 0.65759,-0.42778 0.27417,-0.20379 0.52127,-0.44068 0.80093,-0.63742 0.30941,-0.21349 0.59865,-0.44935 0.87932,-0.69885 0.25225,-0.1521 0.50293,-0.30684 0.75676,-0.45631 0.0545,-0.0321 0.11925,-0.0593 0.12628,0.0647 3.4e-4,0.006 -0.25375,0.22079 -0.25103,0.23808 -0.21443,0.17892 -0.44852,0.32887 -0.66339,0.50716 -0.19722,0.14845 -0.38029,0.31842 -0.59942,0.43595 -0.43101,0.29774 -0.87656,0.57736 -1.3607,0.78134 0,0 0.61587,-0.49264 0.61587,-0.49264 z"
     inkscape:connector-curvature="0" />
</svg>
