<?xml version="1.0" encoding="UTF-8" standalone="no"?>
<!-- Created with Inkscape (http://www.inkscape.org/) -->

<svg
   xmlns:dc="http://purl.org/dc/elements/1.1/"
   xmlns:cc="http://creativecommons.org/ns#"
   xmlns:rdf="http://www.w3.org/1999/02/22-rdf-syntax-ns#"
   xmlns:svg="http://www.w3.org/2000/svg"
   xmlns="http://www.w3.org/2000/svg"
   xmlns:sodipodi="http://sodipodi.sourceforge.net/DTD/sodipodi-0.dtd"
   xmlns:inkscape="http://www.inkscape.org/namespaces/inkscape"
   id="svg3392"
   version="1.1"
   inkscape:version="0.92.0 r15299"
   width="294.48071"
   height="363.19598"
   viewBox="0 0 294.48071 363.19598"
   sodipodi:docname="Spritelink2.svg">
  <metadata
     id="metadata3398">
    <rdf:RDF>
      <cc:Work
         rdf:about="">
        <dc:format>image/svg+xml</dc:format>
        <dc:type
           rdf:resource="http://purl.org/dc/dcmitype/StillImage" />
        <dc:title></dc:title>
      </cc:Work>
    </rdf:RDF>
  </metadata>
  <defs
     id="defs3396">
    <inkscape:path-effect
       effect="skeletal"
       id="path-effect3688"
       is_visible="true"
       pattern="m -25.192672,-25.051667 c 0,-2.76 2.24,-5 5,-5 2.76,0 5,2.24 5,5 0,2.76 -2.24,5 -5,5 -2.76,0 -5,-2.24 -5,-5 z"
       copytype="single_stretched"
       prop_scale="1"
       scale_y_rel="false"
       spacing="0"
       normal_offset="0"
       tang_offset="0"
       prop_units="false"
       vertical_pattern="false"
       fuse_tolerance="0" />
    <inkscape:path-effect
       effect="skeletal"
       id="path-effect3684"
       is_visible="true"
       pattern="m -25.192672,-25.051667 c 0,-2.76 2.24,-5 5,-5 2.76,0 5,2.24 5,5 0,2.76 -2.24,5 -5,5 -2.76,0 -5,-2.24 -5,-5 z"
       copytype="single_stretched"
       prop_scale="1"
       scale_y_rel="false"
       spacing="0"
       normal_offset="0"
       tang_offset="0"
       prop_units="false"
       vertical_pattern="false"
       fuse_tolerance="0" />
    <inkscape:path-effect
       effect="skeletal"
       id="path-effect3680"
       is_visible="true"
       pattern="m -25.192672,-25.051667 c 0,-2.76 2.24,-5 5,-5 2.76,0 5,2.24 5,5 0,2.76 -2.24,5 -5,5 -2.76,0 -5,-2.24 -5,-5 z"
       copytype="single_stretched"
       prop_scale="1"
       scale_y_rel="false"
       spacing="0"
       normal_offset="0"
       tang_offset="0"
       prop_units="false"
       vertical_pattern="false"
       fuse_tolerance="0" />
    <inkscape:path-effect
       effect="skeletal"
       id="path-effect3676"
       is_visible="true"
       pattern="m -25.192672,-25.051667 c 0,-2.76 2.24,-5 5,-5 2.76,0 5,2.24 5,5 0,2.76 -2.24,5 -5,5 -2.76,0 -5,-2.24 -5,-5 z"
       copytype="single_stretched"
       prop_scale="1"
       scale_y_rel="false"
       spacing="0"
       normal_offset="0"
       tang_offset="0"
       prop_units="false"
       vertical_pattern="false"
       fuse_tolerance="0" />
    <inkscape:path-effect
       effect="skeletal"
       id="path-effect3672"
       is_visible="true"
       pattern="m -25.192672,-25.051667 c 0,-2.76 2.24,-5 5,-5 2.76,0 5,2.24 5,5 0,2.76 -2.24,5 -5,5 -2.76,0 -5,-2.24 -5,-5 z"
       copytype="single_stretched"
       prop_scale="1"
       scale_y_rel="false"
       spacing="0"
       normal_offset="0"
       tang_offset="0"
       prop_units="false"
       vertical_pattern="false"
       fuse_tolerance="0" />
    <inkscape:path-effect
       effect="skeletal"
       id="path-effect3668"
       is_visible="true"
       pattern="M 0,5 C 0,2.24 2.24,0 5,0 7.76,0 10,2.24 10,5 10,7.76 7.76,10 5,10 2.24,10 0,7.76 0,5 Z"
       copytype="single_stretched"
       prop_scale="1"
       scale_y_rel="false"
       spacing="0"
       normal_offset="0"
       tang_offset="0"
       prop_units="false"
       vertical_pattern="false"
       fuse_tolerance="0" />
    <inkscape:path-effect
       effect="skeletal"
       id="path-effect3664"
       is_visible="true"
       pattern="M 0,5 C 0,2.24 2.24,0 5,0 7.76,0 10,2.24 10,5 10,7.76 7.76,10 5,10 2.24,10 0,7.76 0,5 Z"
       copytype="single_stretched"
       prop_scale="1"
       scale_y_rel="false"
       spacing="0"
       normal_offset="0"
       tang_offset="0"
       prop_units="false"
       vertical_pattern="false"
       fuse_tolerance="0" />
    <inkscape:path-effect
       effect="skeletal"
       id="path-effect3660"
       is_visible="true"
       pattern="m -25.192672,-25.051667 c 0,-2.76 2.24,-5 5,-5 2.76,0 5,2.24 5,5 0,2.76 -2.24,5 -5,5 -2.76,0 -5,-2.24 -5,-5 z"
       copytype="single_stretched"
       prop_scale="1"
       scale_y_rel="false"
       spacing="0"
       normal_offset="0"
       tang_offset="0"
       prop_units="false"
       vertical_pattern="false"
       fuse_tolerance="0" />
    <inkscape:path-effect
       effect="skeletal"
       id="path-effect3656"
       is_visible="true"
       pattern="m -25.192672,-25.051667 c 0,-2.76 2.24,-5 5,-5 2.76,0 5,2.24 5,5 0,2.76 -2.24,5 -5,5 -2.76,0 -5,-2.24 -5,-5 z"
       copytype="single_stretched"
       prop_scale="1"
       scale_y_rel="false"
       spacing="0"
       normal_offset="0"
       tang_offset="0"
       prop_units="false"
       vertical_pattern="false"
       fuse_tolerance="0" />
    <inkscape:path-effect
       effect="skeletal"
       id="path-effect3652"
       is_visible="true"
       pattern="m -25.192672,-25.051667 c 0,-2.76 2.24,-5 5,-5 2.76,0 5,2.24 5,5 0,2.76 -2.24,5 -5,5 -2.76,0 -5,-2.24 -5,-5 z"
       copytype="single_stretched"
       prop_scale="1"
       scale_y_rel="false"
       spacing="0"
       normal_offset="0"
       tang_offset="0"
       prop_units="false"
       vertical_pattern="false"
       fuse_tolerance="0" />
    <inkscape:path-effect
       effect="skeletal"
       id="path-effect3648"
       is_visible="true"
       pattern="m -25.192672,-25.051667 c 0,-2.76 2.24,-5 5,-5 2.76,0 5,2.24 5,5 0,2.76 -2.24,5 -5,5 -2.76,0 -5,-2.24 -5,-5 z"
       copytype="single_stretched"
       prop_scale="1"
       scale_y_rel="false"
       spacing="0"
       normal_offset="0"
       tang_offset="0"
       prop_units="false"
       vertical_pattern="false"
       fuse_tolerance="0" />
    <inkscape:path-effect
       effect="skeletal"
       id="path-effect3644"
       is_visible="true"
       pattern="m -25.192672,-25.051667 c 0,-2.76 2.24,-5 5,-5 2.76,0 5,2.24 5,5 0,2.76 -2.24,5 -5,5 -2.76,0 -5,-2.24 -5,-5 z"
       copytype="single_stretched"
       prop_scale="1"
       scale_y_rel="false"
       spacing="0"
       normal_offset="0"
       tang_offset="0"
       prop_units="false"
       vertical_pattern="false"
       fuse_tolerance="0" />
    <inkscape:path-effect
       effect="skeletal"
       id="path-effect3640"
       is_visible="true"
       pattern="m -25.192672,-25.051667 c 0,-2.76 2.24,-5 5,-5 2.76,0 5,2.24 5,5 0,2.76 -2.24,5 -5,5 -2.76,0 -5,-2.24 -5,-5 z"
       copytype="single_stretched"
       prop_scale="1"
       scale_y_rel="false"
       spacing="0"
       normal_offset="0"
       tang_offset="0"
       prop_units="false"
       vertical_pattern="false"
       fuse_tolerance="0" />
    <inkscape:path-effect
       effect="skeletal"
       id="path-effect3636"
       is_visible="true"
       pattern="m -25.192672,-25.051667 c 0,-2.76 2.24,-5 5,-5 2.76,0 5,2.24 5,5 0,2.76 -2.24,5 -5,5 -2.76,0 -5,-2.24 -5,-5 z"
       copytype="single_stretched"
       prop_scale="1"
       scale_y_rel="false"
       spacing="0"
       normal_offset="0"
       tang_offset="0"
       prop_units="false"
       vertical_pattern="false"
       fuse_tolerance="0" />
    <inkscape:path-effect
       effect="skeletal"
       id="path-effect3632"
       is_visible="true"
       pattern="m -25.192672,-25.051667 c 0,-2.76 2.24,-5 5,-5 2.76,0 5,2.24 5,5 0,2.76 -2.24,5 -5,5 -2.76,0 -5,-2.24 -5,-5 z"
       copytype="single_stretched"
       prop_scale="1"
       scale_y_rel="false"
       spacing="0"
       normal_offset="0"
       tang_offset="0"
       prop_units="false"
       vertical_pattern="false"
       fuse_tolerance="0" />
    <inkscape:path-effect
       effect="skeletal"
       id="path-effect3628"
       is_visible="true"
       pattern="M 0,5 C 0,2.24 2.24,0 5,0 7.76,0 10,2.24 10,5 10,7.76 7.76,10 5,10 2.24,10 0,7.76 0,5 Z"
       copytype="single_stretched"
       prop_scale="1"
       scale_y_rel="false"
       spacing="0"
       normal_offset="0"
       tang_offset="0"
       prop_units="false"
       vertical_pattern="false"
       fuse_tolerance="0" />
    <inkscape:path-effect
       effect="skeletal"
       id="path-effect3624"
       is_visible="true"
       pattern="m -25.192672,-25.051667 c 0,-2.76 2.24,-5 5,-5 2.76,0 5,2.24 5,5 0,2.76 -2.24,5 -5,5 -2.76,0 -5,-2.24 -5,-5 z"
       copytype="single_stretched"
       prop_scale="1"
       scale_y_rel="false"
       spacing="0"
       normal_offset="0"
       tang_offset="0"
       prop_units="false"
       vertical_pattern="false"
       fuse_tolerance="0" />
    <inkscape:path-effect
       effect="skeletal"
       id="path-effect3620"
       is_visible="true"
       pattern="m -25.192672,-25.051667 c 0,-2.76 2.24,-5 5,-5 2.76,0 5,2.24 5,5 0,2.76 -2.24,5 -5,5 -2.76,0 -5,-2.24 -5,-5 z"
       copytype="single_stretched"
       prop_scale="1"
       scale_y_rel="false"
       spacing="0"
       normal_offset="0"
       tang_offset="0"
       prop_units="false"
       vertical_pattern="false"
       fuse_tolerance="0" />
    <inkscape:path-effect
       effect="skeletal"
       id="path-effect3616"
       is_visible="true"
       pattern="M 0,5 C 0,2.24 2.24,0 5,0 7.76,0 10,2.24 10,5 10,7.76 7.76,10 5,10 2.24,10 0,7.76 0,5 Z"
       copytype="single_stretched"
       prop_scale="1"
       scale_y_rel="false"
       spacing="0"
       normal_offset="0"
       tang_offset="0"
       prop_units="false"
       vertical_pattern="false"
       fuse_tolerance="0" />
    <inkscape:path-effect
       effect="skeletal"
       id="path-effect3560"
       is_visible="true"
       pattern="m -94.408805,-127.05439 c 0,-2.76 2.24,-5 5,-5 2.76,0 5,2.24 5,5 0,2.76 -2.24,5 -5,5 -2.76,0 -5,-2.24 -5,-5 z"
       copytype="single_stretched"
       prop_scale="1"
       scale_y_rel="false"
       spacing="0"
       normal_offset="0"
       tang_offset="0"
       prop_units="false"
       vertical_pattern="false"
       fuse_tolerance="0" />
    <inkscape:path-effect
       effect="skeletal"
       id="path-effect3556"
       is_visible="true"
       pattern="m -94.408805,-127.05439 c 0,-2.76 2.24,-5 5,-5 2.76,0 5,2.24 5,5 0,2.76 -2.24,5 -5,5 -2.76,0 -5,-2.24 -5,-5 z"
       copytype="single_stretched"
       prop_scale="1"
       scale_y_rel="false"
       spacing="0"
       normal_offset="0"
       tang_offset="0"
       prop_units="false"
       vertical_pattern="false"
       fuse_tolerance="0" />
    <inkscape:path-effect
       effect="skeletal"
       id="path-effect3552"
       is_visible="true"
       pattern="M 0,5 C 0,2.24 2.24,0 5,0 7.76,0 10,2.24 10,5 10,7.76 7.76,10 5,10 2.24,10 0,7.76 0,5 Z"
       copytype="single_stretched"
       prop_scale="1"
       scale_y_rel="false"
       spacing="0"
       normal_offset="0"
       tang_offset="0"
       prop_units="false"
       vertical_pattern="false"
       fuse_tolerance="0" />
    <inkscape:path-effect
       effect="spiro"
       id="path-effect3550"
       is_visible="true" />
    <inkscape:path-effect
       effect="skeletal"
       id="path-effect3540"
       is_visible="true"
       pattern="m -94.408805,-127.05439 c 0,-2.76 2.24,-5 5,-5 2.76,0 5,2.24 5,5 0,2.76 -2.24,5 -5,5 -2.76,0 -5,-2.24 -5,-5 z"
       copytype="single_stretched"
       prop_scale="1"
       scale_y_rel="false"
       spacing="0"
       normal_offset="0"
       tang_offset="0"
       prop_units="false"
       vertical_pattern="false"
       fuse_tolerance="0" />
    <inkscape:path-effect
       effect="spiro"
       id="path-effect3538"
       is_visible="true" />
    <inkscape:path-effect
       effect="skeletal"
       id="path-effect3496"
       is_visible="true"
       pattern="M 0,5 C 0,2.24 2.24,0 5,0 7.76,0 10,2.24 10,5 10,7.76 7.76,10 5,10 2.24,10 0,7.76 0,5 Z"
       copytype="single_stretched"
       prop_scale="1"
       scale_y_rel="false"
       spacing="0"
       normal_offset="0"
       tang_offset="0"
       prop_units="false"
       vertical_pattern="false"
       fuse_tolerance="0" />
    <inkscape:path-effect
       effect="skeletal"
       id="path-effect3492"
       is_visible="true"
       pattern="M 0,5 C 0,2.24 2.24,0 5,0 7.76,0 10,2.24 10,5 10,7.76 7.76,10 5,10 2.24,10 0,7.76 0,5 Z"
       copytype="single_stretched"
       prop_scale="1"
       scale_y_rel="false"
       spacing="0"
       normal_offset="0"
       tang_offset="0"
       prop_units="false"
       vertical_pattern="false"
       fuse_tolerance="0" />
    <inkscape:path-effect
       effect="skeletal"
       id="path-effect3472"
       is_visible="true"
       pattern="m -69.216133,-97.002722 c 0,-2.76 2.24,-4.999998 5,-4.999998 2.76,0 5,2.239998 5,4.999998 0,2.76 -2.24,5 -5,5 -2.76,0 -5,-2.24 -5,-5 z"
       copytype="single_stretched"
       prop_scale="1"
       scale_y_rel="false"
       spacing="0"
       normal_offset="0"
       tang_offset="0"
       prop_units="false"
       vertical_pattern="false"
       fuse_tolerance="0" />
    <inkscape:path-effect
       effect="skeletal"
       id="path-effect3468"
       is_visible="true"
       pattern="m -94.408805,-127.05439 c 0,-2.76 2.24,-5 5,-5 2.76,0 5,2.24 5,5 0,2.76 -2.24,5 -5,5 -2.76,0 -5,-2.24 -5,-5 z"
       copytype="single_stretched"
       prop_scale="1"
       scale_y_rel="false"
       spacing="0"
       normal_offset="0"
       tang_offset="0"
       prop_units="false"
       vertical_pattern="false"
       fuse_tolerance="0" />
    <inkscape:path-effect
       effect="skeletal"
       id="path-effect3464"
       is_visible="true"
       pattern="m -69.216133,-97.002722 c 0,-2.76 2.24,-4.999998 5,-4.999998 2.76,0 5,2.239998 5,4.999998 0,2.76 -2.24,5 -5,5 -2.76,0 -5,-2.24 -5,-5 z"
       copytype="single_stretched"
       prop_scale="1"
       scale_y_rel="false"
       spacing="0"
       normal_offset="0"
       tang_offset="0"
       prop_units="false"
       vertical_pattern="false"
       fuse_tolerance="0" />
    <inkscape:path-effect
       effect="skeletal"
       id="path-effect3460"
       is_visible="true"
       pattern="M 0,5 C 0,2.24 2.24,0 5,0 7.76,0 10,2.24 10,5 10,7.76 7.76,10 5,10 2.24,10 0,7.76 0,5 Z"
       copytype="single_stretched"
       prop_scale="1"
       scale_y_rel="false"
       spacing="0"
       normal_offset="0"
       tang_offset="0"
       prop_units="false"
       vertical_pattern="false"
       fuse_tolerance="0" />
    <inkscape:path-effect
       effect="skeletal"
       id="path-effect3456"
       is_visible="true"
       pattern="M 0,5 C 0,2.24 2.24,0 5,0 7.76,0 10,2.24 10,5 10,7.76 7.76,10 5,10 2.24,10 0,7.76 0,5 Z"
       copytype="single_stretched"
       prop_scale="1"
       scale_y_rel="false"
       spacing="0"
       normal_offset="0"
       tang_offset="0"
       prop_units="false"
       vertical_pattern="false"
       fuse_tolerance="0" />
    <inkscape:path-effect
       effect="skeletal"
       id="path-effect3452"
       is_visible="true"
       pattern="m -94.408805,-127.05439 c 0,-2.76 2.24,-5 5,-5 2.76,0 5,2.24 5,5 0,2.76 -2.24,5 -5,5 -2.76,0 -5,-2.24 -5,-5 z"
       copytype="single_stretched"
       prop_scale="1"
       scale_y_rel="false"
       spacing="0"
       normal_offset="0"
       tang_offset="0"
       prop_units="false"
       vertical_pattern="false"
       fuse_tolerance="0" />
    <inkscape:path-effect
       effect="skeletal"
       id="path-effect3436"
       is_visible="true"
       pattern="M 0,5 C 0,2.24 2.24,0 5,0 7.76,0 10,2.24 10,5 10,7.76 7.76,10 5,10 2.24,10 0,7.76 0,5 Z"
       copytype="single_stretched"
       prop_scale="1"
       scale_y_rel="false"
       spacing="0"
       normal_offset="0"
       tang_offset="0"
       prop_units="false"
       vertical_pattern="false"
       fuse_tolerance="0" />
    <inkscape:path-effect
       effect="skeletal"
       id="path-effect3432"
       is_visible="true"
       pattern="M 0,5 C 0,2.24 2.24,0 5,0 7.76,0 10,2.24 10,5 10,7.76 7.76,10 5,10 2.24,10 0,7.76 0,5 Z"
       copytype="single_stretched"
       prop_scale="1"
       scale_y_rel="false"
       spacing="0"
       normal_offset="0"
       tang_offset="0"
       prop_units="false"
       vertical_pattern="false"
       fuse_tolerance="0" />
    <inkscape:path-effect
       effect="skeletal"
       id="path-effect3420"
       is_visible="true"
       pattern="M 0,5 C 0,2.24 2.24,0 5,0 7.76,0 10,2.24 10,5 10,7.76 7.76,10 5,10 2.24,10 0,7.76 0,5 Z"
       copytype="single_stretched"
       prop_scale="1"
       scale_y_rel="false"
       spacing="0"
       normal_offset="0"
       tang_offset="0"
       prop_units="false"
       vertical_pattern="false"
       fuse_tolerance="0" />
    <inkscape:path-effect
       effect="skeletal"
       id="path-effect3416"
       is_visible="true"
       pattern="M 0,5 C 0,2.24 2.24,0 5,0 7.76,0 10,2.24 10,5 10,7.76 7.76,10 5,10 2.24,10 0,7.76 0,5 Z"
       copytype="single_stretched"
       prop_scale="1"
       scale_y_rel="false"
       spacing="0"
       normal_offset="0"
       tang_offset="0"
       prop_units="false"
       vertical_pattern="false"
       fuse_tolerance="0" />
    <inkscape:path-effect
       effect="skeletal"
       id="path-effect3404"
       is_visible="true"
       pattern="m -94.408805,-127.05439 c 0,-2.76 2.24,-5 5,-5 2.76,0 5,2.24 5,5 0,2.76 -2.24,5 -5,5 -2.76,0 -5,-2.24 -5,-5 z"
       copytype="single_stretched"
       prop_scale="1"
       scale_y_rel="false"
       spacing="0"
       normal_offset="0"
       tang_offset="0"
       prop_units="false"
       vertical_pattern="false"
       fuse_tolerance="0" />
  </defs>
  <sodipodi:namedview
     pagecolor="#ffffff"
     bordercolor="#666666"
     borderopacity="1"
     objecttolerance="10"
     gridtolerance="10"
     guidetolerance="10"
     inkscape:pageopacity="0"
     inkscape:pageshadow="2"
     inkscape:window-width="1920"
     inkscape:window-height="1018"
     id="namedview3394"
     showgrid="false"
     inkscape:zoom="1.0980099"
     inkscape:cx="38.995973"
     inkscape:cy="232.93036"
     inkscape:window-x="-8"
     inkscape:window-y="-8"
     inkscape:window-maximized="1"
     inkscape:current-layer="svg3392"
     showborder="true"
     fit-margin-bottom="-3.4"
     fit-margin-top="0"
     fit-margin-left="0"
     fit-margin-right="0" />
  <path
     style="fill:#87de87;fill-rule:evenodd;stroke:none;stroke-width:1px;stroke-linecap:butt;stroke-linejoin:miter;stroke-opacity:1"
     d="m 217.06382,23.026051 c 0.0454,-0.05091 0.11159,-0.08285 0.1989,-0.09579 0.0858,-0.01264 0.1913,-0.0065 0.31624,0.01844 l 0,0 0,0 0,0 c 0.25188,0.05065 0.57892,0.177536 0.979,0.382403 l 0,0 c 0.81171,0.415651 1.8905,1.13548 3.21913,2.189254 l 0,0 c 2.75651,2.186329 6.31621,5.576118 10.50749,10.446373 l 0,0 c 9.04196,11.428942 18.52014,28.041166 27.06368,51.358828 l -10e-6,-4e-6 c 2.30744,0.2031 2.85313,0.682132 1.62658,1.391923 l 0,0 c 0.30819,-0.497694 0.45636,-0.752901 0.43168,-0.773172 v 0 l 0,-2e-6 0,0 c 0.0558,-0.178202 0.0731,-0.158711 0.0154,0.05239 l 0,0 0,6e-6 0,0 c -0.13015,0.626436 -0.17026,1.398287 -0.20359,2.307255 l 0,0 c -0.0824,2.95584 0.38819,6.038855 1.26516,9.138557 1.00097,3.511952 2.61159,6.943412 4.72964,10.150082 0.4669,0.70687 0.95513,1.39774 1.4624,2.07123 3.8795,5.21946 9.07491,9.42211 14.49638,12.76571 3e-5,1e-5 3e-5,2e-5 4e-5,2e-5 0.004,0.002 3.13263,1.68244 3.13699,1.68477 2.69877,1.73368 5.04564,4.21419 6.62594,7.32924 0.90774,1.95332 1.37053,4.02795 1.40872,6.09016 0.0156,2.63755 -0.53422,5.03977 -1.38943,7.11155 -2.81662,6.37113 -7.95629,10.72914 -12.26542,13.86001 0,0 1e-5,0 1e-5,0 0.41412,0.0777 0.66545,-0.15194 0.86976,-0.69594 0.13928,0.58622 0.36272,1.19321 0.63266,1.80789 1.36552,3.08515 3.68005,5.9846 5.78538,8.47065 0.27862,1.06855 0.54476,2.105 0.79857,3.1097 0.16794,2.21993 -0.16107,4.35585 -0.87329,6.25378 -1.23877,3.04871 -3.38637,5.1063 -5.43188,6.33612 -7.28376,4.29863 -11.75118,1.8025 -11.73672,1.89888 -0.12093,-0.80618 4.62601,-1.37545 9.07617,-5.56572 1.207,-1.12887 2.37901,-2.70727 2.72613,-4.44638 0.26479,-1.05272 0.27662,-2.24032 0.0442,-3.45501 -0.0433,-0.38263 -0.0801,-0.76061 -0.11023,-1.13381 -2.36879,-1.98676 -5.04323,-4.58091 -7.01393,-8.03165 -0.50184,-0.89796 -0.95809,-1.88794 -1.32949,-2.97171 -0.0513,-1.38107 0.0408,-2.47761 0.17547,-3.24171 0,0 0,-1e-5 0,-1e-5 3.92951,-4.37598 8.46746,-9.61545 10.22874,-15.37198 0.41463,-1.29511 0.68211,-2.55575 0.57553,-3.63022 -0.0563,-0.80491 -0.2739,-1.61577 -0.6418,-2.3042 -0.47474,-1.14099 -1.61535,-2.18212 -3.0037,-3.12339 0.005,0.002 -3.00569,-1.49897 -3.00108,-1.49669 -10e-6,0 -10e-6,0 -10e-6,0 -6.43589,-3.69652 -12.72549,-8.68639 -17.7495,-15.21105 -0.64033,-0.84027 -1.25558,-1.70558 -1.8433,-2.59465 -2.66659,-4.03394 -4.67723,-8.42146 -5.93881,-12.99002 -1.0997,-3.959848 -1.62068,-8.069443 -1.43859,-12.178412 l 0,0 c 0.0458,-1.203847 0.18063,-2.526431 0.48303,-3.9434 l 0,0 0,-9e-6 0,0 c 0.0631,-0.359761 0.21409,-0.907198 0.48542,-1.625434 0,0 1e-5,-1.6e-5 1e-5,-1.6e-5 0.0355,-0.171096 0.24876,-0.576789 0.65066,-1.207113 l -1.4e-4,9.2e-5 c -1.17874,0.642092 -0.57387,1.041471 1.81617,1.244549 l 2.3e-4,1.9e-5 C 244.99688,64.650501 235.66511,50.804903 227.59887,39.49317 l 0,0 c -3.66743,-5.627447 -5.85166,-8.625065 -8.08028,-11.848758 l 0,0 c -0.91892,-1.329228 -1.64146,-2.417234 -2.05869,-3.169005 l 0,0 c -0.2111,-0.380341 -0.35464,-0.69345 -0.42285,-0.933296 l 0,0 0,0 0,0 c -0.0344,-0.120342 -0.0501,-0.223599 -0.0463,-0.309043 0.004,-0.08682 0.0277,-0.156154 0.0731,-0.207017 z"
     id="path3402"
     inkscape:path-effect="#path-effect3404"
     inkscape:original-d="m 217.0638,23.026031 c 0,0 20.94698,18.21477 40.0725,62.840962 -0.91074,0 -5.46444,25.500677 23.6792,42.804707 0,0 22.11718,7.8175 -3.3204,31.00112 0.32199,0.96599 0.64399,4.82992 7.72787,11.91381 0,0 4.82992,13.20178 -14.48976,16.09973"
     inkscape:connector-curvature="0" />
  <path
     style="fill:#87de87;fill-rule:evenodd;stroke:none;stroke-width:1px;stroke-linecap:butt;stroke-linejoin:miter;stroke-opacity:1"
     d="m 282.97856,186.61748 c 0.0497,-0.081 0.10723,-0.15127 0.17858,-0.2175 0,0 0,0 0,0 0.0668,-0.0619 0.14269,-0.11604 0.22864,-0.16367 l 0,0 0,0 0,0 c 0.16857,-0.0917 0.37263,-0.15269 0.61247,-0.18346 l 0,0 c 0.44713,-0.0573 1.02211,7.5e-4 1.68968,0.21175 l 0,0 c 1.10996,0.34188 2.67434,1.1995 4.03542,3.01288 l 0,0 c 1.20668,1.68428 2.05705,4.17162 1.55564,7.12723 l 0,0 c -0.7126,2.49454 -2.59268,4.33266 -5.01919,4.95711 l 0,0 c 0.0401,-0.0838 0.0815,-0.15886 0.11935,-0.23581 0.0782,-0.15895 0.1487,-0.3201 0.21362,-0.48687 0,0 0,-2e-5 0,-2e-5 0.24444,-0.62795 0.40759,-1.32989 0.49455,-2.11335 l 0,0 1e-5,-2e-5 0,0 c 0.30206,0.39837 0.52373,0.72211 0.67748,0.95895 l 0,0 c 0.60003,0.90439 1.12618,1.80398 1.607,2.68988 0.38403,0.70378 0.75553,1.42719 1.11213,2.16935 1.04323,2.17114 1.882,4.3426 2.52785,6.4708 1.19199,3.81384 1.67131,7.44338 1.39108,10.73587 -0.1519,1.93374 -0.65158,3.6583 -1.3683,5.02691 -1.54384,3.02592 -3.6685,3.16104 -4.25011,2.61696 -0.5621,-0.52583 -0.64077,-2.29061 -0.92956,-3.86137 -0.1841,-1.03964 -0.42687,-1.8386 -0.83599,-3.2658 -0.73519,-2.524 -1.61214,-4.54782 -3.05945,-7.96272 -0.76656,-1.7561 -1.58441,-3.54502 -2.48981,-5.42939 -0.30789,-0.6408 -0.61644,-1.27294 -0.92488,-1.89685 -0.40231,-0.80761 -0.75549,-1.52339 -1.11588,-2.18756 l 0,0 c -0.11838,-0.20738 -0.16943,-0.32222 -0.17116,-0.33911 l 0,0 0,-3e-5 0,0 c 0.006,-0.8938 0.0879,-1.70605 0.23738,-2.4317 0,0 10e-6,-2e-5 10e-6,-2e-5 0.0397,-0.19272 0.0843,-0.37974 0.13169,-0.55767 0.023,-0.0862 0.0448,-0.17149 0.0704,-0.24555 l 0,0 c 1.83631,-2.95604 3.1174,-4.81838 3.62166,-6.78578 l 0,0 c 0.42916,-0.45913 0.6183,-1.32942 0.60992,-2.08361 v 0 c -0.0378,-0.96588 -0.4888,-2.16711 -0.75783,-3.007 l 0,0 c -0.17107,-0.52003 -0.30321,-0.99068 -0.35632,-1.39565 l 0,0 c -0.0283,-0.21527 -0.0317,-0.41867 -0.009,-0.60049 l 0,0 0,0 0,0 c 0.011,-0.0946 0.0303,-0.18576 0.0575,-0.27102 0,0 0,0 0,0 0.0294,-0.0918 0.0659,-0.17482 0.11546,-0.25567 z"
     id="path3450"
     inkscape:path-effect="#path-effect3452"
     inkscape:original-d="m 282.9785,186.61744 c 0,0 10.24581,6.03365 0,14.57182 0.34153,-0.22768 12.40882,20.94699 5.80596,28.00521"
     inkscape:connector-curvature="0" />
  <path
     style="fill:#87de87;fill-rule:evenodd;stroke:none;stroke-width:1px;stroke-linecap:butt;stroke-linejoin:miter;stroke-opacity:1"
     d="m 232.31873,115.92138 c 0.0429,-0.13098 0.0967,-0.25215 0.1629,-0.3726 0,0 0,0 0,0 0.0627,-0.1138 0.13595,-0.22396 0.2184,-0.32864 l 0,0 0,0 0,0 c 0.16145,-0.20658 0.36098,-0.39958 0.59158,-0.57329 l 0,0 c 0.44937,-0.33858 1.02563,-0.6229 1.69313,-0.85343 l 0,0 c 1.25805,-0.43469 2.80799,-0.69188 4.48435,-0.90268 l 0,0 c 0,0 0,0 0,0 1.44046,-0.19703 2.85623,-0.2933 4.06175,-0.53474 0.0171,-0.003 0.0341,-0.007 0.051,-0.0103 0.65251,-0.20166 1.31331,-0.13987 1.96583,-0.34153 1.7739,-1.34139 3.59584,-2.32776 4.909,-2.73859 -0.1161,0.15339 0.89154,-0.5185 1.77885,-0.83983 0,0 0,0 0,0 2.14528,0.12649 1.23323,1.39724 1.14393,1.57585 -0.18536,0.37072 -1.27494,0.96551 0.0446,1.25211 0,0 0,0 0,0 0.45535,-0.14652 1.32785,-0.34605 0.91436,0.30926 0.1582,1.73819 -0.53293,4.08015 -2.00692,6.45418 -1.80183,2.27451 -4.32534,3.81793 -6.96059,4.16697 -0.0374,0.006 -0.0747,0.0127 -0.11209,0.0188 -2.64692,0.43453 -4.9644,0.15134 -6.77151,-0.40176 0,0 0,0 0,0 l 0,0 c -2.15847,-0.63274 -3.81104,-1.61092 -4.86109,-2.62048 l 0,0 c -0.56876,-0.54537 -0.97293,-1.10299 -1.19771,-1.64655 l 0,0 c -0.11553,-0.27947 -0.18488,-0.55175 -0.20487,-0.81852 l 0,0 0,0 0,0 c -0.01,-0.13471 -0.007,-0.26643 0.008,-0.39656 0,0 0,0 0,0 0.0159,-0.13713 0.0442,-0.26645 0.0872,-0.39764 z"
     id="path3466"
     inkscape:path-effect="#path-effect3468"
     inkscape:original-d="m 232.31867,115.92136 c 0,0 12.18113,4.09832 16.62098,-0.91074 4.43985,-5.00906 3.30143,-5.57827 4.43985,-5.00906"
     inkscape:connector-curvature="0" />
  <path
     style="fill:#87de87;fill-rule:evenodd;stroke:none;stroke-width:1px;stroke-linecap:butt;stroke-linejoin:miter;stroke-opacity:1"
     d="m 179.28671,207.00605 c -0.21343,0.85373 -3.69641,0.7971 -10.24648,-0.34254 -7.25319,-7.30954 -19.76841,-21.62769 -34.34081,-39.39707 -0.24234,-5.62627 -0.43614,-11.42308 -0.61161,-17.45636 -0.30436,-10.46492 -0.4581,-17.6362 -0.76246,-28.10112 0,0 1e-5,0 1e-5,0 25.26589,16.98382 41.50248,30.05488 39.84345,32.16796 -1.68099,2.14105 -17.85099,-10.3215 -38.07926,-29.01103 0,-10e-6 0,-10e-6 0,-10e-6 1.59823,7.54408 3.39197,15.57591 5.19883,23.96084 1.10006,5.10494 2.13168,10.01297 3.08694,14.8443 12.30036,16.02352 22.5366,30.33223 28.12617,39.16963 4.94471,1.72985 7.99766,3.31564 7.78522,4.1654 z"
     id="path3536"
     inkscape:path-effect="#path-effect3538;#path-effect3540"
     inkscape:original-d="m 179.28671,207.00605 c 0,0 -5.79591,3.21994 -9.01585,-2.25397 -0.96599,-1.93197 -31.23349,-19.64167 -31.23349,-39.28335 -4.82992,-41.85932 -4.82992,-42.18131 -4.82992,-42.18131 0,0 21.25165,3.54194 38.96136,30.5895"
     inkscape:connector-curvature="0" />
  <path
     style="fill:#87de87;fill-rule:evenodd;stroke:none;stroke-width:1px;stroke-linecap:butt;stroke-linejoin:miter;stroke-opacity:1"
     d="m 187.65856,10.267272 c 0.23442,1.225802 -6.19929,3.619129 -16.97441,6.571125 0,0 0,1e-6 0,1e-6 -9.66159,3.016526 -23.40229,7.276287 -37.70574,13.343376 -4.39913,1.864565 -8.90445,3.917745 -13.38027,6.204872 -2.33278,1.192042 -4.59646,2.416362 -6.79552,3.679896 -6.77261,3.899513 -12.61365,7.933834 -17.673302,12.37785 -5.80017,5.107165 -10.00243,10.167641 -13.039155,15.211088 0,10e-7 0,2e-6 -10e-7,3e-6 -6.451157,10.641259 -7.036341,19.275622 -8.417727,19.24654 -0.713437,-0.01502 -3.849966,-8.701324 2.11472,-22.463862 10e-7,0 10e-7,-4e-6 10e-7,-4e-6 2.689982,-6.170716 6.97133,-12.561579 13.126351,-18.637807 5.34495,-5.289276 11.651033,-10.043303 18.875023,-14.318613 2.34878,-1.392698 4.76855,-2.724465 7.25832,-3.997827 4.78182,-2.445603 9.57404,-4.548964 14.24682,-6.37052 15.36607,-5.986191 29.71454,-9.149779 40.05298,-10.669136 0,0 0,0 0,0 11.20899,-1.2517068 18.0774,-1.4032736 18.31191,-0.176982 z"
     id="path3554"
     inkscape:path-effect="#path-effect3556"
     inkscape:original-d="m 187.65857,10.267271 c 0,0 -112.698152,15.45575 -113.986135,76.634752"
     inkscape:connector-curvature="0" />
  <path
     style="fill:#87de87;fill-rule:evenodd;stroke:none;stroke-width:1px;stroke-linecap:butt;stroke-linejoin:miter;stroke-opacity:1"
     d="m 95.568082,103.64573 c -0.03441,-0.01 -0.06738,-0.0235 -0.09941,-0.0411 0,0 0,0 0,0 -0.03088,-0.017 -0.06061,-0.0376 -0.0892,-0.0619 -0.05717,-0.0485 -0.109539,-0.11132 -0.157378,-0.18835 0,0 -10e-7,0 -10e-7,0 l 0,0 c -0.09546,-0.15428 -0.171209,-0.36447 -0.227631,-0.62917 l -10e-7,0 0,0 c -0.112476,-0.5277 -0.144281,-1.26483 -0.08897,-2.19791 l 0,0 c 0.109886,-1.853331 0.562161,-4.433694 1.436757,-7.614868 l 0,0 c 1.715402,-6.243414 5.009355,-14.646785 10.516795,-23.723697 3.12441,-5.157542 6.93696,-10.455961 11.51191,-15.550425 3.62754,-4.039481 7.43311,-7.614948 11.33319,-10.732175 0,-10e-7 0,-2e-6 0,-2e-6 9.38227,-7.491403 18.69369,-11.682055 25.71163,-13.725474 6.98373,-2.033459 11.34581,-1.906354 11.63514,-0.881648 0.3268,1.157421 -3.41579,3.07807 -9.27432,6.46709 -5.9885,3.464205 -13.73656,8.25683 -21.8885,15.499901 0,1e-6 0,2e-6 0,2e-6 -3.39619,3.013451 -6.75536,6.34665 -10.0752,10.049851 -4.17946,4.662079 -7.85654,9.419928 -11.08953,14.004806 -5.73222,8.14345 -9.83943,15.389189 -12.97473,20.831246 l 0,0 c -1.55457,2.699561 -2.863884,4.939543 -3.858858,6.386283 l 0,0 c -0.51059,0.74246 -0.959798,1.30726 -1.341982,1.66469 l -1e-6,0 0,0 c -0.192605,0.18013 -0.370725,0.30915 -0.532653,0.38403 l 0,0 c 0,0 0,0 0,0 -0.08134,0.0378 -0.159133,0.0619 -0.23292,0.072 -0.03698,0.005 -0.07305,0.007 -0.108158,0.005 0,0 -10e-7,0 -10e-7,0 -0.03642,-0.002 -0.07157,-0.008 -0.105975,-0.0178 z"
     id="path3558"
     inkscape:path-effect="#path-effect3560"
     inkscape:original-d="m 95.568078,103.64574 c 0,0 16.743732,-59.891019 71.482832,-75.346759"
     inkscape:connector-curvature="0" />
  <path
     style="fill:#87de87;fill-rule:evenodd;stroke:none;stroke-width:1px;stroke-linecap:butt;stroke-linejoin:miter;stroke-opacity:1"
     d="m 151.26044,77.494582 c 1.94548,-1.330564 13.10135,11.481937 26.38214,29.968398 0,0 0,1e-5 0,1e-5 2.13826,3.29744 4.2945,6.81162 6.39108,10.50079 3.92713,6.91021 7.13902,13.54528 9.67781,19.88715 3.52411,8.71147 5.32737,15.74619 5.84077,21.60451 0.48658,5.5522 -0.32202,8.75121 -1.28058,8.84164 -1.03855,0.098 -2.10395,-2.86939 -4.01777,-7.59964 -2.41693,-5.97373 -4.32838,-10.12822 -8.8235,-19.11428 -2.98116,-5.89162 -6.17729,-11.80545 -10.00851,-18.54959 -2.00393,-3.52753 -4.01671,-6.99269 -5.93147,-10.27774 -1e-5,0 -1e-5,0 -1e-5,0 C 157.18893,93.838723 149.31569,78.824644 151.26044,77.494582 Z"
     id="path3618"
     inkscape:path-effect="#path-effect3620"
     inkscape:original-d="m 151.26043,77.494573 c 0,0 43.79129,56.671067 47.01123,90.802507"
     inkscape:connector-curvature="0" />
  <path
     style="fill:#87de87;fill-rule:evenodd;stroke:none;stroke-width:1px;stroke-linecap:butt;stroke-linejoin:miter;stroke-opacity:1"
     d="m 169.29215,67.190741 c 0.0294,-0.02324 0.0621,-0.04217 0.098,-0.05681 0.0351,-0.01429 0.0733,-0.02448 0.11457,-0.0306 0.0825,-0.01223 0.17717,-0.0082 0.28384,0.01191 0,0 0,0 0,0 l 0,0 c 0.21321,0.04026 0.47341,0.144634 0.77859,0.311288 l 0,0 c 0.60877,0.33244 1.39076,0.910426 2.32782,1.723268 l 0,0 c 1.86284,1.615922 4.30226,4.127863 7.16272,7.465635 l 0,0 c 5.58837,6.520109 12.68456,16.062866 19.74655,27.90029 2.98608,5.00028 5.96597,10.40817 8.77311,16.14914 3.86655,7.90761 6.97194,15.56114 9.3774,22.93821 4.00421,12.18447 5.57163,22.2496 5.66935,30.16191 0.094,7.61454 -1.18116,11.93199 -2.16884,11.9198 -1.11258,-0.0137 -1.81222,-4.30485 -3.45652,-11.24544 -1.82035,-7.6837 -4.19213,-15.91071 -8.79485,-27.6989 -2.72115,-6.91829 -5.86948,-14.0369 -9.61098,-21.68003 -2.69938,-5.51431 -5.46917,-10.81493 -8.1513,-15.79572 -6.43759,-11.94222 -12.16824,-21.600526 -16.41547,-29.115267 l 0,0 c -2.11143,-3.735372 -3.78231,-6.813824 -4.78935,-8.99787 l 0,-10e-7 c -0.51154,-1.109393 -0.86179,-2.008892 -1.02707,-2.672474 l 0,0 c -0.0831,-0.333678 -0.11972,-0.609605 -0.10745,-0.824465 l 0,0 c 0,0 0,0 0,0 0.006,-0.1078 0.0246,-0.200475 0.0557,-0.277546 0.0156,-0.0386 0.0343,-0.07332 0.0563,-0.104109 0.0225,-0.03155 0.0485,-0.05899 0.0778,-0.08223 z"
     id="path3622"
     inkscape:path-effect="#path-effect3624"
     inkscape:original-d="m 169.29214,67.190733 c 0,0 52.80713,66.330917 52.16314,118.494057"
     inkscape:connector-curvature="0" />
  <path
     style="fill:#87de87;fill-rule:evenodd;stroke:none;stroke-width:1px;stroke-linecap:butt;stroke-linejoin:miter;stroke-opacity:1"
     d="m 120.34894,122.57384 c 0.94003,0.1204 1.06165,6.1503 0.49958,16.48136 -0.19627,9.53252 -0.41112,23.18299 0.74931,38.87599 1.06274,14.3157 3.25973,30.98523 8.41236,47.51091 0.72877,2.32392 1.51832,4.6534 2.37354,6.976 5.2383,14.22612 12.21429,26.2391 20.93443,35.74316 27.29903,29.86837 45.62923,51.75608 44.33184,53.38311 0,0 0,0 0,0 -0.0278,0.0279 -0.0223,0.0222 -0.0223,0.0222 0,0 0.006,-0.005 -0.0233,0.0211 0,0 0,0 0,0 -1.693,1.21002 -22.58634,-18.246 -50.97757,-47.07818 -10.02074,-10.24995 -18.03767,-23.32546 -23.65132,-38.63459 -0.91705,-2.50091 -1.74914,-5.00514 -2.50214,-7.50052 -5.37552,-17.71636 -7.18386,-35.17683 -7.48969,-50.03889 -0.34327,-16.38078 1.10338,-30.23505 2.71724,-39.85256 2.07054,-10.22182 3.70782,-16.02954 4.64809,-15.90911 z"
     id="path3630"
     inkscape:path-effect="#path-effect3632"
     inkscape:original-d="m 120.34894,122.57383 c 0,0 -18.0317,98.53038 29.62352,148.76155 47.65521,50.23118 47.65521,50.23118 47.65521,50.23118"
     inkscape:connector-curvature="0" />
  <path
     style="fill:#87de87;fill-rule:evenodd;stroke:none;stroke-width:1px;stroke-linecap:butt;stroke-linejoin:miter;stroke-opacity:1"
     d="m 99.741275,123.86181 c 0.02802,0.0113 0.05347,0.0289 0.07635,0.0525 0.02244,0.0231 0.04244,0.0521 0.06003,0.0869 0,0 0,0 0,0 0.03508,0.0694 0.06066,0.16184 0.07694,0.277 0,0 0,0 0,0 l 0,0 c 0.03241,0.22863 0.02843,0.54754 -0.01,0.95284 l 0,0 c -0.07568,0.79874 -0.28592,1.94307 -0.611317,3.39953 l 0,0 c -0.628439,2.81291 -1.710561,6.88839 -3.070446,11.95298 l 0,0 c -2.418673,9.00975 -6.180278,22.73537 -9.357308,37.94927 l 0,0 c -2.670863,12.84136 -5.426138,28.37111 -5.61281,44.05873 l 0,0 c -0.07237,6.44201 0.252487,13.05356 1.535516,19.43603 0.125679,0.61163 0.25881,1.2216 0.400188,1.82872 1.138434,4.88874 2.767813,9.40188 5.226194,13.20205 7.022609,11.10611 10.696145,23.3042 12.733161,34.2845 v 0 c 2.43415,12.95291 2.89307,25.25799 2.65811,35.38619 l 0,0 c -0.26237,11.53295 -1.44882,21.0969 -2.6362,27.64669 l 0,0 c -0.6418,3.54136 -1.297302,6.26919 -1.886839,8.13502 l 0,0 c -0.301801,0.95515 -0.583642,1.67522 -0.83814,2.15486 l 0,0 c -0.128505,0.24218 -0.249261,0.42179 -0.361684,0.53784 l 0,0 c 0,0 -10e-7,0 -10e-7,0 -0.05652,0.0585 -0.110713,0.10076 -0.162646,0.12659 0,0 0,0 0,0 -10e-7,0 -2e-6,0 -2e-6,0 -0.07283,0.005 -0.110604,0.0122 -0.130176,0.0177 -0.01933,0.005 -0.02083,0.01 -0.02092,0.0101 0,0 0,0 0,0 0,0 0,0 0,0 0,0 0,0 0,0 0,0 0,0 0,0 0,0 0,0 0,0 0,0 0,0 0,0 0,0 0,0 0,0 0,0 0,0 0,0 0,0 0,0 0,0 0,0 0,0 0,0 -3e-6,1e-5 -3e-6,1e-5 -3e-6,1e-5 0,0 -10e-7,0 0,-1e-5 0,0 0,0 0,0 0,0 0,0 0,0 0,0 0,0 0,0 0,0 0,0 0,0 0,0 0,0 0,0 0,0 0,0 0,0 0,0 0,0 0,0 0,0 0,0 0,0 0,0 0,0 0,0 0,0 0,0 0,0 2.4e-5,-3.5e-4 -5.1e-5,-0.005 -0.01671,-0.0161 -0.01686,-0.0114 -0.05065,-0.0296 -0.118226,-0.0574 0,0 -10e-7,0 -10e-7,0 -10e-7,0 -10e-7,0 -10e-7,0 -0.04139,-0.0403 -0.08027,-0.0965 -0.116584,-0.16821 0,0 -10e-7,0 -10e-7,0 l 0,0 c -0.07212,-0.14298 -0.134704,-0.3486 -0.188331,-0.61442 l 0,0 c -0.105776,-0.52432 -0.178516,-1.29021 -0.225908,-2.27582 l 0,0 c -0.0916,-1.90469 -0.0911,-4.72026 -0.07537,-8.23453 l 0,0 c 0.02853,-6.4473 0.129628,-16.08262 -0.46603,-27.15404 l 0,0 c -0.530947,-9.78712 -1.618472,-21.6223 -4.348333,-33.64699 -2.344413,-10.21033 -5.90267,-21.28317 -12.137407,-30.7615 -3.229673,-5.03128 -5.348814,-10.60151 -6.650511,-16.32842 -0.161687,-0.71135 -0.309979,-1.42166 -0.445744,-2.12983 -1.43955,-7.36155 -1.764615,-14.67641 -1.560119,-21.58287 l 0,0 c 0.48888,-16.85207 3.847506,-32.77676 7.300967,-45.784 l 0,0 c 4.135732,-15.63047 8.976264,-28.75313 12.736592,-37.65904 l 0,0 c 2.074193,-4.91344 3.890711,-8.70399 5.309069,-11.27284 l 0,0 c 0.729155,-1.3206 1.347898,-2.30825 1.842337,-2.95174 l 0,0 c 0.249945,-0.32529 0.466852,-0.56101 0.64917,-0.70525 l 0,0 c 0,0 0,0 0,0 0.09161,-0.0724 0.174286,-0.12165 0.247889,-0.14739 0,0 10e-7,0 10e-7,0 0.03691,-0.0129 0.0715,-0.0199 0.103762,-0.0209 0.03294,-0.001 0.06343,0.004 0.09145,0.0154 z"
     id="path3634"
     inkscape:path-effect="#path-effect3636"
     inkscape:original-d="m 99.741278,123.8618 c 0,0 -39.927345,97.8864 -15.45575,135.88177 24.471602,37.99538 13.52378,105.61427 13.52378,105.61427"
     inkscape:connector-curvature="0" />
  <path
     style="fill:#87de87;fill-rule:evenodd;stroke:none;stroke-width:1px;stroke-linecap:butt;stroke-linejoin:miter;stroke-opacity:1"
     d="m 206.64352,22.75547 c 0.01,0.03572 0.0156,0.07205 0.0179,0.10953 0.002,0.03604 0.001,0.07291 -0.003,0.110567 -0.009,0.07513 -0.0305,0.153754 -0.0651,0.235406 0,0 0,0 0,0 l 0,0 c -0.0685,0.162532 -0.18761,0.339074 -0.35455,0.527875 l 0,0 c -0.33123,0.374632 -0.85516,0.806148 -1.54595,1.289312 l 0,0 c -1.35109,0.945066 -3.41431,2.141372 -5.93251,3.549473 l 0,0 c -4.98771,2.790528 -11.72843,6.40185 -19.22806,11.293464 -3.7858,2.476231 -7.72774,5.250364 -11.60186,8.353917 -3.79219,3.037929 -7.16397,6.106423 -10.19416,9.239996 0,0 0,3e-6 0,3e-6 -6.35695,6.57154 -10.50369,12.72945 -13.56892,17.641842 -2.96617,4.753632 -4.66028,7.845319 -5.78651,7.539628 -1.00455,-0.272662 -1.32,-3.959557 0.34505,-9.900237 1.67604,-5.979915 5.31296,-13.835731 11.94358,-21.656517 0,-10e-7 0,-2e-6 0,-3e-6 3.15539,-3.722505 6.82354,-7.306576 11.00252,-10.664555 4.28364,-3.442087 8.69284,-6.316402 12.97031,-8.687644 8.41217,-4.675929 16.20416,-7.405324 21.96576,-8.755984 l 0,0 c 2.96511,-0.695792 5.37527,-1.021591 7.10508,-1.043832 l 0,0 c 0.87346,-0.01121 1.56481,0.05448 2.06037,0.192171 l 0,0 c 0.24885,0.06915 0.44688,0.155426 0.59266,0.259388 l 0,0 c 0,0 0,0 0,0 0.0728,0.05211 0.13237,0.10825 0.17856,0.16871 0.0231,0.03024 0.0428,0.06151 0.0591,0.0938 0.017,0.03358 0.0302,0.06796 0.0398,0.103694 z"
     id="path3638"
     inkscape:path-effect="#path-effect3640"
     inkscape:original-d="m 206.64353,22.755466 c 0,0 -56.02709,14.811757 -68.26288,59.891017"
     inkscape:connector-curvature="0" />
  <path
     style="fill:#87de87;fill-rule:evenodd;stroke:none;stroke-width:1px;stroke-linecap:butt;stroke-linejoin:miter;stroke-opacity:1"
     d="m 96.521325,172.16102 c 0.853495,0.1582 0.915613,4.3055 0.31779,11.43368 -0.313828,5.94597 -0.879861,15.23925 -0.581714,25.09568 0.265277,8.13751 0.976987,18.00099 4.022579,26.96891 1.25172,3.67782 2.87407,7.3025 5.134,10.35049 2.03234,2.75401 4.62518,5.17731 7.62315,6.74354 0.1499,0.0803 0.29955,0.1611 0.44893,0.2424 9.11289,4.95946 16.77851,11.51626 23.17952,17.7424 8.08361,7.83021 14.89069,15.90408 20.25991,22.87124 11.89272,17.03827 18.77488,28.31386 17.52175,29.24287 0,0 0,0 0,0 0,0 0,0 0,0 0,0 0,0 0,0 0,0 0,0 0,0 0,0 -1e-5,0 -1e-5,0 0,0 0,0 0,0 0,0 0,0 0,0 0,0 0,0 0,0 0,0 0,10e-6 0,10e-6 0,0 0,0 0,0 -0.003,0.002 -0.003,0.002 -0.003,0.002 0,0 0,0 -0.003,0.002 0,0 0,0 0,0 0,0 -10e-6,0 -10e-6,0 0,0 0,0 0,0 0,0 0,0 0,0 0,0 0,10e-6 0,10e-6 0,0 0,0 0,0 0,0 0,0 0,0 0,0 0,0 0,0 0,0 0,0 0,0 0,0 0,0 0,0 -1.27883,0.89305 -10.40465,-8.73014 -23.55288,-24.39332 -5.77727,-6.24947 -12.87322,-13.7006 -20.72609,-20.76664 -6.36146,-5.70235 -13.51959,-11.66435 -21.42962,-15.90684 -0.13027,-0.0699 -0.26067,-0.13924 -0.39119,-0.20811 -4.52565,-2.43573 -8.22244,-5.8909 -10.971098,-9.80165 -2.967642,-4.23942 -4.933131,-8.81644 -6.233499,-13.24071 -3.15351,-10.71696 -3.359661,-21.38495 -2.884412,-29.94892 0.562325,-10.64019 2.29919,-19.71522 3.861778,-25.79834 2.009496,-6.93763 3.553752,-10.78952 4.407486,-10.63128 z"
     id="path3642"
     inkscape:path-effect="#path-effect3644"
     inkscape:original-d="m 96.521328,172.16101 c 0,0 -16.09973,68.90687 14.167772,85.00661 30.2675,16.09973 63.75495,65.68692 63.75495,65.68692"
     inkscape:connector-curvature="0" />
  <path
     style="fill:#87de87;fill-rule:evenodd;stroke:none;stroke-width:1px;stroke-linecap:butt;stroke-linejoin:miter;stroke-opacity:1"
     d="m 84.283298,78.144245 c 0.03757,0.01464 0.0729,0.03468 0.106024,0.06006 0.03109,0.02865 0.05935,0.06426 0.08482,0.106733 0,0 0,10e-7 0,10e-7 0.05086,0.08482 0.09065,0.197133 0.119614,0.336214 0,0 1e-6,10e-7 1e-6,10e-7 l 0,0 c 0.05779,0.277084 0.07294,0.661283 0.04777,1.146829 l 0,0 c -0.04996,0.963809 -0.259038,2.335985 -0.605057,4.068299 l 0,10e-7 c -0.678722,3.398032 -1.906786,8.283151 -3.484565,14.243221 l 0,0 c -3.000176,11.334809 -7.484677,27.287229 -11.798352,45.018549 -1.181486,4.86773 -2.377888,9.93303 -3.51569,15.07744 -3.030499,13.70199 -5.117716,25.61297 -6.423647,37.1261 0,0 0,1e-5 0,1e-5 -1.046339,9.26303 -1.405214,16.54301 -1.225396,23.38538 0.358715,12.17108 2.712745,19.24632 1.58113,19.77884 -1.113134,0.52383 -5.941926,-5.93296 -8.093228,-19.14141 -1.174689,-7.08539 -1.579601,-15.15678 -1.091242,-24.74003 10e-7,0 0,-1e-5 0,-1e-5 0.601612,-11.91624 2.406132,-24.64933 5.481693,-38.5688 1.167666,-5.28467 2.448116,-10.42465 3.771939,-15.35116 4.853222,-18.10045 10.481925,-33.66872 15.126024,-44.697045 l 0,0 c 2.42984,-5.770925 4.593375,-10.296483 6.313852,-13.37232 l 0,-10e-7 c 0.870437,-1.556143 1.62043,-2.727918 2.229673,-3.488275 l 0,0 c 0.306038,-0.381945 0.575305,-0.658601 0.805447,-0.826084 l 0,0 c 0,0 10e-7,0 10e-7,0 0.115291,-0.08385 0.220566,-0.140211 0.315586,-0.168575 0,0 0,0 0,0 0.04756,-0.0142 0.09252,-0.02137 0.134842,-0.02145 0.0416,0.0037 0.0812,0.01285 0.118767,0.02749 z"
     id="path3646"
     inkscape:path-effect="#path-effect3648"
     inkscape:original-d="m 84.285528,78.138553 c 0,0 -45.723246,116.562087 -25.115584,160.353367"
     inkscape:connector-curvature="0" />
  <path
     style="fill:#87de87;fill-rule:evenodd;stroke:none;stroke-width:1px;stroke-linecap:butt;stroke-linejoin:miter;stroke-opacity:1"
     d="m 59.169942,87.154418 c 1.257013,0.402192 -0.558433,10.017496 -4.533585,25.374292 0,0 -10e-7,1e-5 -10e-7,1e-5 -3.541913,14.45045 -8.66484,34.0215 -13.825984,56.05879 -0.833545,3.55886 -1.668832,7.18638 -2.492415,10.8603 -1.597572,7.12661 -3.042868,13.94551 -4.354874,20.63392 -2.140477,10.92393 -3.726736,20.3398 -4.84844,29.53185 -1.215081,10.08535 -1.676587,17.30802 -1.421364,24.42908 0.140366,3.86556 0.451122,6.7582 0.934476,9.42083 0.902712,4.88061 2.143242,7.44534 1.562664,7.87189 -0.513519,0.37728 -3.146609,-1.43219 -5.42696,-6.66358 -1.182011,-2.68954 -2.171021,-5.94813 -2.89745,-9.98704 -1.321312,-7.31762 -1.66639,-15.52573 -1.105902,-25.79744 0.504749,-9.47604 1.716858,-19.48412 3.616447,-30.56511 1.170658,-6.8367 2.565407,-13.8434 4.183249,-21.06169 0.836672,-3.73296 1.706496,-7.40428 2.596185,-10.99874 5.500954,-22.22362 11.809132,-41.78628 16.962626,-55.77256 10e-7,0 10e-7,-1e-5 2e-6,-1e-5 C 53.80898,95.6379 57.912785,86.752179 59.169942,87.154418 Z"
     id="path3650"
     inkscape:path-effect="#path-effect3652"
     inkscape:original-d="m 59.169944,87.154413 c 0,0 -52.163144,152.625487 -28.979525,184.180967"
     inkscape:connector-curvature="0" />
  <path
     style="fill:#87de87;fill-rule:evenodd;stroke:none;stroke-width:1px;stroke-linecap:butt;stroke-linejoin:miter;stroke-opacity:1"
     d="m 144.82054,185.6848 c 0.0385,-0.0148 0.0789,-0.0241 0.12132,-0.028 0.0415,-0.004 0.0848,-0.002 0.12997,0.004 0.0902,0.013 0.18781,0.0464 0.29257,0.0998 0,0 0,0 0,0 l 0,0 c 0.20887,0.10637 0.44658,0.29207 0.71131,0.55324 l 0,0 c 0.52619,0.51912 1.16136,1.33809 1.89267,2.42517 l 0,0 c 1.44073,2.14161 3.26791,5.34378 5.38775,9.35379 l 0,0 c 4.08628,7.7297 9.22796,18.40941 15.0284,30.53921 1.20645,2.52138 2.91307,6.10302 4.11952,8.62441 4.85341,10.14916 8.54682,17.70315 12.74671,25.86488 0,0 0,0 0,0 3.12783,6.07237 5.26398,10.03351 7.74674,14.34989 3.82751,6.5721 6.51799,10.51859 5.91815,11.25173 -0.80996,0.98995 -5.31469,-1.33395 -10.93055,-7.58311 -3.27769,-3.6219 -6.61702,-8.0682 -10.23374,-13.6742 0,0 0,-1e-5 0,-1e-5 -4.83209,-7.48397 -9.56972,-16.06377 -14.27086,-25.89391 -1.4267,-2.98324 -2.7791,-5.93272 -4.05573,-8.81124 -5.51917,-12.43565 -9.65899,-23.75634 -12.20096,-32.1477 l 0,0 c -1.3274,-4.38148 -2.21837,-7.96656 -2.63843,-10.53588 l 0,0 c -0.21268,-1.30087 -0.30385,-2.33656 -0.26792,-3.07887 l 0,0 c 0.0181,-0.37307 0.0681,-0.6714 0.15108,-0.89141 l 0,0 c 0,0 0,0 0,0 0.0416,-0.11022 0.0914,-0.2007 0.14958,-0.27101 0.0291,-0.0352 0.0603,-0.0653 0.0936,-0.0904 0.0341,-0.0256 0.0703,-0.0458 0.10878,-0.0606 z"
     id="path3654"
     inkscape:path-effect="#path-effect3656"
     inkscape:original-d="m 144.82054,185.68479 c 0,0 32.84346,85.65059 54.09511,103.03831"
     inkscape:connector-curvature="0" />
  <path
     style="fill:#87de87;fill-rule:evenodd;stroke:none;stroke-width:1px;stroke-linecap:butt;stroke-linejoin:miter;stroke-opacity:1"
     d="m 215.69767,33.044157 c 0.77155,1.901708 -6.87359,6.909423 -18.33117,12.380573 -3.74156,2.181775 -7.66739,4.520853 -11.87024,7.167498 -8.85828,5.578294 -14.51786,9.691959 -20.49535,13.819268 -5.26424,3.634829 -8.82878,5.841096 -9.86734,4.883677 -0.98708,-0.909961 0.75916,-4.849848 5.13429,-10.104083 4.43792,-5.329638 11.24267,-11.576823 20.1645,-17.182731 4.50172,-2.828592 8.95641,-5.126061 13.14873,-6.934524 12.33283,-4.177976 21.34398,-5.933962 22.11658,-4.029678 z"
     id="path3658"
     inkscape:path-effect="#path-effect3660"
     inkscape:original-d="m 215.69769,33.044151 c 0,0 -33.69733,9.107385 -60.56412,38.251022"
     inkscape:connector-curvature="0" />
  <path
     style="fill:#87de87;fill-rule:evenodd;stroke:none;stroke-width:1px;stroke-linecap:butt;stroke-linejoin:miter;stroke-opacity:1"
     d="m 212.51009,18.472325 c -0.65744,1.877984 -15.02799,-1.33666 -34.95405,-7.487379 -7.73927,-1.0083028 -16.17364,-1.4328409 -25.3,-0.941484 -3.74199,0.201466 -7.38688,0.545647 -10.92122,1.003032 0,0 -1e-5,1e-6 -1e-5,1e-6 -13.90621,1.726758 -25.8953,5.211769 -34.51677,7.839767 -8.629449,2.630428 -13.930247,4.374757 -14.525432,3.229026 -0.527646,-1.015719 3.745849,-4.785129 12.066712,-9.170913 8.29555,-4.3724384 20.62591,-9.2901809 35.60427,-11.6327185 0,3e-7 0,-2e-7 0,-8e-7 3.8771,-0.58657645 7.8988,-0.99461117 12.03512,-1.18673063 10.07469,-0.46793777 19.4537,0.40706844 27.80754,2.14950733 20.04274,7.8448786 33.36238,14.3167396 32.70384,16.1978926 z"
     id="path3670"
     inkscape:path-effect="#path-effect3672"
     inkscape:original-d="m 212.5101,18.472333 c 0,0 -50.09062,-32.786589 -120.217492,3.642955"
     inkscape:connector-curvature="0" />
  <path
     style="fill:#87de87;fill-rule:evenodd;stroke:none;stroke-width:1px;stroke-linecap:butt;stroke-linejoin:miter;stroke-opacity:1"
     d="m 85.915182,29.394357 c -0.03786,0.01358 -0.07769,0.02087 -0.119439,0.02229 -0.04122,-0.0029 -0.08505,-0.01325 -0.131455,-0.0305 0,0 -10e-7,0 -10e-7,0 -0.08981,-0.03338 -0.190532,-0.09333 -0.302089,-0.177546 l 0,0 C 85.15426,29.053394 84.905346,28.814806 84.605223,28.512858 l 0,0 c -0.471246,-0.472049 -1.235998,-1.280012 -2.095399,-1.885241 l 0,0 c -0.710293,-0.487125 -1.648664,-0.98173 -2.545576,-1.016193 l 0,0 c -0.920429,-0.114783 -1.971594,0.244419 -3.183574,0.885508 l 0,0 c -1.792142,0.976874 -3.272367,2.540371 -5.186378,4.745288 l 0,0 c -2.587794,3.080691 -4.796827,6.551374 -7.373958,11.012476 l 0,0 C 56.122573,56.334502 50.445931,70.031582 42.279559,90.460791 41.59573,92.177311 40.903999,93.905953 40.204854,95.645289 27.308756,127.72826 15.110083,155.4392 7.6016837,170.18634 l 0,0 c -2.4387738,4.78996 -4.3827285,8.21225 -5.6950424,9.97247 l -1e-7,0 c -0.455968,0.61159 -0.8356819,1.02254 -1.1334025,1.22047 l -1.5e-7,0 c -0.18090463,0.043 -0.28751098,0.082 -0.35807467,0.1039 l -4e-8,0 c 0,0 -8.4e-7,0 -8.4e-7,0 -0.0559314,-0.004 -0.0814542,1.8e-4 -0.0935959,0.004 m -0.004146,0.0103 c -5e-8,0 -1e-7,0 -1.5e-7,0 -0.009748,-0.003 -0.009413,-0.003 -0.009413,-0.003 0,0 -8.652e-5,5.8e-4 -0.008959,-0.004 0,0 -1.3e-7,0 -1.3e-7,0 m 0.004146,-0.0103 c -0.006004,-0.0113 -0.0212297,-0.0323 -0.0646682,-0.0678 0,0 -6.5e-7,0 -6.5e-7,0 l -2e-8,0 c -0.0357722,-0.0647 -0.0857145,-0.1666 -0.18655575,-0.32282 l -5e-8,0 c -0.07790289,-0.34892 -0.06757068,-0.90834 0.02659215,-1.66536 l 10e-9,0 c 0.27100845,-2.17879 1.23641619,-5.99442 2.79122069,-11.1397 l 0,0 c 4.78687,-15.84109 15.1604924,-44.28562 28.0565904,-76.368596 0.699145,-1.739336 1.39624,-3.465822 2.090649,-5.178089 8.060344,-19.94288 15.312265,-35.178614 24.631454,-48.645727 l 0,0 c 3.049982,-4.425354 6.037435,-8.109313 9.396843,-11.221504 l 0,0 c 2.372857,-2.257435 4.910799,-4.012338 7.724028,-5.029395 l 0,0 c 2.111449,-0.796294 4.332293,-0.801112 6.228793,-0.181368 l 0,0 c 1.819517,0.677427 3.013818,1.845866 3.731113,2.873248 l 0,0 c 0.875725,1.244719 1.261832,2.429246 1.407972,3.209023 l 0,0 c 0.09001,0.474265 0.104788,0.856017 0.06795,1.130849 l 0,10e-7 c -0.02028,0.145917 -0.05463,0.262761 -0.101498,0.350461 0,0 0,10e-7 0,10e-7 -0.02409,0.04508 -0.05138,0.08221 -0.08165,0.111537 -0.0333,0.02624 -0.06899,0.04604 -0.106849,0.05962"
     id="path3674"
     inkscape:path-effect="#path-effect3676"
     inkscape:original-d="m 85.917438,29.401196 c 0,0 -10.92887,-33.6973266 -48.269147,59.198007 C 0.30800796,181.49454 0.30800796,181.49454 0.30800796,181.49454"
     inkscape:connector-curvature="0" />
  <path
     style="fill:#87de87;fill-rule:evenodd;stroke:none;stroke-width:1px;stroke-linecap:butt;stroke-linejoin:miter;stroke-opacity:1"
     d="m 218.87928,47.871044 c -0.0132,0.07046 -0.0311,0.138369 -0.0539,0.206221 -0.0214,0.06369 -0.0469,0.126424 -0.0761,0.188023 -0.0579,0.122021 -0.13173,0.242089 -0.21928,0.3568 0,0 0,0 0,0 l 0,0 c -0.16989,0.226304 -0.39684,0.44768 -0.66836,0.653049 l 0,10e-7 0,0 c -0.52937,0.400604 -1.25866,0.78916 -2.10526,1.163311 l 0,0 c -1.65355,0.734846 -3.78004,1.487089 -6.02588,2.509131 -1.53478,0.699829 -3.1282,1.531489 -4.72356,2.54255 -0.77878,0.493557 -1.51632,1.003569 -2.21467,1.524965 0,10e-7 0,10e-7 0,10e-7 -2.53081,1.830643 -4.63724,3.977778 -6.46495,5.5353 -1.82442,1.554712 -3.36162,2.525046 -4.49555,2.064387 -1.08871,-0.442287 -1.65617,-2.291188 -1.11757,-5.108547 0.53157,-2.780591 2.20425,-6.539903 5.65782,-9.898586 0,0 0,-10e-7 0,-10e-7 0.97858,-0.932125 2.07528,-1.795981 3.28125,-2.560895 2.4787,-1.572173 5.09413,-2.522141 7.57622,-2.955786 3.56793,-0.616816 6.61053,-0.162883 8.64535,0.648574 l 0,0 c 1.05698,0.420791 1.85597,0.935366 2.3651,1.473464 l 0,10e-7 1e-5,0 c 0.26027,0.275173 0.44618,0.551254 0.55413,0.828445 l 0,0 c 0,10e-7 0,10e-7 0,10e-7 0.0531,0.139435 0.0872,0.276481 0.10175,0.413354 0.007,0.06853 0.01,0.136471 0.007,0.203987 -0.003,0.07181 -0.0105,0.141759 -0.0237,0.21225 z"
     id="path3678"
     inkscape:path-effect="#path-effect3680"
     inkscape:original-d="m 218.87932,47.871053 c 0,0 -18.67569,-3.863935 -27.04755,16.74373"
     inkscape:connector-curvature="0" />
  <path
     style="fill:#87de87;fill-rule:evenodd;stroke:none;stroke-width:1px;stroke-linecap:butt;stroke-linejoin:miter;stroke-opacity:1"
     d="m 45.844939,257.99659 c 0.04186,-0.003 0.084,-7e-5 0.126427,0.009 0.04148,0.008 0.08324,0.0225 0.125264,0.042 0.08388,0.0388 0.168908,0.0994 0.254942,0.18125 0,0 0,0 0,0 l 0,0 c 0.171472,0.16292 0.347506,0.41025 0.527479,0.73755 l 0,0 c 0.357357,0.64989 0.732615,1.61831 1.123424,2.8691 l 1e-6,0 c 0.768017,2.45801 1.606094,6.03901 2.507088,10.45674 l 0,0 c 1.750054,8.5796 3.646186,19.86795 6.021875,32.93923 0.479094,2.62591 0.977419,5.35437 1.486988,8.07301 2.034122,10.85242 3.856185,19.37764 6.12364,27.90366 10e-7,0 10e-7,0 10e-7,0 1.612181,6.0313 2.917739,10.21534 4.539327,14.36411 2.692257,6.64241 5.196397,9.89455 4.485701,10.80266 -0.73841,0.94352 -5.303504,-1.02262 -9.888087,-7.91997 -2.64694,-3.89891 -5.028869,-8.64053 -7.295235,-14.60133 1e-6,0 -10e-7,0 -10e-7,0 -3.201242,-8.3905 -5.767704,-17.85694 -7.800374,-28.70609 -0.526068,-2.80783 -0.992081,-5.57611 -1.408475,-8.27486 -2.057181,-13.26966 -2.88041,-25.19716 -2.944767,-33.88448 l 0,0 c -0.03413,-4.57042 0.1439,-8.25727 0.488569,-10.84133 l 0,0 c 0.174808,-1.31054 0.391665,-2.33132 0.646364,-3.0341 l 0,0 c 0.128085,-0.35342 0.265312,-0.62562 0.411497,-0.81293 l 0,0 c 0,0 0,0 0,0 0.07329,-0.0938 0.148702,-0.16628 0.226276,-0.21687 0.03885,-0.0253 0.07821,-0.0452 0.118099,-0.0595 0.04079,-0.0146 0.08212,-0.0235 0.123977,-0.0264 z"
     id="path3682"
     inkscape:path-effect="#path-effect3684"
     inkscape:original-d="m 45.844938,257.99658 c 0,0 6.37517,91.9846 27.322158,108.37789"
     inkscape:connector-curvature="0" />
  <path
     style="fill:#87de87;fill-rule:evenodd;stroke:none;stroke-width:1px;stroke-linecap:butt;stroke-linejoin:miter;stroke-opacity:1"
     d="m 118.70403,293.5154 c 0.0758,-0.002 0.15153,0.006 0.22704,0.0236 0,0 0,0 0,0 0.0736,0.0174 0.1472,0.0442 0.22063,0.0802 0,0 0,0 0,0 0.14626,0.0716 0.2927,0.17968 0.43853,0.32227 l 0,0 c 0.28964,0.28214 0.58112,0.70157 0.87228,1.24272 l 0,0 c 0.57404,1.06682 1.16279,2.62678 1.77069,4.55249 l 0,0 c 1.17584,3.72263 2.4653,8.94281 4.02748,14.73343 0.6476,2.38469 1.34463,4.90667 2.10352,7.43801 1.09963,3.66792 2.19298,6.90091 3.38612,9.99015 0,0 0,0 0,0 2.1159,5.3635 3.55812,8.28073 5.26042,11.61514 1.43932,2.81931 2.40555,4.72197 1.72954,5.55704 -0.63858,0.78883 -2.90111,0.39064 -5.94731,-1.79967 -3.10114,-2.22981 -6.55955,-6.02594 -9.45428,-11.4377 0,0 0,0 0,0 -1.79405,-3.30309 -3.33441,-6.9991 -4.55442,-11.04357 -0.85478,-2.83369 -1.48444,-5.61301 -1.93823,-8.25586 -1.11789,-6.4475 -1.21788,-12.11859 -0.78602,-16.20311 l 0,0 c 0.22238,-2.10773 0.58528,-3.7899 1.03959,-4.96005 l 0,0 c 0.22956,-0.59123 0.48016,-1.04885 0.74844,-1.36239 l 0,0 c 0.13469,-0.15684 0.27294,-0.27715 0.41488,-0.35973 0,0 0,0 0,0 0.0711,-0.0414 0.14298,-0.0732 0.2156,-0.0953 0,0 0,0 0,0 0.0745,-0.0228 0.14967,-0.0353 0.2255,-0.0376 z"
     id="path3686"
     inkscape:path-effect="#path-effect3688"
     inkscape:original-d="m 118.70403,293.51538 c 0,0 0.91074,40.0725 20.03625,55.55506"
     inkscape:connector-curvature="0" />
  <path
     style="fill:#87de87"
     id="path3702"
     d="m 287.87288,199.71944 c -0.0907,0.37521 -0.17236,0.75151 -0.27241,1.12455 -0.0529,0.33398 -0.19607,0.63867 -0.29968,0.9572 -0.0391,0.16503 -0.5617,1.6941 -0.89951,0.67977 -0.0252,-0.22943 -0.0217,-0.45941 -0.0468,-0.68931 -0.0369,-0.28446 -0.062,-0.57006 -0.0721,-0.85669 -0.007,-0.3052 -0.007,-0.61046 -0.008,-0.91572 -0.004,-0.27808 0.0332,-0.5576 0.12202,-0.82115 0.0779,-0.19528 0.14679,-0.39932 0.2827,-0.56315 0.24834,-0.12029 0.48132,-0.27958 0.74501,-0.36088 0.11147,-0.0344 0.18831,0.83411 0.19293,0.88724 0.0262,0.33633 0.0335,0.67365 0.0363,1.01085 10e-4,0.23649 9e-5,0.47298 -4e-4,0.70948 0.006,0.34854 0.0754,0.19556 -0.69913,0.40093 -0.0218,0.006 0.0315,-0.34935 0.0344,-0.37107 0.0643,-0.32314 0.12755,-0.64631 0.2293,-0.96006 0.10788,-0.35478 0.81513,-1.21155 0.96434,-0.48181 0.0527,0.30836 0.007,0.61655 -0.0269,0.92371 -0.0186,0.19823 -0.0102,0.1 -0.025,0.2948 0,0 -0.69512,0.34761 -0.69512,0.34761 v 0 c 0.0148,-0.19669 0.007,-0.0976 0.0248,-0.29743 0.031,-0.29958 0.0888,-0.59965 0.0334,-0.90042 -0.0686,-0.35461 -0.12667,-0.0803 0.61044,-0.50035 0.0226,-0.0129 -0.041,0.0327 -0.0572,0.0531 -0.058,0.0731 -0.0859,0.14679 -0.12579,0.23116 -0.10953,0.30748 -0.16972,0.62677 -0.23563,0.94579 -0.0105,0.0875 -0.0261,0.1746 -0.0314,0.2626 -0.002,0.0316 0.0266,0.076 10e-4,0.0951 -0.80693,0.60809 -0.70401,0.67858 -0.69818,0.31098 6.3e-4,-0.2368 0.002,-0.4736 0.003,-0.71041 8.4e-4,-0.33688 -1e-4,-0.67406 -0.0233,-1.01032 -0.0169,-0.20061 -0.0312,-0.4021 -0.0799,-0.59825 -0.0116,-0.0468 -0.024,-0.0937 -0.0426,-0.13817 -0.009,-0.021 -0.0569,-0.0426 -0.0387,-0.0563 0.19795,-0.14806 0.42146,-0.25844 0.63219,-0.38766 -0.16845,0.12648 -0.22015,0.35091 -0.30482,0.53415 -0.10192,0.25072 -0.13421,0.528 -0.13627,0.79737 -1.4e-4,0.30416 -10e-4,0.60841 0.008,0.91247 0.0108,0.28485 0.0291,0.5694 0.0675,0.85206 0.0279,0.22415 0.0385,0.44664 0.0514,0.67172 0.0683,0.29609 0.0272,0.0544 -0.66173,0.4393 -0.0152,0.008 0.0258,-0.0242 0.0345,-0.0393 0.0401,-0.0697 0.0597,-0.15497 0.0843,-0.2296 0.0155,-0.047 0.032,-0.0937 0.048,-0.1405 0.0954,-0.32283 0.2591,-0.6216 0.30914,-0.95856 0.10033,-0.36758 0.18437,-0.73722 0.25679,-1.11128 0,0 0.7086,-0.3436 0.7086,-0.3436 z"
     inkscape:connector-curvature="0" />
  <path
     style="fill:#87de87"
     id="path3704"
     d="m 288.66113,199.82892 c -0.12018,0.19153 -0.25625,0.37185 -0.37233,0.56605 -0.13093,0.22444 -0.23053,0.46646 -0.31386,0.71217 -0.0812,0.22923 -0.16275,0.45878 -0.23369,0.69146 0,0 -0.7056,0.33436 -0.7056,0.33436 v 0 c 0.0671,-0.23456 0.15119,-0.46431 0.23341,-0.69385 0.0791,-0.2505 0.18044,-0.49631 0.30779,-0.72614 0.10429,-0.19776 0.23955,-0.37512 0.36573,-0.55896 0,0 0.71855,-0.32509 0.71855,-0.32509 z"
     inkscape:connector-curvature="0" />
  <path
     style="fill:#87de87"
     id="path3710"
     d="m 152.03224,160.88041 c 0.94617,0.0532 1.88793,0.182 2.83427,0.25253 0.85325,0.003 1.67873,0.13319 2.49021,0.3881 0.68191,0.2192 1.35466,0.4805 2.0133,0.76323 0.88608,0.38628 1.71836,0.85181 2.49255,1.42695 0.53921,0.45469 1.0505,0.92141 1.45874,1.49924 0.36703,0.5902 0.44504,1.287 0.58055,1.95458 0.21691,0.8086 0.40416,1.62125 0.49596,2.45389 0.0722,0.83325 0.0768,1.67072 0.0834,2.50655 8.1e-4,0.76321 -0.002,1.52643 -0.001,2.28965 -0.05,0.69159 0.1757,1.33852 0.36491,1.99074 0.18364,0.70024 0.55413,1.29993 0.93138,1.90674 0.48151,0.74595 0.94042,0.99565 1.70555,1.37927 0.89705,0.38463 1.69333,0.96118 2.54178,1.43762 0.83629,0.50159 1.76775,0.78283 2.70052,1.04075 1.0498,0.26027 2.08215,0.55761 3.1511,0.73302 1.15734,0.0897 2.28383,0.35072 3.41238,0.60421 0,0 -1.8026,1.24802 -1.8026,1.24802 v 0 c -1.11752,-0.26654 -2.23853,-0.50926 -3.38658,-0.60613 -1.07608,-0.18641 -2.12483,-0.4758 -3.18379,-0.73925 -0.94239,-0.27302 -1.87475,-0.57886 -2.71975,-1.09124 -0.84324,-0.48477 -1.65393,-1.03283 -2.55016,-1.41909 -0.76851,-0.38935 -1.30307,-0.73015 -1.77262,-1.47965 -0.38708,-0.62419 -0.77347,-1.23819 -0.96596,-1.95703 -0.19133,-0.67112 -0.43992,-1.33611 -0.39065,-2.04743 0.003,-0.76325 0.005,-1.5265 0.004,-2.28976 -3.7e-4,-0.82954 -2e-5,-1.66043 -0.0701,-2.48767 -0.0883,-0.8257 -0.25305,-1.63701 -0.48985,-2.43365 -0.13195,-0.6355 -0.20692,-1.30376 -0.54191,-1.87151 -0.39536,-0.55591 -0.89704,-1.00269 -1.41051,-1.44806 -0.75913,-0.57064 -1.58901,-1.01556 -2.46753,-1.37912 -0.65938,-0.27014 -1.32661,-0.52822 -2.00622,-0.74246 -0.7972,-0.24467 -1.61347,-0.33251 -2.44614,-0.35934 -0.95147,-0.0796 -1.90234,-0.21942 -2.85775,-0.21415 0,0 1.80244,-1.30955 1.80244,-1.30955 z"
     inkscape:connector-curvature="0" />
  <path
     style="fill:#87de87"
     id="path3712"
     d="m 165.48726,171.06528 c 0.774,-0.3804 0.63995,-0.32138 -1.28537,0.74976 -0.11565,0.0643 0.22533,-0.13898 0.33979,-0.20542 0.7533,-0.43726 1.51933,-0.85292 2.26343,-1.30564 0.49466,-0.30096 -1.00431,0.57687 -1.51478,0.85015 -0.11984,0.0642 0.22794,-0.14816 0.34191,-0.22225 0.97991,-0.62519 2.01365,-1.16185 3.00577,-1.76573 0.50613,-0.30808 -1.02809,0.58952 -1.54811,0.87354 -0.19805,0.10817 0.37783,-0.24712 0.56127,-0.37856 0.49146,-0.44965 1.06151,-0.79916 1.54126,-1.26019 0.63581,-0.61478 0.96724,-1.40014 1.18992,-2.23874 0.14938,-0.59903 0.21889,-1.17107 -0.16148,-1.68756 -0.39695,-0.40772 -0.74769,-0.85802 -1.08815,-1.31299 -0.37107,-0.38163 -0.78691,-0.7229 -1.20952,-1.04838 -0.56535,-0.46425 -1.14503,-0.91412 -1.75322,-1.32127 -0.6838,-0.42041 -1.40555,-0.77772 -2.17726,-1.00213 -0.64707,-0.16231 -1.31592,-0.17752 -1.97912,-0.18788 -0.64288,-0.1129 -1.28557,-0.21456 -1.9363,-0.26846 -0.6147,-0.10952 -1.08821,-0.42889 -1.47914,-0.89973 0,0 1.8984,-1.14211 1.8984,-1.14211 v 0 c 0.36687,0.42228 0.814,0.68986 1.38055,0.75878 0.64611,0.063 1.28282,0.18317 1.92731,0.25621 0.67568,0.0181 1.35642,0.05 2.00942,0.24172 0.77982,0.25501 1.51474,0.62639 2.21198,1.05774 0.60658,0.41884 1.19411,0.86467 1.76898,1.32586 0.4396,0.33408 0.87332,0.68937 1.24309,1.09932 0.34206,0.45718 0.69818,0.90418 1.09672,1.31409 0.40247,0.58177 0.40059,1.19276 0.22919,1.86874 -0.21015,0.85819 -0.51051,1.69024 -1.13541,2.34008 -0.45446,0.4996 -1.03513,0.8251 -1.52379,1.28896 -0.83254,0.66705 -1.92106,1.17965 -2.77329,1.7038 -0.4924,0.30284 0.9959,-0.58739 1.49922,-0.87171 0.25503,-0.14406 -0.9792,0.60598 -0.74942,0.45884 -1.07772,0.68566 -0.22862,0.15032 -2.58179,1.54999 -0.48836,0.30561 0.99592,-0.57942 1.49538,-0.86652 0.11398,-0.0655 -0.22537,0.13545 -0.3389,0.20174 -2.25571,1.31703 -1.45885,0.90506 -2.5105,1.43936 0,0 1.74196,-1.39341 1.74196,-1.39341 z"
     inkscape:connector-curvature="0" />
  <path
     style="fill:#87de87"
     id="path3714"
     d="m 170.83432,167.27001 c -0.14212,0.20459 -0.30275,0.39204 -0.43575,0.6037 -0.0986,0.21246 -0.22202,0.41126 -0.33064,0.61841 -0.11102,0.23503 -0.27593,0.4373 -0.4262,0.64754 -0.17543,0.22611 -0.40851,0.39605 -0.63564,0.56608 -0.20639,0.1675 -0.40739,0.34164 -0.61595,0.50637 -0.20891,0.15977 -0.40393,0.33673 -0.6173,0.49059 -0.42868,0.27014 -0.85727,0.55689 -1.32692,0.74898 -0.22943,0.1258 -0.45702,0.24028 -0.71146,0.30389 -0.25132,0.0539 -0.49832,0.11921 -0.75389,0.15192 -0.26765,0.004 -0.48337,0.16303 -0.70831,0.28941 -0.0558,0.0308 -0.11096,0.0628 -0.16739,0.0924 -0.057,0.03 -0.11614,0.0557 -0.17278,0.0863 -0.60633,0.32785 0.77216,-0.4647 0.24166,-0.12178 -0.0408,0.0264 -0.0813,0.0532 -0.12198,0.0798 -0.11446,0.0709 -0.21326,0.1624 -0.31431,0.25039 0,0 -0.72284,0.29311 -0.72284,0.29311 v 0 c 0.10364,-0.0882 0.19817,-0.18681 0.31334,-0.26061 0.49707,-0.33204 1.01977,-0.62392 1.54629,-0.90602 0.23279,-0.13082 0.45564,-0.26702 0.73151,-0.27062 0.25213,-0.0377 0.49781,-0.10255 0.74622,-0.15878 0.2484,-0.0742 0.47177,-0.19972 0.70422,-0.31265 0.2515,-0.11794 0.73842,-0.41092 -0.32385,0.20941 -0.30132,0.17596 0.62679,-0.34232 0.31385,-0.18981 0.22079,-0.14394 0.41322,-0.32524 0.61956,-0.48828 0.21749,-0.15203 0.41002,-0.34017 0.61755,-0.50606 0.22232,-0.17219 0.46001,-0.32868 0.6443,-0.54452 0.14867,-0.2072 0.31241,-0.40621 0.42774,-0.6347 0.10154,-0.21371 0.244,-0.40489 0.33071,-0.62651 0.12938,-0.20929 0.26994,-0.40559 0.42972,-0.59295 0,0 0.71854,-0.3251 0.71854,-0.3251 z"
     inkscape:connector-curvature="0" />
  <path
     style="fill:#87de87"
     id="path3716"
     d="m 166.08331,171.20286 c 0.71419,-0.41143 -0.76985,0.48306 -0.22795,0.11659 0.0422,-0.0285 0.0836,-0.0582 0.12588,-0.0865 0.0409,-0.0274 0.0824,-0.0537 0.1236,-0.0806 0.46076,-0.28986 0.93156,-0.56534 1.42307,-0.79995 0.34696,-0.16766 0.70082,-0.3194 1.05251,-0.47702 0.32544,-0.13115 0.28362,-0.12226 -0.37248,0.2354 -0.0419,0.0229 0.0808,-0.051 0.12143,-0.076 0.10228,-0.0631 0.19663,-0.12173 0.28733,-0.2006 0.1265,-0.14262 0.1735,-0.33458 0.1589,-0.52203 -0.007,-0.01 -0.0108,-0.0329 -0.0222,-0.0288 -0.0138,0.005 -0.0269,0.0482 -0.0137,0.0418 0.21155,-0.10305 0.40978,-0.23186 0.6202,-0.33719 0.029,-0.0145 -0.0512,0.0401 -0.0736,0.0635 -0.0262,0.0275 -0.11166,0.1441 -0.13346,0.17334 -0.13656,0.18645 -0.29324,0.35592 -0.43897,0.53491 -0.15243,0.25779 -0.35853,0.4623 -0.58104,0.6595 -0.24388,0.18911 -0.45821,0.412 -0.69917,0.60429 -0.37607,0.31993 -0.8138,0.547 -1.23939,0.79381 -0.20461,0.1008 -0.43473,0.0898 -0.65256,0.13352 -0.28944,0.1062 -0.58084,0.20105 -0.87869,0.28128 -0.52612,0.15323 -1.06784,0.24766 -1.60158,0.37115 -0.094,0.0217 -0.18796,0.0434 -0.28195,0.0651 0,0 0.60313,-0.45921 0.60313,-0.45921 v 0 c 0.093,-0.0209 0.1859,-0.0418 0.27885,-0.0628 0.53972,-0.12188 1.085,-0.22504 1.61503,-0.38563 0.30003,-0.0841 0.59105,-0.1925 0.88949,-0.28014 0.21701,-0.0323 0.44068,-0.0424 0.6361,-0.15459 -1.18166,0.69125 -0.32915,0.20625 -0.0923,-0.014 0.25118,-0.18262 0.45884,-0.41537 0.70703,-0.60222 0.22378,-0.18928 0.43759,-0.38249 0.57881,-0.64353 0.14383,-0.1803 0.30105,-0.34766 0.43898,-0.53247 0.21325,-0.27554 0.76118,-1.01837 1.03777,-0.58508 0.0223,0.20331 -0.0172,0.41585 -0.1321,0.58725 -0.24938,0.26511 -1.04097,0.6624 -1.20952,0.75457 -0.0494,0.027 -0.10387,0.0433 -0.15581,0.065 -0.35209,0.15748 -0.70719,0.30832 -1.05267,0.47999 -0.25115,0.12244 -0.79679,0.43881 0.27056,-0.18338 0.3794,-0.22116 -0.73822,0.40726 -0.36382,0.2187 -0.45056,0.27957 -0.88518,0.58726 -1.36155,0.8247 0,0 0.61587,-0.49264 0.61587,-0.49264 z"
     inkscape:connector-curvature="0" />
  <path
     style="fill:#87de87"
     id="path3718"
     d="m 166.42484,170.97517 c -0.28412,0.17109 0.58175,-0.29904 0.31489,-0.13792 -1.04351,0.62999 -0.51541,0.28983 -0.29252,0.13356 0.21113,-0.12499 0.40401,-0.27669 0.59503,-0.4298 0.21644,-0.17935 0.45203,-0.33238 0.67115,-0.50816 0.0281,0.009 0.23143,-0.23613 0.24089,-0.2303 0.0302,0.0187 0.0415,0.0641 0.0382,0.0995 -0.002,0.0197 -0.0678,0.041 -0.0505,0.0314 0.19559,-0.10778 0.39016,-0.21741 0.58524,-0.32611 -0.29305,0.24037 -0.57949,0.48614 -0.88897,0.7059 -0.27881,0.19523 -0.53094,0.42409 -0.79884,0.63324 -0.21575,0.14501 -0.43232,0.28873 -0.64948,0.43157 -0.25768,0.14691 -0.51255,0.29885 -0.77302,0.44073 -0.0686,0.0374 -0.14731,0.0525 -0.21793,0.0858 -0.0283,0.0134 -0.11002,0.06 -0.0829,0.0444 0.21358,-0.12333 0.79007,-0.16993 0.64225,-0.36735 -0.15257,-0.20376 -0.47566,0.18148 -0.71348,0.27221 0.48435,-0.32004 1.00147,-0.60201 1.53053,-0.84321 0.30895,-0.0936 0.59068,-0.25183 0.89522,-0.35688 0.1641,-0.0341 0.40632,-0.24274 0.55932,-0.18435 0.009,0.0265 0.0268,0.0515 0.0272,0.0796 0.001,0.0953 -0.17234,0.18987 -0.23612,0.22679 -0.25669,0.14859 -0.51512,0.29414 -0.77268,0.4412 -0.25529,0.12674 -0.52479,0.21928 -0.78839,0.32589 -0.24113,0.10066 -0.48676,0.18573 -0.73144,0.27716 -0.15357,0.0667 -0.3446,0.0737 -0.244,-0.14814 0.11724,-0.15182 0.26278,-0.27351 0.41121,-0.39293 0.33377,-0.3008 0.74593,-0.47903 1.1355,-0.69901 0.0266,-0.0123 0.0526,-0.026 0.0799,-0.0369 0.20435,-0.0817 -0.0269,0.0263 0.1591,-0.0714 0.0252,-0.0132 0.10168,-0.0512 0.077,-0.037 -0.7233,0.41869 -0.78677,0.46306 -0.53621,0.297 0.24047,-0.13839 0.58256,-0.6554 0.72141,-0.41519 0.13941,0.24119 -0.45021,0.32862 -0.68303,0.4816 -0.0501,0.0329 -0.1169,0.0295 -0.17141,0.0545 -0.0359,0.0164 -0.13915,0.0745 -0.10499,0.0547 0.18385,-0.10645 0.36945,-0.20986 0.55417,-0.3148 -0.33567,0.20569 -0.68216,0.39334 -1.01941,0.59626 -0.18976,0.11417 0.38318,-0.22217 0.57682,-0.32962 0.0196,-0.0109 -0.049,0.0418 -0.0629,0.0242 0.005,-0.0217 0.001,-0.0486 0.0161,-0.0652 0.0427,-0.047 0.53809,-0.21878 0.62213,-0.2476 0.2508,-0.11466 0.5213,-0.16667 0.77733,-0.26615 0.23717,-0.1165 0.77706,-0.42995 -0.26566,0.15519 0,0 0.72241,-0.28224 0.72241,-0.28224 v 0 c -0.34878,0.20708 -0.69354,0.44378 -1.06927,0.60646 -0.25763,0.0927 -0.52583,0.15323 -0.77719,0.2643 -0.0947,0.0346 -0.57764,0.25017 -0.64059,0.24473 -0.0343,-0.003 -0.0613,-0.0313 -0.0919,-0.0469 -0.004,-0.0176 -0.0187,-0.036 -0.0122,-0.0528 0.0286,-0.0739 1.72117,-0.99927 0.26297,-0.17669 -0.0799,0.0451 0.30626,-0.19256 0.23471,-0.14367 0.26104,-0.15061 0.52002,-0.30486 0.78312,-0.45183 0.0589,-0.0329 0.1491,-0.0636 0.21601,-0.0776 0.0286,-0.006 0.1081,-0.0312 0.0871,-0.0108 -0.50259,0.48708 -1.02968,0.7466 0.0564,0.11374 -0.36295,0.23092 -0.72914,0.45546 -1.12398,0.6252 -0.2899,0.14036 -0.0647,0.034 0.50914,-0.30941 0.0259,-0.0155 -0.0543,0.0269 -0.0796,0.0433 -0.0978,0.0631 -0.053,0.0475 -0.14488,0.12228 -0.026,0.0212 -0.0548,0.0388 -0.0821,0.0582 -0.14019,0.1219 -0.29501,0.22624 -0.41239,0.37238 -0.0261,0.0208 -0.0924,0.0596 -0.0703,0.038 0.0198,-0.0193 0.2156,-0.0215 0.20396,-0.0572 0.24353,-0.0915 0.48886,-0.17709 0.72916,-0.27701 0.26564,-0.10177 0.53192,-0.20355 0.78502,-0.33438 -1.15599,0.67749 -0.58502,0.37448 -0.39909,0.23401 0.0176,-0.0133 0.0264,-0.0365 0.0445,-0.0492 0.0397,-0.0277 0.0469,-0.0101 0.0779,0.011 -0.18256,0.0381 -0.33979,0.16943 -0.52346,0.20942 -0.29785,0.11195 -0.58355,0.25404 -0.88472,0.35769 -0.0579,0.0278 -0.1163,0.0547 -0.17372,0.0835 -0.0567,0.0285 -0.11205,0.0596 -0.16861,0.0883 -0.66375,0.33757 0.86458,-0.5266 0.15007,-0.10553 -0.25323,0.10366 -0.63259,0.55329 -0.75969,0.31098 -0.0127,-0.0242 0.54452,-0.33986 0.79186,-0.44688 0.0711,-0.0308 0.27946,-0.13189 0.2137,-0.091 -0.18497,0.11495 -0.3755,0.22069 -0.56326,0.33104 0.22246,-0.13732 0.43251,-0.29439 0.65759,-0.42778 0.27417,-0.20379 0.52127,-0.44068 0.80093,-0.63742 0.30941,-0.21349 0.59865,-0.44935 0.87932,-0.69885 0.25225,-0.1521 0.50293,-0.30684 0.75676,-0.45631 0.0545,-0.0321 0.11925,-0.0593 0.12628,0.0647 3.4e-4,0.006 -0.25375,0.22079 -0.25103,0.23808 -0.21443,0.17892 -0.44852,0.32887 -0.66339,0.50716 -0.19722,0.14845 -0.38029,0.31842 -0.59942,0.43595 -0.43101,0.29774 -0.87656,0.57736 -1.3607,0.78134 0,0 0.61587,-0.49264 0.61587,-0.49264 z"
     inkscape:connector-curvature="0" />
</svg>
