<?xml version="1.0" encoding="UTF-8" standalone="no"?>
<!-- Created with Inkscape (http://www.inkscape.org/) -->

<svg
   xmlns:dc="http://purl.org/dc/elements/1.1/"
   xmlns:cc="http://creativecommons.org/ns#"
   xmlns:rdf="http://www.w3.org/1999/02/22-rdf-syntax-ns#"
   xmlns:svg="http://www.w3.org/2000/svg"
   xmlns="http://www.w3.org/2000/svg"
   xmlns:sodipodi="http://sodipodi.sourceforge.net/DTD/sodipodi-0.dtd"
   xmlns:inkscape="http://www.inkscape.org/namespaces/inkscape"
   width="1280"
   height="851"
   viewBox="0 0 338.66666 225.16042"
   version="1.1"
   id="svg4850"
   inkscape:version="0.92.0 r15299"
   sodipodi:docname="parallax.svg">
  <defs
     id="defs4844" />
  <sodipodi:namedview
     id="base"
     pagecolor="#ffffff"
     bordercolor="#666666"
     borderopacity="1.0"
     inkscape:pageopacity="0.0"
     inkscape:pageshadow="2"
     inkscape:zoom="0.35"
     inkscape:cx="400"
     inkscape:cy="560"
     inkscape:document-units="px"
     inkscape:current-layer="layer7"
     showgrid="false"
     units="px"
     inkscape:window-width="1280"
     inkscape:window-height="962"
     inkscape:window-x="-8"
     inkscape:window-y="-8"
     inkscape:window-maximized="1" />
  <metadata
     id="metadata4847">
    <rdf:RDF>
      <cc:Work
         rdf:about="">
        <dc:format>image/svg+xml</dc:format>
        <dc:type
           rdf:resource="http://purl.org/dc/dcmitype/StillImage" />
        <dc:title></dc:title>
      </cc:Work>
    </rdf:RDF>
  </metadata>
  <g
     inkscape:groupmode="layer"
     id="layer8"
     inkscape:label="Layer 3">
    <rect
       style="fill:#165044;fill-opacity:1;stroke:#2affd5;stroke-width:0.25829139;stroke-miterlimit:4;stroke-dasharray:none;stroke-opacity:0"
       id="rect5462"
       width="352.28009"
       height="269.12534"
       x="-6.8067174"
       y="-5.4082055" />
  </g>
  <g
     inkscape:groupmode="layer"
     id="layer7"
     inkscape:label="Layer 2">
    <ellipse
       style="fill:#00ff66;fill-opacity:1;stroke:#e9c869;stroke-width:0.25737074;stroke-miterlimit:4;stroke-dasharray:none;stroke-opacity:0"
       id="path5418"
       cx="173.11313"
       cy="201.72589"
       rx="59.723843"
       ry="58.967892" />
  </g>
  <g
     inkscape:label="Layer 1"
     inkscape:groupmode="layer"
     id="layer1"
     transform="translate(0,-71.839567)">
    <path
       style="display:inline;fill:#afe9af;stroke:#002b11;stroke-width:0.43373379px;stroke-linecap:butt;stroke-linejoin:miter;stroke-opacity:1"
       d="m 218.82237,227.95718 -0.16278,1.68103 -3.30729,0.108 -0.32505,65.6022 -4.44572,-0.108 -0.37982,1.8433 -1.13843,0.16278 1.08417,3.30677 -0.0538,5.96398 -4.77128,-0.0543 -0.2713,-1.62626 -9.37927,0.10852 0.0543,1.73478 -1.24696,0.0537 -0.70486,-31.22858 -5.31337,-0.16278 -0.32505,-16.48168 -1.78955,-0.10852 -0.32505,-11.16831 -1.24695,0.0537 -0.21704,-2.92747 c 0,0 -0.48777,-0.4335 -0.43357,-0.37931 0.70482,-5.58433 -7.10241,-9.65057 -7.10241,-9.65057 l 0.65061,-1.08469 h -7.48223 l 0.5426,1.19269 c 0,0 -0.2171,-0.10836 -0.2713,0.0543 -5.58432,2.2771 -6.61458,9.59632 -6.61458,9.59632 l -0.75913,0.21704 0.32556,2.71095 -1.73477,0.32504 0.0537,11.33161 -2.43965,0.16226 -0.0543,21.30723 h -0.3793 l -0.16278,-4.33721 -1.51774,-0.97565 -20.38583,-0.2713 0.0543,1.51826 -0.21653,22.12009 c 0,0 -4.39183,0.21637 -4.2292,0.10801 -0.86746,0.9759 -1.46399,0.5426 -1.46399,0.5426 l -3.09025,-0.0543 v -0.59635 l -0.0543,-0.70487 0.43408,-0.0543 0.32505,-0.65061 -0.43357,-0.10852 -0.0543,-1.464 h 0.21704 l 0.0537,-0.97565 h -0.27078 l -0.10852,-1.30121 h 0.21704 l 0.0543,-0.86764 -0.32556,-0.0543 0.0543,-1.24695 0.21704,-0.108 0.0543,-0.97617 -0.21704,-0.108 -0.10852,-1.40974 h 0.21704 l 0.0543,-0.81338 -0.16278,-0.10852 0.0543,-1.35548 0.32505,-0.0543 v -0.97565 l -0.32505,-0.10852 -0.21704,-1.35547 h 0.59635 v -0.37931 l -0.37931,-0.3793 -0.0543,-1.62678 h 0.48782 l -0.0543,-0.59634 -0.43357,-0.10852 -0.0543,-1.73478 h 0.54208 l 0.0543,-0.59634 h -0.48783 l -0.10852,-1.78904 h 0.59635 v -0.65061 l -0.54209,-0.21704 -0.0543,-1.13843 0.2713,0.10852 0.108,-0.43357 -0.3793,-0.16278 -0.10852,-2.1146 -2.65617,-1.572 h -8.24136 l 0.32557,-1.95181 1.24695,-0.2713 1.13843,-0.21704 -1.13843,-1.1927 -2.16886,0.16278 0.6506,-0.97617 0.21704,-0.7586 -1.19269,-0.86765 0.75913,-0.37931 0.0537,-0.70486 -0.54208,-0.70539 c -1.30121,-1.6807 -2.06034,-0.16226 -2.06034,-0.16226 l -0.97565,0.16226 -0.10852,0.48834 0.6506,0.81288 0.10852,0.48834 c 0,0 -0.9761,0.86707 -0.9219,0.81287 -0.21686,0.10842 0.48834,1.57251 0.48834,1.57251 l -2.87373,0.10852 0.0543,1.572 2.38538,0.10852 1.03043,2.06034 -12.03647,-0.32505 -0.92139,1.24696 -0.48783,0.54208 0.0543,2.92747 0.37931,0.2713 -0.0543,1.464 -0.54209,0.0543 v 0.97565 h 0.54209 v 1.46399 h -0.59635 v 0.81339 l 0.48783,0.16226 0.0543,1.24695 -0.59635,0.16279 v 0.75912 l 0.48783,0.21653 0.0543,1.30121 h -0.48783 l 0.0543,0.81339 h 0.43409 l 0.108,1.40973 -0.54209,0.10852 0.0543,0.65061 0.43409,0.16278 0.0543,1.57199 h -0.43408 v 1.13844 h 0.43408 l 0.0543,1.46399 -0.5426,0.0543 v 0.54209 l 0.0543,0.10851 -0.0543,1.1927 -8.728659,-0.2713 -0.108522,-1.40922 -1.517737,-0.65061 -0.867648,-1.35547 c 0,0 -0.108519,-2.98209 -0.16278,-2.87373 -0.162637,-3.03612 -1.192691,-2.1684 -1.192691,-2.2226 -0.542171,0.48796 -0.542087,4.77077 -0.542087,4.77077 l -1.789038,1.51825 -0.108521,0.43357 -1.409732,0.2713 -0.05426,1.46399 -9.16223,0.16227 -0.162782,-0.37931 0.379304,-0.32556 -0.379304,-0.3793 -0.162779,-1.464 0.542083,-0.43356 -0.487825,-0.43357 0.05426,-1.35547 0.271302,-0.37982 -0.37982,-0.16227 v -1.46399 l 0.271301,-0.37982 -0.325562,-0.27079 -0.108006,-1.73478 0.758611,-0.59686 -0.379304,-0.48782 v -1.24696 l 0.21704,-0.54208 -0.162779,-0.37931 -0.108522,-1.46399 0.434084,-0.48782 -0.434084,-0.48835 v -1.62626 l 0.650605,-0.6506 -0.704866,-0.37982 v -0.65061 l 0.542603,-0.43356 -0.434081,-0.54209 -0.05426,-2.06034 -8.782925,-3.46955 -0.05426,-1.08469 -1.138431,-0.32505 -1.735296,-0.0543 -0.05426,-0.75913 0.325562,-0.27078 -0.108519,-0.32556 -0.487825,-0.86713 -0.162783,-0.65061 0.542087,-0.0543 v -1.51825 c 0,0 -0.758611,-0.27124 -0.758611,-0.21704 -1.355429,-1.78908 -2.006079,-0.10801 -2.006079,-0.10801 l -0.813387,0.43357 0.325046,1.8433 -0.433565,0.37982 0.21704,2.05982 -3.307291,0.16278 0.379304,1.35548 h 2.27738 l 1.789038,2.00607 -5.150588,-0.21704 -9.325531,0.0543 0.108522,1.62678 -0.542086,0.108 -0.05426,0.43408 0.433565,0.32505 v 0.92191 l -0.487826,0.16226 v 0.86765 l 0.433568,0.2713 0.05426,1.51774 -0.433565,0.37982 0.379822,0.3793 v 1.464 l -0.813387,0.54208 0.759127,0.48783 0.05426,1.68103 -0.704865,0.43357 0.542083,0.3793 v 1.46399 l -0.704866,0.2713 0.704866,0.48783 0.05426,1.35547 -0.596344,0.59635 0.542083,0.27078 v 1.68104 l -0.487823,0.6506 0.487823,0.16227 0.05426,1.62677 -0.433565,0.43357 0.216525,0.16278 0.05426,1.89756 -0.325046,0.3793 0.325046,0.37982 0.108519,1.62626 -0.433565,0.43408 0.379307,0.16227 0.05426,1.68103 -0.433565,0.43357 0.325562,0.2713 0.05426,2.16834 -4.445722,0.0465 c -0.0031,-0.0142 0.01125,-0.0353 0,-0.0465 -0.02705,-0.0271 -0.135731,0.0271 -0.162782,0 -0.01311,-0.0128 0.01311,-0.0412 0,-0.0543 -0.01279,-0.0131 -0.03622,0 -0.05426,0 h -0.05426 -0.486794 l 0.106971,-11.00605 -3.090251,-0.6506 -0.271301,-6.39754 -2.601907,-0.59635 0.108518,-4.17442 -6.181018,-7.75302 -5.204849,-1.19269 -5.584155,6.55981 0.05426,5.47615 h -3.144511 v 7.97005 l -3.578593,0.0538 0.162781,10.51822 c 0,0 -0.487826,0.0542 -0.487826,0 -4.8252892,-1.03013 -13.0663856,0.59635 -13.0663856,0.59635 l 0.9219075,0.015 c 0.00216,0.0137 0.00933,0.0294 0,0.0388 -0.012786,0.0131 -0.036228,0 -0.05426,0 h -0.3794502 -0.8676473 c -0.013114,0 -0.1611408,-0.002 -0.1627808,0 -0.013114,0.0128 0.013114,0.0412 0,0.0543 -0.012787,0.0131 -0.036228,0 -0.05426,0 0,0.0181 0.013114,0.0412 0,0.0543 -0.025573,0.0256 -0.082947,-0.0256 -0.1085205,0 -0.013114,0.0128 0.013114,0.0406 0,0.0537 -0.025409,0.0256 -0.082947,-0.0256 -0.1085205,0 -0.013114,0.0128 0,0.0363 0,0.0543 v 0.11111 l -0.8898681,-0.0873 0.076481,35.38079 344.2668387,-0.57103 0.30644,-23.00221 -2.41122,-0.0651 -12.74083,0.108 -0.21704,0.75913 -1.73479,0.16278 h -3.25302 l -0.32555,-1.35547 -8.83719,-0.10852 0.0542,1.35547 h -7.86154 v 3.14451 l -2.33111,0.0543 -0.0543,-2.2226 h -0.97616 l -0.0543,-3.14451 h -2.43965 l -0.108,-1.03043 h -3.57859 v 1.03043 l -0.59635,0.108 -0.48784,-2.27686 -5.36763,0.0543 -0.0543,-18.7048 -0.70485,-40.49986 -9.32503,-0.21704 h -26.0785 l 0.21704,13.87978 0.21549,61.7802 c -3.4e-4,-3.5e-4 -6.9e-4,-6.8e-4 -0.001,-0.001 l -0.21549,-61.77917 -2.65669,-0.0543 -1.24695,2.2226 0.21704,55.68084 h -4.93406 l -0.0382,3.40651 0.30385,0.0357 c -0.008,0.007 -0.0148,0.0148 -0.0222,0.0222 -0.0131,0.0131 -0.03,0.0221 -0.0382,0.0382 -0.0432,0.0864 0.0754,-0.005 -0.0171,0.092 l -0.22841,-0.0222 0.002,-0.16588 -4.01888,-0.47077 c -0.0245,-0.0184 -0.0498,-0.0365 -0.0631,-0.0631 -0.0435,-0.0867 0.0435,-0.2388 0,-0.32556 -0.0228,-0.0457 -0.0852,-0.0623 -0.108,-0.108 -0.0435,-0.0867 0.0435,-0.23884 0,-0.32557 -0.005,-0.0102 -0.0161,-0.0163 -0.0243,-0.0243 l -0.19327,-6.91483 -2.81895,-0.0537 -0.0543,-2.81947 -0.81338,0.0543 0.0543,-83.81917 h -4.60851 l -6.4518,0.10852 -0.32504,-1.62677 z m -172.026702,73.41619 0.02222,0.003 c -0.0065,0.008 -0.01301,0.0166 -0.01964,0.0248 0.0023,-0.0104 0.0014,-0.0195 -0.0026,-0.0274 z"
       id="path3701"
       inkscape:connector-curvature="0" />
  </g>
</svg>
